G04 #@! TF.GenerationSoftware,KiCad,Pcbnew,(5.0.1)-4*
G04 #@! TF.CreationDate,2019-03-05T01:58:22+01:00*
G04 #@! TF.ProjectId,1U Headphone,3155204865616470686F6E652E6B6963,rev?*
G04 #@! TF.SameCoordinates,Original*
G04 #@! TF.FileFunction,Legend,Bot*
G04 #@! TF.FilePolarity,Positive*
%FSLAX46Y46*%
G04 Gerber Fmt 4.6, Leading zero omitted, Abs format (unit mm)*
G04 Created by KiCad (PCBNEW (5.0.1)-4) date 3/5/2019 1:58:22 AM*
%MOMM*%
%LPD*%
G01*
G04 APERTURE LIST*
%ADD10C,0.150000*%
%ADD11C,0.254000*%
%ADD12C,0.127000*%
%ADD13C,0.120000*%
%ADD14C,0.152400*%
G04 APERTURE END LIST*
D10*
X63862714Y-67265785D02*
X63862714Y-66515785D01*
X63434142Y-67265785D02*
X63755571Y-66837214D01*
X63434142Y-66515785D02*
X63862714Y-66944357D01*
X63112714Y-67265785D02*
X63112714Y-66765785D01*
X63112714Y-66908642D02*
X63077000Y-66837214D01*
X63041285Y-66801500D01*
X62969857Y-66765785D01*
X62898428Y-66765785D01*
X62327000Y-67265785D02*
X62327000Y-66872928D01*
X62362714Y-66801500D01*
X62434142Y-66765785D01*
X62577000Y-66765785D01*
X62648428Y-66801500D01*
X62327000Y-67230071D02*
X62398428Y-67265785D01*
X62577000Y-67265785D01*
X62648428Y-67230071D01*
X62684142Y-67158642D01*
X62684142Y-67087214D01*
X62648428Y-67015785D01*
X62577000Y-66980071D01*
X62398428Y-66980071D01*
X62327000Y-66944357D01*
X61648428Y-67265785D02*
X61648428Y-66872928D01*
X61684142Y-66801500D01*
X61755571Y-66765785D01*
X61898428Y-66765785D01*
X61969857Y-66801500D01*
X61648428Y-67230071D02*
X61719857Y-67265785D01*
X61898428Y-67265785D01*
X61969857Y-67230071D01*
X62005571Y-67158642D01*
X62005571Y-67087214D01*
X61969857Y-67015785D01*
X61898428Y-66980071D01*
X61719857Y-66980071D01*
X61648428Y-66944357D01*
X61291285Y-67265785D02*
X61291285Y-66515785D01*
X61219857Y-66980071D02*
X61005571Y-67265785D01*
X61005571Y-66765785D02*
X61291285Y-67051500D01*
X60398428Y-67230071D02*
X60469857Y-67265785D01*
X60612714Y-67265785D01*
X60684142Y-67230071D01*
X60719857Y-67158642D01*
X60719857Y-66872928D01*
X60684142Y-66801500D01*
X60612714Y-66765785D01*
X60469857Y-66765785D01*
X60398428Y-66801500D01*
X60362714Y-66872928D01*
X60362714Y-66944357D01*
X60719857Y-67015785D01*
X60041285Y-66765785D02*
X60041285Y-67265785D01*
X60041285Y-66837214D02*
X60005571Y-66801500D01*
X59934142Y-66765785D01*
X59827000Y-66765785D01*
X59755571Y-66801500D01*
X59719857Y-66872928D01*
X59719857Y-67265785D01*
X59398428Y-67230071D02*
X59291285Y-67265785D01*
X59112714Y-67265785D01*
X59041285Y-67230071D01*
X59005571Y-67194357D01*
X58969857Y-67122928D01*
X58969857Y-67051500D01*
X59005571Y-66980071D01*
X59041285Y-66944357D01*
X59112714Y-66908642D01*
X59255571Y-66872928D01*
X59327000Y-66837214D01*
X59362714Y-66801500D01*
X59398428Y-66730071D01*
X59398428Y-66658642D01*
X59362714Y-66587214D01*
X59327000Y-66551500D01*
X59255571Y-66515785D01*
X59077000Y-66515785D01*
X58969857Y-66551500D01*
X58755571Y-66765785D02*
X58469857Y-66765785D01*
X58648428Y-66515785D02*
X58648428Y-67158642D01*
X58612714Y-67230071D01*
X58541285Y-67265785D01*
X58469857Y-67265785D01*
X57898428Y-66765785D02*
X57898428Y-67265785D01*
X58219857Y-66765785D02*
X58219857Y-67158642D01*
X58184142Y-67230071D01*
X58112714Y-67265785D01*
X58005571Y-67265785D01*
X57934142Y-67230071D01*
X57898428Y-67194357D01*
X57648428Y-66765785D02*
X57362714Y-66765785D01*
X57541285Y-67265785D02*
X57541285Y-66622928D01*
X57505571Y-66551500D01*
X57434142Y-66515785D01*
X57362714Y-66515785D01*
X57219857Y-66765785D02*
X56934142Y-66765785D01*
X57112714Y-67265785D02*
X57112714Y-66622928D01*
X57077000Y-66551500D01*
X57005571Y-66515785D01*
X56934142Y-66515785D01*
X64987714Y-68540785D02*
X64987714Y-67790785D01*
X64987714Y-68147928D02*
X64559142Y-68147928D01*
X64559142Y-68540785D02*
X64559142Y-67790785D01*
X63916285Y-68505071D02*
X63987714Y-68540785D01*
X64130571Y-68540785D01*
X64202000Y-68505071D01*
X64237714Y-68433642D01*
X64237714Y-68147928D01*
X64202000Y-68076500D01*
X64130571Y-68040785D01*
X63987714Y-68040785D01*
X63916285Y-68076500D01*
X63880571Y-68147928D01*
X63880571Y-68219357D01*
X64237714Y-68290785D01*
X63237714Y-68540785D02*
X63237714Y-68147928D01*
X63273428Y-68076500D01*
X63344857Y-68040785D01*
X63487714Y-68040785D01*
X63559142Y-68076500D01*
X63237714Y-68505071D02*
X63309142Y-68540785D01*
X63487714Y-68540785D01*
X63559142Y-68505071D01*
X63594857Y-68433642D01*
X63594857Y-68362214D01*
X63559142Y-68290785D01*
X63487714Y-68255071D01*
X63309142Y-68255071D01*
X63237714Y-68219357D01*
X62559142Y-68540785D02*
X62559142Y-67790785D01*
X62559142Y-68505071D02*
X62630571Y-68540785D01*
X62773428Y-68540785D01*
X62844857Y-68505071D01*
X62880571Y-68469357D01*
X62916285Y-68397928D01*
X62916285Y-68183642D01*
X62880571Y-68112214D01*
X62844857Y-68076500D01*
X62773428Y-68040785D01*
X62630571Y-68040785D01*
X62559142Y-68076500D01*
X62202000Y-68040785D02*
X62202000Y-68790785D01*
X62202000Y-68076500D02*
X62130571Y-68040785D01*
X61987714Y-68040785D01*
X61916285Y-68076500D01*
X61880571Y-68112214D01*
X61844857Y-68183642D01*
X61844857Y-68397928D01*
X61880571Y-68469357D01*
X61916285Y-68505071D01*
X61987714Y-68540785D01*
X62130571Y-68540785D01*
X62202000Y-68505071D01*
X61523428Y-68540785D02*
X61523428Y-67790785D01*
X61202000Y-68540785D02*
X61202000Y-68147928D01*
X61237714Y-68076500D01*
X61309142Y-68040785D01*
X61416285Y-68040785D01*
X61487714Y-68076500D01*
X61523428Y-68112214D01*
X60737714Y-68540785D02*
X60809142Y-68505071D01*
X60844857Y-68469357D01*
X60880571Y-68397928D01*
X60880571Y-68183642D01*
X60844857Y-68112214D01*
X60809142Y-68076500D01*
X60737714Y-68040785D01*
X60630571Y-68040785D01*
X60559142Y-68076500D01*
X60523428Y-68112214D01*
X60487714Y-68183642D01*
X60487714Y-68397928D01*
X60523428Y-68469357D01*
X60559142Y-68505071D01*
X60630571Y-68540785D01*
X60737714Y-68540785D01*
X60166285Y-68040785D02*
X60166285Y-68540785D01*
X60166285Y-68112214D02*
X60130571Y-68076500D01*
X60059142Y-68040785D01*
X59952000Y-68040785D01*
X59880571Y-68076500D01*
X59844857Y-68147928D01*
X59844857Y-68540785D01*
X59202000Y-68505071D02*
X59273428Y-68540785D01*
X59416285Y-68540785D01*
X59487714Y-68505071D01*
X59523428Y-68433642D01*
X59523428Y-68147928D01*
X59487714Y-68076500D01*
X59416285Y-68040785D01*
X59273428Y-68040785D01*
X59202000Y-68076500D01*
X59166285Y-68147928D01*
X59166285Y-68219357D01*
X59523428Y-68290785D01*
X58344857Y-68040785D02*
X58166285Y-68540785D01*
X57987714Y-68040785D01*
X57702000Y-68469357D02*
X57666285Y-68505071D01*
X57702000Y-68540785D01*
X57737714Y-68505071D01*
X57702000Y-68469357D01*
X57702000Y-68540785D01*
X57202000Y-67790785D02*
X57130571Y-67790785D01*
X57059142Y-67826500D01*
X57023428Y-67862214D01*
X56987714Y-67933642D01*
X56952000Y-68076500D01*
X56952000Y-68255071D01*
X56987714Y-68397928D01*
X57023428Y-68469357D01*
X57059142Y-68505071D01*
X57130571Y-68540785D01*
X57202000Y-68540785D01*
X57273428Y-68505071D01*
X57309142Y-68469357D01*
X57344857Y-68397928D01*
X57380571Y-68255071D01*
X57380571Y-68076500D01*
X57344857Y-67933642D01*
X57309142Y-67862214D01*
X57273428Y-67826500D01*
X57202000Y-67790785D01*
X56630571Y-68469357D02*
X56594857Y-68505071D01*
X56630571Y-68540785D01*
X56666285Y-68505071D01*
X56630571Y-68469357D01*
X56630571Y-68540785D01*
X56309142Y-67862214D02*
X56273428Y-67826500D01*
X56202000Y-67790785D01*
X56023428Y-67790785D01*
X55952000Y-67826500D01*
X55916285Y-67862214D01*
X55880571Y-67933642D01*
X55880571Y-68005071D01*
X55916285Y-68112214D01*
X56344857Y-68540785D01*
X55880571Y-68540785D01*
D11*
G04 #@! TO.C,J1*
X36703000Y-65913000D02*
X36703000Y-76581000D01*
X36703000Y-76581000D02*
X27813000Y-76581000D01*
X27813000Y-76581000D02*
X27813000Y-65913000D01*
X27813000Y-65913000D02*
X36703000Y-65913000D01*
D12*
X33832800Y-70421500D02*
G75*
G03X33832800Y-70421500I-1574800J0D01*
G01*
X34544000Y-70421500D02*
G75*
G03X34544000Y-70421500I-2286000J0D01*
G01*
D11*
G04 #@! TO.C,J2*
X46101000Y-65913000D02*
X46101000Y-76581000D01*
X46101000Y-76581000D02*
X37211000Y-76581000D01*
X37211000Y-76581000D02*
X37211000Y-65913000D01*
X37211000Y-65913000D02*
X46101000Y-65913000D01*
D12*
X43230800Y-70421500D02*
G75*
G03X43230800Y-70421500I-1574800J0D01*
G01*
X43942000Y-70421500D02*
G75*
G03X43942000Y-70421500I-2286000J0D01*
G01*
G04 #@! TO.C,RV1*
X27883837Y-53087843D02*
G75*
G03X27883837Y-53087843I-3500000J0D01*
G01*
X19529837Y-58077943D02*
G75*
G03X20293737Y-58587843I636900J127000D01*
G01*
X28473937Y-58587843D02*
X20293737Y-58587843D01*
X28473937Y-58587843D02*
G75*
G03X29237837Y-58077943I127000J636900D01*
G01*
X29237837Y-48097743D02*
X29237837Y-58077943D01*
X29237837Y-48097743D02*
G75*
G03X28473937Y-47587843I-636900J-127000D01*
G01*
X20293737Y-47587843D02*
X28473937Y-47587843D01*
X20293737Y-47587843D02*
G75*
G03X19529837Y-48097743I-127000J-636900D01*
G01*
X19529837Y-58077943D02*
X19529837Y-48097743D01*
D10*
X22733000Y-55245000D02*
G75*
G02X26035000Y-55245000I1651000J2159000D01*
G01*
X26035000Y-55245000D02*
X22733000Y-55245000D01*
D12*
G04 #@! TO.C,RV2*
X42615837Y-53087843D02*
G75*
G03X42615837Y-53087843I-3500000J0D01*
G01*
X34261837Y-58077943D02*
G75*
G03X35025737Y-58587843I636900J127000D01*
G01*
X43205937Y-58587843D02*
X35025737Y-58587843D01*
X43205937Y-58587843D02*
G75*
G03X43969837Y-58077943I127000J636900D01*
G01*
X43969837Y-48097743D02*
X43969837Y-58077943D01*
X43969837Y-48097743D02*
G75*
G03X43205937Y-47587843I-636900J-127000D01*
G01*
X35025737Y-47587843D02*
X43205937Y-47587843D01*
X35025737Y-47587843D02*
G75*
G03X34261837Y-48097743I-127000J-636900D01*
G01*
X34261837Y-58077943D02*
X34261837Y-48097743D01*
D10*
X37465000Y-55245000D02*
G75*
G02X40767000Y-55245000I1651000J2159000D01*
G01*
X40767000Y-55245000D02*
X37465000Y-55245000D01*
D11*
G04 #@! TO.C,J3*
X27297000Y-65913000D02*
X27297000Y-76581000D01*
X27252000Y-76581000D02*
X17452000Y-76581000D01*
X17407000Y-76581000D02*
X17407000Y-65913000D01*
X17452000Y-65913000D02*
X27252000Y-65913000D01*
D12*
X23926800Y-70421500D02*
G75*
G03X23926800Y-70421500I-1574800J0D01*
G01*
X24638000Y-70421500D02*
G75*
G03X24638000Y-70421500I-2286000J0D01*
G01*
D13*
G04 #@! TO.C,J6*
X59376000Y-50486000D02*
X62036000Y-50486000D01*
X59376000Y-55626000D02*
X59376000Y-50486000D01*
X62036000Y-55626000D02*
X62036000Y-50486000D01*
X59376000Y-55626000D02*
X62036000Y-55626000D01*
X59376000Y-56896000D02*
X59376000Y-58226000D01*
X59376000Y-58226000D02*
X60706000Y-58226000D01*
G04 #@! TO.C,D3*
X36724335Y-63461008D02*
G75*
G02X33492000Y-63617916I-1672335J1078608D01*
G01*
X36724335Y-61303792D02*
G75*
G03X33492000Y-61146884I-1672335J-1078608D01*
G01*
X36093130Y-63462237D02*
G75*
G02X34011039Y-63462400I-1041130J1079837D01*
G01*
X36093130Y-61302563D02*
G75*
G03X34011039Y-61302400I-1041130J-1079837D01*
G01*
X33492000Y-63618400D02*
X33492000Y-63462400D01*
X33492000Y-61302400D02*
X33492000Y-61146400D01*
G04 #@! TO.C,D4*
X27650000Y-61302400D02*
X27650000Y-61146400D01*
X27650000Y-63618400D02*
X27650000Y-63462400D01*
X30251130Y-61302563D02*
G75*
G03X28169039Y-61302400I-1041130J-1079837D01*
G01*
X30251130Y-63462237D02*
G75*
G02X28169039Y-63462400I-1041130J1079837D01*
G01*
X30882335Y-61303792D02*
G75*
G03X27650000Y-61146884I-1672335J-1078608D01*
G01*
X30882335Y-63461008D02*
G75*
G02X27650000Y-63617916I-1672335J1078608D01*
G01*
G04 #@! TO.C,J8*
X55025600Y-63712400D02*
X55025600Y-62382400D01*
X53695600Y-63712400D02*
X55025600Y-63712400D01*
X52425600Y-63712400D02*
X52425600Y-61052400D01*
X52425600Y-61052400D02*
X47285600Y-61052400D01*
X52425600Y-63712400D02*
X47285600Y-63712400D01*
X47285600Y-63712400D02*
X47285600Y-61052400D01*
G04 #@! TO.C,J10*
X74329600Y-61052400D02*
X74329600Y-63712400D01*
X69189600Y-61052400D02*
X74329600Y-61052400D01*
X69189600Y-63712400D02*
X74329600Y-63712400D01*
X69189600Y-61052400D02*
X69189600Y-63712400D01*
X67919600Y-61052400D02*
X66589600Y-61052400D01*
X66589600Y-61052400D02*
X66589600Y-62382400D01*
G04 #@! TO.C,J1*
D14*
X34804047Y-74975236D02*
X35665833Y-74975236D01*
X35838190Y-74917783D01*
X35953095Y-74802879D01*
X36010547Y-74630521D01*
X36010547Y-74515617D01*
X36010547Y-76181736D02*
X36010547Y-75492307D01*
X36010547Y-75837021D02*
X34804047Y-75837021D01*
X34976404Y-75722117D01*
X35091309Y-75607212D01*
X35148761Y-75492307D01*
X35681673Y-65320866D02*
X35915006Y-64987533D01*
X36081673Y-65320866D02*
X36081673Y-64620866D01*
X35815006Y-64620866D01*
X35748340Y-64654200D01*
X35715006Y-64687533D01*
X35681673Y-64754200D01*
X35681673Y-64854200D01*
X35715006Y-64920866D01*
X35748340Y-64954200D01*
X35815006Y-64987533D01*
X36081673Y-64987533D01*
X35548340Y-65387533D02*
X35015006Y-65387533D01*
X34848340Y-65320866D02*
X34848340Y-64620866D01*
X34515006Y-65320866D02*
X34515006Y-64620866D01*
X34115006Y-65320866D01*
X34115006Y-64620866D01*
G04 #@! TO.C,J2*
X43948047Y-74899036D02*
X44809833Y-74899036D01*
X44982190Y-74841583D01*
X45097095Y-74726679D01*
X45154547Y-74554321D01*
X45154547Y-74439417D01*
X44062952Y-75416107D02*
X44005500Y-75473560D01*
X43948047Y-75588464D01*
X43948047Y-75875726D01*
X44005500Y-75990631D01*
X44062952Y-76048083D01*
X44177857Y-76105536D01*
X44292761Y-76105536D01*
X44465119Y-76048083D01*
X45154547Y-75358655D01*
X45154547Y-76105536D01*
X44612940Y-65346266D02*
X44946273Y-65346266D01*
X44946273Y-64646266D01*
X44546273Y-65412933D02*
X44012940Y-65412933D01*
X43846273Y-65346266D02*
X43846273Y-64646266D01*
X43512940Y-65346266D02*
X43512940Y-64646266D01*
X43112940Y-65346266D01*
X43112940Y-64646266D01*
G04 #@! TO.C,RV1*
X20173416Y-59896380D02*
X20506749Y-59420190D01*
X20744844Y-59896380D02*
X20744844Y-58896380D01*
X20363892Y-58896380D01*
X20268654Y-58944000D01*
X20221035Y-58991619D01*
X20173416Y-59086857D01*
X20173416Y-59229714D01*
X20221035Y-59324952D01*
X20268654Y-59372571D01*
X20363892Y-59420190D01*
X20744844Y-59420190D01*
X19887701Y-58896380D02*
X19554368Y-59896380D01*
X19221035Y-58896380D01*
X18363892Y-59896380D02*
X18935320Y-59896380D01*
X18649606Y-59896380D02*
X18649606Y-58896380D01*
X18744844Y-59039238D01*
X18840082Y-59134476D01*
X18935320Y-59182095D01*
X23111701Y-49726547D02*
X23801130Y-49726547D01*
X23456416Y-49726547D02*
X23456416Y-48520047D01*
X23571320Y-48692404D01*
X23686225Y-48807309D01*
X23801130Y-48864761D01*
X22364820Y-48520047D02*
X22249916Y-48520047D01*
X22135011Y-48577500D01*
X22077559Y-48634952D01*
X22020106Y-48749857D01*
X21962654Y-48979666D01*
X21962654Y-49266928D01*
X22020106Y-49496738D01*
X22077559Y-49611642D01*
X22135011Y-49669095D01*
X22249916Y-49726547D01*
X22364820Y-49726547D01*
X22479725Y-49669095D01*
X22537178Y-49611642D01*
X22594630Y-49496738D01*
X22652082Y-49266928D01*
X22652082Y-48979666D01*
X22594630Y-48749857D01*
X22537178Y-48634952D01*
X22479725Y-48577500D01*
X22364820Y-48520047D01*
X21215773Y-48520047D02*
X21100868Y-48520047D01*
X20985963Y-48577500D01*
X20928511Y-48634952D01*
X20871059Y-48749857D01*
X20813606Y-48979666D01*
X20813606Y-49266928D01*
X20871059Y-49496738D01*
X20928511Y-49611642D01*
X20985963Y-49669095D01*
X21100868Y-49726547D01*
X21215773Y-49726547D01*
X21330678Y-49669095D01*
X21388130Y-49611642D01*
X21445582Y-49496738D01*
X21503035Y-49266928D01*
X21503035Y-48979666D01*
X21445582Y-48749857D01*
X21388130Y-48634952D01*
X21330678Y-48577500D01*
X21215773Y-48520047D01*
X20296535Y-49726547D02*
X20296535Y-48520047D01*
X20181630Y-49266928D02*
X19836916Y-49726547D01*
X19836916Y-48922214D02*
X20296535Y-49381833D01*
G04 #@! TO.C,RV2*
X44811416Y-59896380D02*
X45144749Y-59420190D01*
X45382844Y-59896380D02*
X45382844Y-58896380D01*
X45001892Y-58896380D01*
X44906654Y-58944000D01*
X44859035Y-58991619D01*
X44811416Y-59086857D01*
X44811416Y-59229714D01*
X44859035Y-59324952D01*
X44906654Y-59372571D01*
X45001892Y-59420190D01*
X45382844Y-59420190D01*
X44525701Y-58896380D02*
X44192368Y-59896380D01*
X43859035Y-58896380D01*
X43573320Y-58991619D02*
X43525701Y-58944000D01*
X43430463Y-58896380D01*
X43192368Y-58896380D01*
X43097130Y-58944000D01*
X43049511Y-58991619D01*
X43001892Y-59086857D01*
X43001892Y-59182095D01*
X43049511Y-59324952D01*
X43620940Y-59896380D01*
X43001892Y-59896380D01*
X42923701Y-49726547D02*
X43613130Y-49726547D01*
X43268416Y-49726547D02*
X43268416Y-48520047D01*
X43383320Y-48692404D01*
X43498225Y-48807309D01*
X43613130Y-48864761D01*
X42176820Y-48520047D02*
X42061916Y-48520047D01*
X41947011Y-48577500D01*
X41889559Y-48634952D01*
X41832106Y-48749857D01*
X41774654Y-48979666D01*
X41774654Y-49266928D01*
X41832106Y-49496738D01*
X41889559Y-49611642D01*
X41947011Y-49669095D01*
X42061916Y-49726547D01*
X42176820Y-49726547D01*
X42291725Y-49669095D01*
X42349178Y-49611642D01*
X42406630Y-49496738D01*
X42464082Y-49266928D01*
X42464082Y-48979666D01*
X42406630Y-48749857D01*
X42349178Y-48634952D01*
X42291725Y-48577500D01*
X42176820Y-48520047D01*
X41027773Y-48520047D02*
X40912868Y-48520047D01*
X40797963Y-48577500D01*
X40740511Y-48634952D01*
X40683059Y-48749857D01*
X40625606Y-48979666D01*
X40625606Y-49266928D01*
X40683059Y-49496738D01*
X40740511Y-49611642D01*
X40797963Y-49669095D01*
X40912868Y-49726547D01*
X41027773Y-49726547D01*
X41142678Y-49669095D01*
X41200130Y-49611642D01*
X41257582Y-49496738D01*
X41315035Y-49266928D01*
X41315035Y-48979666D01*
X41257582Y-48749857D01*
X41200130Y-48634952D01*
X41142678Y-48577500D01*
X41027773Y-48520047D01*
X40108535Y-49726547D02*
X40108535Y-48520047D01*
X39993630Y-49266928D02*
X39648916Y-49726547D01*
X39648916Y-48922214D02*
X40108535Y-49381833D01*
G04 #@! TO.C,J3*
X25406047Y-74899036D02*
X26267833Y-74899036D01*
X26440190Y-74841583D01*
X26555095Y-74726679D01*
X26612547Y-74554321D01*
X26612547Y-74439417D01*
X25406047Y-75358655D02*
X25406047Y-76105536D01*
X25865666Y-75703369D01*
X25865666Y-75875726D01*
X25923119Y-75990631D01*
X25980571Y-76048083D01*
X26095476Y-76105536D01*
X26382738Y-76105536D01*
X26497642Y-76048083D01*
X26555095Y-75990631D01*
X26612547Y-75875726D01*
X26612547Y-75531012D01*
X26555095Y-75416107D01*
X26497642Y-75358655D01*
X26575740Y-64747866D02*
X26442406Y-64747866D01*
X26375740Y-64781200D01*
X26309073Y-64847866D01*
X26275740Y-64981200D01*
X26275740Y-65214533D01*
X26309073Y-65347866D01*
X26375740Y-65414533D01*
X26442406Y-65447866D01*
X26575740Y-65447866D01*
X26642406Y-65414533D01*
X26709073Y-65347866D01*
X26742406Y-65214533D01*
X26742406Y-64981200D01*
X26709073Y-64847866D01*
X26642406Y-64781200D01*
X26575740Y-64747866D01*
X25975740Y-64747866D02*
X25975740Y-65314533D01*
X25942406Y-65381200D01*
X25909073Y-65414533D01*
X25842406Y-65447866D01*
X25709073Y-65447866D01*
X25642406Y-65414533D01*
X25609073Y-65381200D01*
X25575740Y-65314533D01*
X25575740Y-64747866D01*
X25342406Y-64747866D02*
X24942406Y-64747866D01*
X25142406Y-65447866D02*
X25142406Y-64747866D01*
G04 #@! TO.C,J6*
D13*
X60939333Y-58842666D02*
X60939333Y-59342666D01*
X60972666Y-59442666D01*
X61039333Y-59509333D01*
X61139333Y-59542666D01*
X61206000Y-59542666D01*
X60306000Y-58842666D02*
X60439333Y-58842666D01*
X60506000Y-58876000D01*
X60539333Y-58909333D01*
X60606000Y-59009333D01*
X60639333Y-59142666D01*
X60639333Y-59409333D01*
X60606000Y-59476000D01*
X60572666Y-59509333D01*
X60506000Y-59542666D01*
X60372666Y-59542666D01*
X60306000Y-59509333D01*
X60272666Y-59476000D01*
X60239333Y-59409333D01*
X60239333Y-59242666D01*
X60272666Y-59176000D01*
X60306000Y-59142666D01*
X60372666Y-59109333D01*
X60506000Y-59109333D01*
X60572666Y-59142666D01*
X60606000Y-59176000D01*
X60639333Y-59242666D01*
G04 #@! TO.C,D3*
X34044666Y-60260666D02*
X34044666Y-59560666D01*
X33878000Y-59560666D01*
X33778000Y-59594000D01*
X33711333Y-59660666D01*
X33678000Y-59727333D01*
X33644666Y-59860666D01*
X33644666Y-59960666D01*
X33678000Y-60094000D01*
X33711333Y-60160666D01*
X33778000Y-60227333D01*
X33878000Y-60260666D01*
X34044666Y-60260666D01*
X33411333Y-59560666D02*
X32978000Y-59560666D01*
X33211333Y-59827333D01*
X33111333Y-59827333D01*
X33044666Y-59860666D01*
X33011333Y-59894000D01*
X32978000Y-59960666D01*
X32978000Y-60127333D01*
X33011333Y-60194000D01*
X33044666Y-60227333D01*
X33111333Y-60260666D01*
X33311333Y-60260666D01*
X33378000Y-60227333D01*
X33411333Y-60194000D01*
G04 #@! TO.C,D4*
X31504666Y-60260666D02*
X31504666Y-59560666D01*
X31338000Y-59560666D01*
X31238000Y-59594000D01*
X31171333Y-59660666D01*
X31138000Y-59727333D01*
X31104666Y-59860666D01*
X31104666Y-59960666D01*
X31138000Y-60094000D01*
X31171333Y-60160666D01*
X31238000Y-60227333D01*
X31338000Y-60260666D01*
X31504666Y-60260666D01*
X30504666Y-59794000D02*
X30504666Y-60260666D01*
X30671333Y-59527333D02*
X30838000Y-60027333D01*
X30404666Y-60027333D01*
G04 #@! TO.C,J8*
X55642266Y-62149066D02*
X56142266Y-62149066D01*
X56242266Y-62115733D01*
X56308933Y-62049066D01*
X56342266Y-61949066D01*
X56342266Y-61882400D01*
X55942266Y-62582400D02*
X55908933Y-62515733D01*
X55875600Y-62482400D01*
X55808933Y-62449066D01*
X55775600Y-62449066D01*
X55708933Y-62482400D01*
X55675600Y-62515733D01*
X55642266Y-62582400D01*
X55642266Y-62715733D01*
X55675600Y-62782400D01*
X55708933Y-62815733D01*
X55775600Y-62849066D01*
X55808933Y-62849066D01*
X55875600Y-62815733D01*
X55908933Y-62782400D01*
X55942266Y-62715733D01*
X55942266Y-62582400D01*
X55975600Y-62515733D01*
X56008933Y-62482400D01*
X56075600Y-62449066D01*
X56208933Y-62449066D01*
X56275600Y-62482400D01*
X56308933Y-62515733D01*
X56342266Y-62582400D01*
X56342266Y-62715733D01*
X56308933Y-62782400D01*
X56275600Y-62815733D01*
X56208933Y-62849066D01*
X56075600Y-62849066D01*
X56008933Y-62815733D01*
X55975600Y-62782400D01*
X55942266Y-62715733D01*
G04 #@! TO.C,J10*
X65206266Y-61815733D02*
X65706266Y-61815733D01*
X65806266Y-61782400D01*
X65872933Y-61715733D01*
X65906266Y-61615733D01*
X65906266Y-61549066D01*
X65906266Y-62515733D02*
X65906266Y-62115733D01*
X65906266Y-62315733D02*
X65206266Y-62315733D01*
X65306266Y-62249066D01*
X65372933Y-62182400D01*
X65406266Y-62115733D01*
X65206266Y-62949066D02*
X65206266Y-63015733D01*
X65239600Y-63082400D01*
X65272933Y-63115733D01*
X65339600Y-63149066D01*
X65472933Y-63182400D01*
X65639600Y-63182400D01*
X65772933Y-63149066D01*
X65839600Y-63115733D01*
X65872933Y-63082400D01*
X65906266Y-63015733D01*
X65906266Y-62949066D01*
X65872933Y-62882400D01*
X65839600Y-62849066D01*
X65772933Y-62815733D01*
X65639600Y-62782400D01*
X65472933Y-62782400D01*
X65339600Y-62815733D01*
X65272933Y-62849066D01*
X65239600Y-62882400D01*
X65206266Y-62949066D01*
G04 #@! TD*
M02*
