G04 #@! TF.GenerationSoftware,KiCad,Pcbnew,(5.0.1)-4*
G04 #@! TF.CreationDate,2019-03-05T01:58:22+01:00*
G04 #@! TF.ProjectId,1U Headphone,3155204865616470686F6E652E6B6963,rev?*
G04 #@! TF.SameCoordinates,Original*
G04 #@! TF.FileFunction,Soldermask,Bot*
G04 #@! TF.FilePolarity,Negative*
%FSLAX46Y46*%
G04 Gerber Fmt 4.6, Leading zero omitted, Abs format (unit mm)*
G04 Created by KiCad (PCBNEW (5.0.1)-4) date 3/5/2019 1:58:22 AM*
%MOMM*%
%LPD*%
G01*
G04 APERTURE LIST*
%ADD10C,0.100000*%
G04 APERTURE END LIST*
D10*
G36*
X41974583Y-74565572D02*
X42173350Y-74647904D01*
X42352239Y-74767434D01*
X42504366Y-74919561D01*
X42623896Y-75098450D01*
X42706228Y-75297217D01*
X42748200Y-75508226D01*
X42748200Y-75723374D01*
X42706228Y-75934383D01*
X42623896Y-76133150D01*
X42504366Y-76312039D01*
X42352239Y-76464166D01*
X42173350Y-76583696D01*
X41974583Y-76666028D01*
X41763574Y-76708000D01*
X41548426Y-76708000D01*
X41337417Y-76666028D01*
X41138650Y-76583696D01*
X40959761Y-76464166D01*
X40807634Y-76312039D01*
X40688104Y-76133150D01*
X40605772Y-75934383D01*
X40563800Y-75723374D01*
X40563800Y-75508226D01*
X40605772Y-75297217D01*
X40688104Y-75098450D01*
X40807634Y-74919561D01*
X40959761Y-74767434D01*
X41138650Y-74647904D01*
X41337417Y-74565572D01*
X41548426Y-74523600D01*
X41763574Y-74523600D01*
X41974583Y-74565572D01*
X41974583Y-74565572D01*
G37*
G36*
X22670583Y-74565572D02*
X22869350Y-74647904D01*
X23048239Y-74767434D01*
X23200366Y-74919561D01*
X23319896Y-75098450D01*
X23402228Y-75297217D01*
X23444200Y-75508226D01*
X23444200Y-75723374D01*
X23402228Y-75934383D01*
X23319896Y-76133150D01*
X23200366Y-76312039D01*
X23048239Y-76464166D01*
X22869350Y-76583696D01*
X22670583Y-76666028D01*
X22459574Y-76708000D01*
X22244426Y-76708000D01*
X22033417Y-76666028D01*
X21834650Y-76583696D01*
X21655761Y-76464166D01*
X21503634Y-76312039D01*
X21384104Y-76133150D01*
X21301772Y-75934383D01*
X21259800Y-75723374D01*
X21259800Y-75508226D01*
X21301772Y-75297217D01*
X21384104Y-75098450D01*
X21503634Y-74919561D01*
X21655761Y-74767434D01*
X21834650Y-74647904D01*
X22033417Y-74565572D01*
X22244426Y-74523600D01*
X22459574Y-74523600D01*
X22670583Y-74565572D01*
X22670583Y-74565572D01*
G37*
G36*
X32576583Y-74565572D02*
X32775350Y-74647904D01*
X32954239Y-74767434D01*
X33106366Y-74919561D01*
X33225896Y-75098450D01*
X33308228Y-75297217D01*
X33350200Y-75508226D01*
X33350200Y-75723374D01*
X33308228Y-75934383D01*
X33225896Y-76133150D01*
X33106366Y-76312039D01*
X32954239Y-76464166D01*
X32775350Y-76583696D01*
X32576583Y-76666028D01*
X32365574Y-76708000D01*
X32150426Y-76708000D01*
X31939417Y-76666028D01*
X31740650Y-76583696D01*
X31561761Y-76464166D01*
X31409634Y-76312039D01*
X31290104Y-76133150D01*
X31207772Y-75934383D01*
X31165800Y-75723374D01*
X31165800Y-75508226D01*
X31207772Y-75297217D01*
X31290104Y-75098450D01*
X31409634Y-74919561D01*
X31561761Y-74767434D01*
X31740650Y-74647904D01*
X31939417Y-74565572D01*
X32150426Y-74523600D01*
X32365574Y-74523600D01*
X32576583Y-74565572D01*
X32576583Y-74565572D01*
G37*
G36*
X22818703Y-68870286D02*
X23109883Y-68990897D01*
X23371944Y-69166001D01*
X23594799Y-69388856D01*
X23769903Y-69650917D01*
X23890514Y-69942097D01*
X23952000Y-70251212D01*
X23952000Y-70566388D01*
X23890514Y-70875503D01*
X23769903Y-71166683D01*
X23594799Y-71428744D01*
X23371944Y-71651599D01*
X23109883Y-71826703D01*
X22818703Y-71947314D01*
X22509588Y-72008800D01*
X22194412Y-72008800D01*
X21885297Y-71947314D01*
X21594117Y-71826703D01*
X21332056Y-71651599D01*
X21109201Y-71428744D01*
X20934097Y-71166683D01*
X20813486Y-70875503D01*
X20752000Y-70566388D01*
X20752000Y-70251212D01*
X20813486Y-69942097D01*
X20934097Y-69650917D01*
X21109201Y-69388856D01*
X21332056Y-69166001D01*
X21594117Y-68990897D01*
X21885297Y-68870286D01*
X22194412Y-68808800D01*
X22509588Y-68808800D01*
X22818703Y-68870286D01*
X22818703Y-68870286D01*
G37*
G36*
X32531126Y-69035700D02*
X32666365Y-69062601D01*
X32921149Y-69168136D01*
X33147397Y-69319311D01*
X33150451Y-69321351D01*
X33345449Y-69516349D01*
X33345451Y-69516352D01*
X33498664Y-69745651D01*
X33580035Y-69942097D01*
X33604199Y-70000436D01*
X33658000Y-70270911D01*
X33658000Y-70546689D01*
X33631099Y-70681927D01*
X33604199Y-70817165D01*
X33498664Y-71071949D01*
X33435364Y-71166684D01*
X33345449Y-71301251D01*
X33150451Y-71496249D01*
X33150448Y-71496251D01*
X32921149Y-71649464D01*
X32666365Y-71754999D01*
X32531127Y-71781899D01*
X32395889Y-71808800D01*
X32120111Y-71808800D01*
X31984873Y-71781899D01*
X31849635Y-71754999D01*
X31594851Y-71649464D01*
X31365552Y-71496251D01*
X31365549Y-71496249D01*
X31170551Y-71301251D01*
X31080636Y-71166684D01*
X31017336Y-71071949D01*
X30911801Y-70817165D01*
X30884901Y-70681927D01*
X30858000Y-70546689D01*
X30858000Y-70270911D01*
X30911801Y-70000436D01*
X30935966Y-69942097D01*
X31017336Y-69745651D01*
X31170549Y-69516352D01*
X31170551Y-69516349D01*
X31365549Y-69321351D01*
X31368603Y-69319311D01*
X31594851Y-69168136D01*
X31849635Y-69062601D01*
X31984874Y-69035700D01*
X32120111Y-69008800D01*
X32395889Y-69008800D01*
X32531126Y-69035700D01*
X32531126Y-69035700D01*
G37*
G36*
X41929126Y-69035700D02*
X42064365Y-69062601D01*
X42319149Y-69168136D01*
X42545397Y-69319311D01*
X42548451Y-69321351D01*
X42743449Y-69516349D01*
X42743451Y-69516352D01*
X42896664Y-69745651D01*
X42978035Y-69942097D01*
X43002199Y-70000436D01*
X43056000Y-70270911D01*
X43056000Y-70546689D01*
X43029099Y-70681927D01*
X43002199Y-70817165D01*
X42896664Y-71071949D01*
X42833364Y-71166684D01*
X42743449Y-71301251D01*
X42548451Y-71496249D01*
X42548448Y-71496251D01*
X42319149Y-71649464D01*
X42064365Y-71754999D01*
X41929127Y-71781899D01*
X41793889Y-71808800D01*
X41518111Y-71808800D01*
X41382873Y-71781899D01*
X41247635Y-71754999D01*
X40992851Y-71649464D01*
X40763552Y-71496251D01*
X40763549Y-71496249D01*
X40568551Y-71301251D01*
X40478636Y-71166684D01*
X40415336Y-71071949D01*
X40309801Y-70817165D01*
X40282901Y-70681927D01*
X40256000Y-70546689D01*
X40256000Y-70270911D01*
X40309801Y-70000436D01*
X40333966Y-69942097D01*
X40415336Y-69745651D01*
X40568549Y-69516352D01*
X40568551Y-69516349D01*
X40763549Y-69321351D01*
X40766603Y-69319311D01*
X40992851Y-69168136D01*
X41247635Y-69062601D01*
X41382874Y-69035700D01*
X41518111Y-69008800D01*
X41793889Y-69008800D01*
X41929126Y-69035700D01*
X41929126Y-69035700D01*
G37*
G36*
X41974583Y-63592772D02*
X42173350Y-63675104D01*
X42352239Y-63794634D01*
X42504366Y-63946761D01*
X42623896Y-64125650D01*
X42706228Y-64324417D01*
X42748200Y-64535426D01*
X42748200Y-64750574D01*
X42706228Y-64961583D01*
X42623896Y-65160350D01*
X42504366Y-65339239D01*
X42352239Y-65491366D01*
X42173350Y-65610896D01*
X41974583Y-65693228D01*
X41805291Y-65726902D01*
X41781842Y-65734015D01*
X41760231Y-65745566D01*
X41741289Y-65761112D01*
X41725743Y-65780054D01*
X41714192Y-65801664D01*
X41707079Y-65825114D01*
X41704677Y-65849500D01*
X41707079Y-65873886D01*
X41714192Y-65897335D01*
X41725743Y-65918946D01*
X41741289Y-65937888D01*
X41760231Y-65953434D01*
X41781841Y-65964985D01*
X41805291Y-65972098D01*
X41974583Y-66005772D01*
X42173350Y-66088104D01*
X42352239Y-66207634D01*
X42504366Y-66359761D01*
X42623896Y-66538650D01*
X42706228Y-66737417D01*
X42748200Y-66948426D01*
X42748200Y-67163574D01*
X42706228Y-67374583D01*
X42623896Y-67573350D01*
X42504366Y-67752239D01*
X42352239Y-67904366D01*
X42173350Y-68023896D01*
X41974583Y-68106228D01*
X41763574Y-68148200D01*
X41548426Y-68148200D01*
X41337417Y-68106228D01*
X41138650Y-68023896D01*
X40959761Y-67904366D01*
X40807634Y-67752239D01*
X40688104Y-67573350D01*
X40605772Y-67374583D01*
X40563800Y-67163574D01*
X40563800Y-66948426D01*
X40605772Y-66737417D01*
X40688104Y-66538650D01*
X40807634Y-66359761D01*
X40959761Y-66207634D01*
X41138650Y-66088104D01*
X41337417Y-66005772D01*
X41506709Y-65972098D01*
X41530158Y-65964985D01*
X41551769Y-65953434D01*
X41570711Y-65937888D01*
X41586257Y-65918946D01*
X41597808Y-65897336D01*
X41604921Y-65873886D01*
X41607323Y-65849500D01*
X41604921Y-65825114D01*
X41597808Y-65801665D01*
X41586257Y-65780054D01*
X41570711Y-65761112D01*
X41551769Y-65745566D01*
X41530159Y-65734015D01*
X41506709Y-65726902D01*
X41337417Y-65693228D01*
X41138650Y-65610896D01*
X40959761Y-65491366D01*
X40807634Y-65339239D01*
X40688104Y-65160350D01*
X40605772Y-64961583D01*
X40563800Y-64750574D01*
X40563800Y-64535426D01*
X40605772Y-64324417D01*
X40688104Y-64125650D01*
X40807634Y-63946761D01*
X40959761Y-63794634D01*
X41138650Y-63675104D01*
X41337417Y-63592772D01*
X41548426Y-63550800D01*
X41763574Y-63550800D01*
X41974583Y-63592772D01*
X41974583Y-63592772D01*
G37*
G36*
X32576583Y-63592772D02*
X32775350Y-63675104D01*
X32954239Y-63794634D01*
X33106366Y-63946761D01*
X33225896Y-64125650D01*
X33308228Y-64324417D01*
X33350200Y-64535426D01*
X33350200Y-64750574D01*
X33308228Y-64961583D01*
X33225896Y-65160350D01*
X33106366Y-65339239D01*
X32954239Y-65491366D01*
X32775350Y-65610896D01*
X32576583Y-65693228D01*
X32407291Y-65726902D01*
X32383842Y-65734015D01*
X32362231Y-65745566D01*
X32343289Y-65761112D01*
X32327743Y-65780054D01*
X32316192Y-65801664D01*
X32309079Y-65825114D01*
X32306677Y-65849500D01*
X32309079Y-65873886D01*
X32316192Y-65897335D01*
X32327743Y-65918946D01*
X32343289Y-65937888D01*
X32362231Y-65953434D01*
X32383841Y-65964985D01*
X32407291Y-65972098D01*
X32576583Y-66005772D01*
X32775350Y-66088104D01*
X32954239Y-66207634D01*
X33106366Y-66359761D01*
X33225896Y-66538650D01*
X33308228Y-66737417D01*
X33350200Y-66948426D01*
X33350200Y-67163574D01*
X33308228Y-67374583D01*
X33225896Y-67573350D01*
X33106366Y-67752239D01*
X32954239Y-67904366D01*
X32775350Y-68023896D01*
X32576583Y-68106228D01*
X32365574Y-68148200D01*
X32150426Y-68148200D01*
X31939417Y-68106228D01*
X31740650Y-68023896D01*
X31561761Y-67904366D01*
X31409634Y-67752239D01*
X31290104Y-67573350D01*
X31207772Y-67374583D01*
X31165800Y-67163574D01*
X31165800Y-66948426D01*
X31207772Y-66737417D01*
X31290104Y-66538650D01*
X31409634Y-66359761D01*
X31561761Y-66207634D01*
X31740650Y-66088104D01*
X31939417Y-66005772D01*
X32108709Y-65972098D01*
X32132158Y-65964985D01*
X32153769Y-65953434D01*
X32172711Y-65937888D01*
X32188257Y-65918946D01*
X32199808Y-65897336D01*
X32206921Y-65873886D01*
X32209323Y-65849500D01*
X32206921Y-65825114D01*
X32199808Y-65801665D01*
X32188257Y-65780054D01*
X32172711Y-65761112D01*
X32153769Y-65745566D01*
X32132159Y-65734015D01*
X32108709Y-65726902D01*
X31939417Y-65693228D01*
X31740650Y-65610896D01*
X31561761Y-65491366D01*
X31409634Y-65339239D01*
X31290104Y-65160350D01*
X31207772Y-64961583D01*
X31165800Y-64750574D01*
X31165800Y-64535426D01*
X31207772Y-64324417D01*
X31290104Y-64125650D01*
X31409634Y-63946761D01*
X31561761Y-63794634D01*
X31740650Y-63675104D01*
X31939417Y-63592772D01*
X32150426Y-63550800D01*
X32365574Y-63550800D01*
X32576583Y-63592772D01*
X32576583Y-63592772D01*
G37*
G36*
X22670583Y-63592772D02*
X22869350Y-63675104D01*
X23048239Y-63794634D01*
X23200366Y-63946761D01*
X23319896Y-64125650D01*
X23402228Y-64324417D01*
X23444200Y-64535426D01*
X23444200Y-64750574D01*
X23402228Y-64961583D01*
X23319896Y-65160350D01*
X23200366Y-65339239D01*
X23048239Y-65491366D01*
X22869350Y-65610896D01*
X22670583Y-65693228D01*
X22501291Y-65726902D01*
X22477842Y-65734015D01*
X22456231Y-65745566D01*
X22437289Y-65761112D01*
X22421743Y-65780054D01*
X22410192Y-65801664D01*
X22403079Y-65825114D01*
X22400677Y-65849500D01*
X22403079Y-65873886D01*
X22410192Y-65897335D01*
X22421743Y-65918946D01*
X22437289Y-65937888D01*
X22456231Y-65953434D01*
X22477841Y-65964985D01*
X22501291Y-65972098D01*
X22670583Y-66005772D01*
X22869350Y-66088104D01*
X23048239Y-66207634D01*
X23200366Y-66359761D01*
X23319896Y-66538650D01*
X23402228Y-66737417D01*
X23444200Y-66948426D01*
X23444200Y-67163574D01*
X23402228Y-67374583D01*
X23319896Y-67573350D01*
X23200366Y-67752239D01*
X23048239Y-67904366D01*
X22869350Y-68023896D01*
X22670583Y-68106228D01*
X22459574Y-68148200D01*
X22244426Y-68148200D01*
X22033417Y-68106228D01*
X21834650Y-68023896D01*
X21655761Y-67904366D01*
X21503634Y-67752239D01*
X21384104Y-67573350D01*
X21301772Y-67374583D01*
X21259800Y-67163574D01*
X21259800Y-66948426D01*
X21301772Y-66737417D01*
X21384104Y-66538650D01*
X21503634Y-66359761D01*
X21655761Y-66207634D01*
X21834650Y-66088104D01*
X22033417Y-66005772D01*
X22202709Y-65972098D01*
X22226158Y-65964985D01*
X22247769Y-65953434D01*
X22266711Y-65937888D01*
X22282257Y-65918946D01*
X22293808Y-65897336D01*
X22300921Y-65873886D01*
X22303323Y-65849500D01*
X22300921Y-65825114D01*
X22293808Y-65801665D01*
X22282257Y-65780054D01*
X22266711Y-65761112D01*
X22247769Y-65745566D01*
X22226159Y-65734015D01*
X22202709Y-65726902D01*
X22033417Y-65693228D01*
X21834650Y-65610896D01*
X21655761Y-65491366D01*
X21503634Y-65339239D01*
X21384104Y-65160350D01*
X21301772Y-64961583D01*
X21259800Y-64750574D01*
X21259800Y-64535426D01*
X21301772Y-64324417D01*
X21384104Y-64125650D01*
X21503634Y-63946761D01*
X21655761Y-63794634D01*
X21834650Y-63675104D01*
X22033417Y-63592772D01*
X22244426Y-63550800D01*
X22459574Y-63550800D01*
X22670583Y-63592772D01*
X22670583Y-63592772D01*
G37*
G36*
X46424645Y-64035215D02*
X46515639Y-64072906D01*
X46594574Y-64125649D01*
X46597534Y-64127627D01*
X46667173Y-64197266D01*
X46721895Y-64279163D01*
X46759585Y-64370155D01*
X46778800Y-64466755D01*
X46778800Y-64565245D01*
X46759585Y-64661845D01*
X46721895Y-64752837D01*
X46667173Y-64834734D01*
X46597534Y-64904373D01*
X46597531Y-64904375D01*
X46515639Y-64959094D01*
X46424645Y-64996785D01*
X46328046Y-65016000D01*
X46229554Y-65016000D01*
X46132955Y-64996785D01*
X46041961Y-64959094D01*
X45960069Y-64904375D01*
X45960066Y-64904373D01*
X45890427Y-64834734D01*
X45835705Y-64752837D01*
X45798015Y-64661845D01*
X45778800Y-64565245D01*
X45778800Y-64466755D01*
X45798015Y-64370155D01*
X45835705Y-64279163D01*
X45890427Y-64197266D01*
X45960066Y-64127627D01*
X45963026Y-64125649D01*
X46041961Y-64072906D01*
X46132955Y-64035215D01*
X46229554Y-64016000D01*
X46328046Y-64016000D01*
X46424645Y-64035215D01*
X46424645Y-64035215D01*
G37*
G36*
X46424645Y-62511215D02*
X46515639Y-62548906D01*
X46596440Y-62602896D01*
X46597534Y-62603627D01*
X46667173Y-62673266D01*
X46721895Y-62755163D01*
X46759585Y-62846155D01*
X46778800Y-62942755D01*
X46778800Y-63041245D01*
X46759585Y-63137845D01*
X46725514Y-63220101D01*
X46721894Y-63228839D01*
X46709215Y-63247814D01*
X46667173Y-63310734D01*
X46597534Y-63380373D01*
X46597531Y-63380375D01*
X46515639Y-63435094D01*
X46424645Y-63472785D01*
X46328046Y-63492000D01*
X46229554Y-63492000D01*
X46132955Y-63472785D01*
X46041961Y-63435094D01*
X45960069Y-63380375D01*
X45960066Y-63380373D01*
X45890427Y-63310734D01*
X45848385Y-63247814D01*
X45835706Y-63228839D01*
X45832087Y-63220101D01*
X45798015Y-63137845D01*
X45778800Y-63041245D01*
X45778800Y-62942755D01*
X45798015Y-62846155D01*
X45835705Y-62755163D01*
X45890427Y-62673266D01*
X45960066Y-62603627D01*
X45961160Y-62602896D01*
X46041961Y-62548906D01*
X46132955Y-62511215D01*
X46229554Y-62492000D01*
X46328046Y-62492000D01*
X46424645Y-62511215D01*
X46424645Y-62511215D01*
G37*
G36*
X28840000Y-63282400D02*
X27040000Y-63282400D01*
X27040000Y-61482400D01*
X28840000Y-61482400D01*
X28840000Y-63282400D01*
X28840000Y-63282400D01*
G37*
G36*
X30742521Y-61516986D02*
X30906309Y-61584829D01*
X31053720Y-61683326D01*
X31179074Y-61808680D01*
X31277571Y-61956091D01*
X31345414Y-62119879D01*
X31380000Y-62293756D01*
X31380000Y-62471044D01*
X31345414Y-62644921D01*
X31277571Y-62808709D01*
X31179074Y-62956120D01*
X31053720Y-63081474D01*
X30906309Y-63179971D01*
X30742521Y-63247814D01*
X30568644Y-63282400D01*
X30391356Y-63282400D01*
X30217479Y-63247814D01*
X30053691Y-63179971D01*
X29906280Y-63081474D01*
X29780926Y-62956120D01*
X29682429Y-62808709D01*
X29614586Y-62644921D01*
X29580000Y-62471044D01*
X29580000Y-62293756D01*
X29614586Y-62119879D01*
X29682429Y-61956091D01*
X29780926Y-61808680D01*
X29906280Y-61683326D01*
X30053691Y-61584829D01*
X30217479Y-61516986D01*
X30391356Y-61482400D01*
X30568644Y-61482400D01*
X30742521Y-61516986D01*
X30742521Y-61516986D01*
G37*
G36*
X34682000Y-63282400D02*
X32882000Y-63282400D01*
X32882000Y-61482400D01*
X34682000Y-61482400D01*
X34682000Y-63282400D01*
X34682000Y-63282400D01*
G37*
G36*
X36584521Y-61516986D02*
X36748309Y-61584829D01*
X36895720Y-61683326D01*
X37021074Y-61808680D01*
X37119571Y-61956091D01*
X37187414Y-62119879D01*
X37222000Y-62293756D01*
X37222000Y-62471044D01*
X37187414Y-62644921D01*
X37119571Y-62808709D01*
X37021074Y-62956120D01*
X36895720Y-63081474D01*
X36748309Y-63179971D01*
X36584521Y-63247814D01*
X36410644Y-63282400D01*
X36233356Y-63282400D01*
X36059479Y-63247814D01*
X35895691Y-63179971D01*
X35748280Y-63081474D01*
X35622926Y-62956120D01*
X35524429Y-62808709D01*
X35456586Y-62644921D01*
X35422000Y-62471044D01*
X35422000Y-62293756D01*
X35456586Y-62119879D01*
X35524429Y-61956091D01*
X35622926Y-61808680D01*
X35748280Y-61683326D01*
X35895691Y-61584829D01*
X36059479Y-61516986D01*
X36233356Y-61482400D01*
X36410644Y-61482400D01*
X36584521Y-61516986D01*
X36584521Y-61516986D01*
G37*
G36*
X44108630Y-61544699D02*
X44268855Y-61593303D01*
X44416520Y-61672231D01*
X44545949Y-61778451D01*
X44652169Y-61907880D01*
X44731097Y-62055545D01*
X44779701Y-62215770D01*
X44796112Y-62382400D01*
X44779701Y-62549030D01*
X44731097Y-62709255D01*
X44652169Y-62856920D01*
X44545949Y-62986349D01*
X44416520Y-63092569D01*
X44268855Y-63171497D01*
X44108630Y-63220101D01*
X43983752Y-63232400D01*
X43900248Y-63232400D01*
X43775370Y-63220101D01*
X43615145Y-63171497D01*
X43467480Y-63092569D01*
X43338051Y-62986349D01*
X43231831Y-62856920D01*
X43152903Y-62709255D01*
X43104299Y-62549030D01*
X43087888Y-62382400D01*
X43104299Y-62215770D01*
X43152903Y-62055545D01*
X43231831Y-61907880D01*
X43338051Y-61778451D01*
X43467480Y-61672231D01*
X43615145Y-61593303D01*
X43775370Y-61544699D01*
X43900248Y-61532400D01*
X43983752Y-61532400D01*
X44108630Y-61544699D01*
X44108630Y-61544699D01*
G37*
G36*
X39712000Y-63232400D02*
X38012000Y-63232400D01*
X38012000Y-61532400D01*
X39712000Y-61532400D01*
X39712000Y-63232400D01*
X39712000Y-63232400D01*
G37*
G36*
X54545600Y-63232400D02*
X52845600Y-63232400D01*
X52845600Y-61532400D01*
X54545600Y-61532400D01*
X54545600Y-63232400D01*
X54545600Y-63232400D01*
G37*
G36*
X51322230Y-61544699D02*
X51482455Y-61593303D01*
X51630120Y-61672231D01*
X51759549Y-61778451D01*
X51865769Y-61907880D01*
X51944697Y-62055545D01*
X51993301Y-62215770D01*
X52009712Y-62382400D01*
X51993301Y-62549030D01*
X51944697Y-62709255D01*
X51865769Y-62856920D01*
X51759549Y-62986349D01*
X51630120Y-63092569D01*
X51482455Y-63171497D01*
X51322230Y-63220101D01*
X51197352Y-63232400D01*
X51113848Y-63232400D01*
X50988970Y-63220101D01*
X50828745Y-63171497D01*
X50681080Y-63092569D01*
X50551651Y-62986349D01*
X50445431Y-62856920D01*
X50366503Y-62709255D01*
X50317899Y-62549030D01*
X50301488Y-62382400D01*
X50317899Y-62215770D01*
X50366503Y-62055545D01*
X50445431Y-61907880D01*
X50551651Y-61778451D01*
X50681080Y-61672231D01*
X50828745Y-61593303D01*
X50988970Y-61544699D01*
X51113848Y-61532400D01*
X51197352Y-61532400D01*
X51322230Y-61544699D01*
X51322230Y-61544699D01*
G37*
G36*
X48782230Y-61544699D02*
X48942455Y-61593303D01*
X49090120Y-61672231D01*
X49219549Y-61778451D01*
X49325769Y-61907880D01*
X49404697Y-62055545D01*
X49453301Y-62215770D01*
X49469712Y-62382400D01*
X49453301Y-62549030D01*
X49404697Y-62709255D01*
X49325769Y-62856920D01*
X49219549Y-62986349D01*
X49090120Y-63092569D01*
X48942455Y-63171497D01*
X48782230Y-63220101D01*
X48657352Y-63232400D01*
X48573848Y-63232400D01*
X48448970Y-63220101D01*
X48288745Y-63171497D01*
X48141080Y-63092569D01*
X48011651Y-62986349D01*
X47905431Y-62856920D01*
X47826503Y-62709255D01*
X47777899Y-62549030D01*
X47761488Y-62382400D01*
X47777899Y-62215770D01*
X47826503Y-62055545D01*
X47905431Y-61907880D01*
X48011651Y-61778451D01*
X48141080Y-61672231D01*
X48288745Y-61593303D01*
X48448970Y-61544699D01*
X48573848Y-61532400D01*
X48657352Y-61532400D01*
X48782230Y-61544699D01*
X48782230Y-61544699D01*
G37*
G36*
X25488000Y-63232400D02*
X23788000Y-63232400D01*
X23788000Y-61532400D01*
X25488000Y-61532400D01*
X25488000Y-63232400D01*
X25488000Y-63232400D01*
G37*
G36*
X19724630Y-61544699D02*
X19884855Y-61593303D01*
X20032520Y-61672231D01*
X20161949Y-61778451D01*
X20268169Y-61907880D01*
X20347097Y-62055545D01*
X20395701Y-62215770D01*
X20412112Y-62382400D01*
X20395701Y-62549030D01*
X20347097Y-62709255D01*
X20268169Y-62856920D01*
X20161949Y-62986349D01*
X20032520Y-63092569D01*
X19884855Y-63171497D01*
X19724630Y-63220101D01*
X19599752Y-63232400D01*
X19516248Y-63232400D01*
X19391370Y-63220101D01*
X19231145Y-63171497D01*
X19083480Y-63092569D01*
X18954051Y-62986349D01*
X18847831Y-62856920D01*
X18768903Y-62709255D01*
X18720299Y-62549030D01*
X18703888Y-62382400D01*
X18720299Y-62215770D01*
X18768903Y-62055545D01*
X18847831Y-61907880D01*
X18954051Y-61778451D01*
X19083480Y-61672231D01*
X19231145Y-61593303D01*
X19391370Y-61544699D01*
X19516248Y-61532400D01*
X19599752Y-61532400D01*
X19724630Y-61544699D01*
X19724630Y-61544699D01*
G37*
G36*
X73166230Y-61544699D02*
X73326455Y-61593303D01*
X73474120Y-61672231D01*
X73603549Y-61778451D01*
X73709769Y-61907880D01*
X73788697Y-62055545D01*
X73837301Y-62215770D01*
X73853712Y-62382400D01*
X73837301Y-62549030D01*
X73788697Y-62709255D01*
X73709769Y-62856920D01*
X73603549Y-62986349D01*
X73474120Y-63092569D01*
X73326455Y-63171497D01*
X73166230Y-63220101D01*
X73041352Y-63232400D01*
X72957848Y-63232400D01*
X72832970Y-63220101D01*
X72672745Y-63171497D01*
X72525080Y-63092569D01*
X72395651Y-62986349D01*
X72289431Y-62856920D01*
X72210503Y-62709255D01*
X72161899Y-62549030D01*
X72145488Y-62382400D01*
X72161899Y-62215770D01*
X72210503Y-62055545D01*
X72289431Y-61907880D01*
X72395651Y-61778451D01*
X72525080Y-61672231D01*
X72672745Y-61593303D01*
X72832970Y-61544699D01*
X72957848Y-61532400D01*
X73041352Y-61532400D01*
X73166230Y-61544699D01*
X73166230Y-61544699D01*
G37*
G36*
X70626230Y-61544699D02*
X70786455Y-61593303D01*
X70934120Y-61672231D01*
X71063549Y-61778451D01*
X71169769Y-61907880D01*
X71248697Y-62055545D01*
X71297301Y-62215770D01*
X71313712Y-62382400D01*
X71297301Y-62549030D01*
X71248697Y-62709255D01*
X71169769Y-62856920D01*
X71063549Y-62986349D01*
X70934120Y-63092569D01*
X70786455Y-63171497D01*
X70626230Y-63220101D01*
X70501352Y-63232400D01*
X70417848Y-63232400D01*
X70292970Y-63220101D01*
X70132745Y-63171497D01*
X69985080Y-63092569D01*
X69855651Y-62986349D01*
X69749431Y-62856920D01*
X69670503Y-62709255D01*
X69621899Y-62549030D01*
X69605488Y-62382400D01*
X69621899Y-62215770D01*
X69670503Y-62055545D01*
X69749431Y-61907880D01*
X69855651Y-61778451D01*
X69985080Y-61672231D01*
X70132745Y-61593303D01*
X70292970Y-61544699D01*
X70417848Y-61532400D01*
X70501352Y-61532400D01*
X70626230Y-61544699D01*
X70626230Y-61544699D01*
G37*
G36*
X41568630Y-61544699D02*
X41728855Y-61593303D01*
X41876520Y-61672231D01*
X42005949Y-61778451D01*
X42112169Y-61907880D01*
X42191097Y-62055545D01*
X42239701Y-62215770D01*
X42256112Y-62382400D01*
X42239701Y-62549030D01*
X42191097Y-62709255D01*
X42112169Y-62856920D01*
X42005949Y-62986349D01*
X41876520Y-63092569D01*
X41728855Y-63171497D01*
X41568630Y-63220101D01*
X41443752Y-63232400D01*
X41360248Y-63232400D01*
X41235370Y-63220101D01*
X41075145Y-63171497D01*
X40927480Y-63092569D01*
X40798051Y-62986349D01*
X40691831Y-62856920D01*
X40612903Y-62709255D01*
X40564299Y-62549030D01*
X40547888Y-62382400D01*
X40564299Y-62215770D01*
X40612903Y-62055545D01*
X40691831Y-61907880D01*
X40798051Y-61778451D01*
X40927480Y-61672231D01*
X41075145Y-61593303D01*
X41235370Y-61544699D01*
X41360248Y-61532400D01*
X41443752Y-61532400D01*
X41568630Y-61544699D01*
X41568630Y-61544699D01*
G37*
G36*
X68769600Y-63232400D02*
X67069600Y-63232400D01*
X67069600Y-61532400D01*
X68769600Y-61532400D01*
X68769600Y-63232400D01*
X68769600Y-63232400D01*
G37*
G36*
X22264630Y-61544699D02*
X22424855Y-61593303D01*
X22572520Y-61672231D01*
X22701949Y-61778451D01*
X22808169Y-61907880D01*
X22887097Y-62055545D01*
X22935701Y-62215770D01*
X22952112Y-62382400D01*
X22935701Y-62549030D01*
X22887097Y-62709255D01*
X22808169Y-62856920D01*
X22701949Y-62986349D01*
X22572520Y-63092569D01*
X22424855Y-63171497D01*
X22264630Y-63220101D01*
X22139752Y-63232400D01*
X22056248Y-63232400D01*
X21931370Y-63220101D01*
X21771145Y-63171497D01*
X21623480Y-63092569D01*
X21494051Y-62986349D01*
X21387831Y-62856920D01*
X21308903Y-62709255D01*
X21260299Y-62549030D01*
X21243888Y-62382400D01*
X21260299Y-62215770D01*
X21308903Y-62055545D01*
X21387831Y-61907880D01*
X21494051Y-61778451D01*
X21623480Y-61672231D01*
X21771145Y-61593303D01*
X21931370Y-61544699D01*
X22056248Y-61532400D01*
X22139752Y-61532400D01*
X22264630Y-61544699D01*
X22264630Y-61544699D01*
G37*
G36*
X46424645Y-60987215D02*
X46515639Y-61024906D01*
X46596440Y-61078896D01*
X46597534Y-61079627D01*
X46667173Y-61149266D01*
X46667175Y-61149269D01*
X46721894Y-61231161D01*
X46759585Y-61322155D01*
X46778800Y-61418754D01*
X46778800Y-61517246D01*
X46763671Y-61593303D01*
X46759585Y-61613845D01*
X46721895Y-61704837D01*
X46667173Y-61786734D01*
X46597534Y-61856373D01*
X46597531Y-61856375D01*
X46515639Y-61911094D01*
X46424645Y-61948785D01*
X46328046Y-61968000D01*
X46229554Y-61968000D01*
X46132955Y-61948785D01*
X46041961Y-61911094D01*
X45960069Y-61856375D01*
X45960066Y-61856373D01*
X45890427Y-61786734D01*
X45835705Y-61704837D01*
X45798015Y-61613845D01*
X45793929Y-61593303D01*
X45778800Y-61517246D01*
X45778800Y-61418754D01*
X45798015Y-61322155D01*
X45835706Y-61231161D01*
X45890425Y-61149269D01*
X45890427Y-61149266D01*
X45960066Y-61079627D01*
X45961160Y-61078896D01*
X46041961Y-61024906D01*
X46132955Y-60987215D01*
X46229554Y-60968000D01*
X46328046Y-60968000D01*
X46424645Y-60987215D01*
X46424645Y-60987215D01*
G37*
G36*
X41918853Y-59231194D02*
X42082951Y-59299166D01*
X42230640Y-59397849D01*
X42356231Y-59523440D01*
X42454914Y-59671129D01*
X42522886Y-59835227D01*
X42557537Y-60009432D01*
X42557537Y-60187054D01*
X42522886Y-60361259D01*
X42454914Y-60525357D01*
X42356231Y-60673046D01*
X42230640Y-60798637D01*
X42082951Y-60897320D01*
X41918853Y-60965292D01*
X41744648Y-60999943D01*
X41567026Y-60999943D01*
X41392821Y-60965292D01*
X41228723Y-60897320D01*
X41081034Y-60798637D01*
X40955443Y-60673046D01*
X40856760Y-60525357D01*
X40788788Y-60361259D01*
X40754137Y-60187054D01*
X40754137Y-60009432D01*
X40788788Y-59835227D01*
X40856760Y-59671129D01*
X40955443Y-59523440D01*
X41081034Y-59397849D01*
X41228723Y-59299166D01*
X41392821Y-59231194D01*
X41567026Y-59196543D01*
X41744648Y-59196543D01*
X41918853Y-59231194D01*
X41918853Y-59231194D01*
G37*
G36*
X22106853Y-59231194D02*
X22270951Y-59299166D01*
X22418640Y-59397849D01*
X22544231Y-59523440D01*
X22642914Y-59671129D01*
X22710886Y-59835227D01*
X22745537Y-60009432D01*
X22745537Y-60187054D01*
X22710886Y-60361259D01*
X22642914Y-60525357D01*
X22544231Y-60673046D01*
X22418640Y-60798637D01*
X22270951Y-60897320D01*
X22106853Y-60965292D01*
X21932648Y-60999943D01*
X21755026Y-60999943D01*
X21580821Y-60965292D01*
X21416723Y-60897320D01*
X21269034Y-60798637D01*
X21143443Y-60673046D01*
X21044760Y-60525357D01*
X20976788Y-60361259D01*
X20942137Y-60187054D01*
X20942137Y-60009432D01*
X20976788Y-59835227D01*
X21044760Y-59671129D01*
X21143443Y-59523440D01*
X21269034Y-59397849D01*
X21416723Y-59299166D01*
X21580821Y-59231194D01*
X21755026Y-59196543D01*
X21932648Y-59196543D01*
X22106853Y-59231194D01*
X22106853Y-59231194D01*
G37*
G36*
X24646853Y-59231194D02*
X24810951Y-59299166D01*
X24958640Y-59397849D01*
X25084231Y-59523440D01*
X25182914Y-59671129D01*
X25250886Y-59835227D01*
X25285537Y-60009432D01*
X25285537Y-60187054D01*
X25250886Y-60361259D01*
X25182914Y-60525357D01*
X25084231Y-60673046D01*
X24958640Y-60798637D01*
X24810951Y-60897320D01*
X24646853Y-60965292D01*
X24472648Y-60999943D01*
X24295026Y-60999943D01*
X24120821Y-60965292D01*
X23956723Y-60897320D01*
X23809034Y-60798637D01*
X23683443Y-60673046D01*
X23584760Y-60525357D01*
X23516788Y-60361259D01*
X23482137Y-60187054D01*
X23482137Y-60009432D01*
X23516788Y-59835227D01*
X23584760Y-59671129D01*
X23683443Y-59523440D01*
X23809034Y-59397849D01*
X23956723Y-59299166D01*
X24120821Y-59231194D01*
X24295026Y-59196543D01*
X24472648Y-59196543D01*
X24646853Y-59231194D01*
X24646853Y-59231194D01*
G37*
G36*
X27186853Y-59231194D02*
X27350951Y-59299166D01*
X27498640Y-59397849D01*
X27624231Y-59523440D01*
X27722914Y-59671129D01*
X27790886Y-59835227D01*
X27825537Y-60009432D01*
X27825537Y-60187054D01*
X27790886Y-60361259D01*
X27722914Y-60525357D01*
X27624231Y-60673046D01*
X27498640Y-60798637D01*
X27350951Y-60897320D01*
X27186853Y-60965292D01*
X27012648Y-60999943D01*
X26835026Y-60999943D01*
X26660821Y-60965292D01*
X26496723Y-60897320D01*
X26349034Y-60798637D01*
X26223443Y-60673046D01*
X26124760Y-60525357D01*
X26056788Y-60361259D01*
X26022137Y-60187054D01*
X26022137Y-60009432D01*
X26056788Y-59835227D01*
X26124760Y-59671129D01*
X26223443Y-59523440D01*
X26349034Y-59397849D01*
X26496723Y-59299166D01*
X26660821Y-59231194D01*
X26835026Y-59196543D01*
X27012648Y-59196543D01*
X27186853Y-59231194D01*
X27186853Y-59231194D01*
G37*
G36*
X36838853Y-59231194D02*
X37002951Y-59299166D01*
X37150640Y-59397849D01*
X37276231Y-59523440D01*
X37374914Y-59671129D01*
X37442886Y-59835227D01*
X37477537Y-60009432D01*
X37477537Y-60187054D01*
X37442886Y-60361259D01*
X37374914Y-60525357D01*
X37276231Y-60673046D01*
X37150640Y-60798637D01*
X37002951Y-60897320D01*
X36838853Y-60965292D01*
X36664648Y-60999943D01*
X36487026Y-60999943D01*
X36312821Y-60965292D01*
X36148723Y-60897320D01*
X36001034Y-60798637D01*
X35875443Y-60673046D01*
X35776760Y-60525357D01*
X35708788Y-60361259D01*
X35674137Y-60187054D01*
X35674137Y-60009432D01*
X35708788Y-59835227D01*
X35776760Y-59671129D01*
X35875443Y-59523440D01*
X36001034Y-59397849D01*
X36148723Y-59299166D01*
X36312821Y-59231194D01*
X36487026Y-59196543D01*
X36664648Y-59196543D01*
X36838853Y-59231194D01*
X36838853Y-59231194D01*
G37*
G36*
X39378853Y-59231194D02*
X39542951Y-59299166D01*
X39690640Y-59397849D01*
X39816231Y-59523440D01*
X39914914Y-59671129D01*
X39982886Y-59835227D01*
X40017537Y-60009432D01*
X40017537Y-60187054D01*
X39982886Y-60361259D01*
X39914914Y-60525357D01*
X39816231Y-60673046D01*
X39690640Y-60798637D01*
X39542951Y-60897320D01*
X39378853Y-60965292D01*
X39204648Y-60999943D01*
X39027026Y-60999943D01*
X38852821Y-60965292D01*
X38688723Y-60897320D01*
X38541034Y-60798637D01*
X38415443Y-60673046D01*
X38316760Y-60525357D01*
X38248788Y-60361259D01*
X38214137Y-60187054D01*
X38214137Y-60009432D01*
X38248788Y-59835227D01*
X38316760Y-59671129D01*
X38415443Y-59523440D01*
X38541034Y-59397849D01*
X38688723Y-59299166D01*
X38852821Y-59231194D01*
X39027026Y-59196543D01*
X39204648Y-59196543D01*
X39378853Y-59231194D01*
X39378853Y-59231194D01*
G37*
G36*
X65038230Y-56088299D02*
X65198455Y-56136903D01*
X65346120Y-56215831D01*
X65475549Y-56322051D01*
X65581769Y-56451480D01*
X65660697Y-56599145D01*
X65709301Y-56759370D01*
X65725712Y-56926000D01*
X65709301Y-57092630D01*
X65660697Y-57252855D01*
X65581769Y-57400520D01*
X65475549Y-57529949D01*
X65346120Y-57636169D01*
X65198455Y-57715097D01*
X65038230Y-57763701D01*
X64913352Y-57776000D01*
X64829848Y-57776000D01*
X64704970Y-57763701D01*
X64544745Y-57715097D01*
X64397080Y-57636169D01*
X64267651Y-57529949D01*
X64161431Y-57400520D01*
X64082503Y-57252855D01*
X64033899Y-57092630D01*
X64017488Y-56926000D01*
X64033899Y-56759370D01*
X64082503Y-56599145D01*
X64161431Y-56451480D01*
X64267651Y-56322051D01*
X64397080Y-56215831D01*
X64544745Y-56136903D01*
X64704970Y-56088299D01*
X64829848Y-56076000D01*
X64913352Y-56076000D01*
X65038230Y-56088299D01*
X65038230Y-56088299D01*
G37*
G36*
X32600000Y-57746000D02*
X30900000Y-57746000D01*
X30900000Y-56046000D01*
X32600000Y-56046000D01*
X32600000Y-57746000D01*
X32600000Y-57746000D01*
G37*
G36*
X61556000Y-57746000D02*
X59856000Y-57746000D01*
X59856000Y-56046000D01*
X61556000Y-56046000D01*
X61556000Y-57746000D01*
X61556000Y-57746000D01*
G37*
G36*
X65038230Y-53548299D02*
X65198455Y-53596903D01*
X65346120Y-53675831D01*
X65475549Y-53782051D01*
X65581769Y-53911480D01*
X65660697Y-54059145D01*
X65709301Y-54219370D01*
X65725712Y-54386000D01*
X65709301Y-54552630D01*
X65660697Y-54712855D01*
X65581769Y-54860520D01*
X65475549Y-54989949D01*
X65346120Y-55096169D01*
X65198455Y-55175097D01*
X65038230Y-55223701D01*
X64913352Y-55236000D01*
X64829848Y-55236000D01*
X64704970Y-55223701D01*
X64544745Y-55175097D01*
X64397080Y-55096169D01*
X64267651Y-54989949D01*
X64161431Y-54860520D01*
X64082503Y-54712855D01*
X64033899Y-54552630D01*
X64017488Y-54386000D01*
X64033899Y-54219370D01*
X64082503Y-54059145D01*
X64161431Y-53911480D01*
X64267651Y-53782051D01*
X64397080Y-53675831D01*
X64544745Y-53596903D01*
X64704970Y-53548299D01*
X64829848Y-53536000D01*
X64913352Y-53536000D01*
X65038230Y-53548299D01*
X65038230Y-53548299D01*
G37*
G36*
X60872630Y-53518299D02*
X61032855Y-53566903D01*
X61180520Y-53645831D01*
X61309949Y-53752051D01*
X61416169Y-53881480D01*
X61495097Y-54029145D01*
X61543701Y-54189370D01*
X61560112Y-54356000D01*
X61543701Y-54522630D01*
X61495097Y-54682855D01*
X61416169Y-54830520D01*
X61309949Y-54959949D01*
X61180520Y-55066169D01*
X61032855Y-55145097D01*
X60872630Y-55193701D01*
X60747752Y-55206000D01*
X60664248Y-55206000D01*
X60539370Y-55193701D01*
X60379145Y-55145097D01*
X60231480Y-55066169D01*
X60102051Y-54959949D01*
X59995831Y-54830520D01*
X59916903Y-54682855D01*
X59868299Y-54522630D01*
X59851888Y-54356000D01*
X59868299Y-54189370D01*
X59916903Y-54029145D01*
X59995831Y-53881480D01*
X60102051Y-53752051D01*
X60231480Y-53645831D01*
X60379145Y-53566903D01*
X60539370Y-53518299D01*
X60664248Y-53506000D01*
X60747752Y-53506000D01*
X60872630Y-53518299D01*
X60872630Y-53518299D01*
G37*
G36*
X31916630Y-53518299D02*
X32076855Y-53566903D01*
X32224520Y-53645831D01*
X32353949Y-53752051D01*
X32460169Y-53881480D01*
X32539097Y-54029145D01*
X32587701Y-54189370D01*
X32604112Y-54356000D01*
X32587701Y-54522630D01*
X32539097Y-54682855D01*
X32460169Y-54830520D01*
X32353949Y-54959949D01*
X32224520Y-55066169D01*
X32076855Y-55145097D01*
X31916630Y-55193701D01*
X31791752Y-55206000D01*
X31708248Y-55206000D01*
X31583370Y-55193701D01*
X31423145Y-55145097D01*
X31275480Y-55066169D01*
X31146051Y-54959949D01*
X31039831Y-54830520D01*
X30960903Y-54682855D01*
X30912299Y-54522630D01*
X30895888Y-54356000D01*
X30912299Y-54189370D01*
X30960903Y-54029145D01*
X31039831Y-53881480D01*
X31146051Y-53752051D01*
X31275480Y-53645831D01*
X31423145Y-53566903D01*
X31583370Y-53518299D01*
X31708248Y-53506000D01*
X31791752Y-53506000D01*
X31916630Y-53518299D01*
X31916630Y-53518299D01*
G37*
G36*
X29167002Y-51805588D02*
X29167004Y-51805589D01*
X29167005Y-51805589D01*
X29192139Y-51816000D01*
X29409687Y-51906111D01*
X29628097Y-52052048D01*
X29813832Y-52237783D01*
X29959769Y-52456193D01*
X30060292Y-52698878D01*
X30111537Y-52956503D01*
X30111537Y-53219183D01*
X30060292Y-53476808D01*
X29959769Y-53719493D01*
X29813832Y-53937903D01*
X29628097Y-54123638D01*
X29409687Y-54269575D01*
X29256650Y-54332965D01*
X29167005Y-54370097D01*
X29167004Y-54370097D01*
X29167002Y-54370098D01*
X28909377Y-54421343D01*
X28646697Y-54421343D01*
X28389072Y-54370098D01*
X28389070Y-54370097D01*
X28389069Y-54370097D01*
X28299424Y-54332965D01*
X28146387Y-54269575D01*
X27927977Y-54123638D01*
X27742242Y-53937903D01*
X27596305Y-53719493D01*
X27495782Y-53476808D01*
X27444537Y-53219183D01*
X27444537Y-52956503D01*
X27495782Y-52698878D01*
X27596305Y-52456193D01*
X27742242Y-52237783D01*
X27927977Y-52052048D01*
X28146387Y-51906111D01*
X28363935Y-51816000D01*
X28389069Y-51805589D01*
X28389070Y-51805589D01*
X28389072Y-51805588D01*
X28646697Y-51754343D01*
X28909377Y-51754343D01*
X29167002Y-51805588D01*
X29167002Y-51805588D01*
G37*
G36*
X35110602Y-51805588D02*
X35110604Y-51805589D01*
X35110605Y-51805589D01*
X35135739Y-51816000D01*
X35353287Y-51906111D01*
X35571697Y-52052048D01*
X35757432Y-52237783D01*
X35903369Y-52456193D01*
X36003892Y-52698878D01*
X36055137Y-52956503D01*
X36055137Y-53219183D01*
X36003892Y-53476808D01*
X35903369Y-53719493D01*
X35757432Y-53937903D01*
X35571697Y-54123638D01*
X35353287Y-54269575D01*
X35200250Y-54332965D01*
X35110605Y-54370097D01*
X35110604Y-54370097D01*
X35110602Y-54370098D01*
X34852977Y-54421343D01*
X34590297Y-54421343D01*
X34332672Y-54370098D01*
X34332670Y-54370097D01*
X34332669Y-54370097D01*
X34243024Y-54332965D01*
X34089987Y-54269575D01*
X33871577Y-54123638D01*
X33685842Y-53937903D01*
X33539905Y-53719493D01*
X33439382Y-53476808D01*
X33388137Y-53219183D01*
X33388137Y-52956503D01*
X33439382Y-52698878D01*
X33539905Y-52456193D01*
X33685842Y-52237783D01*
X33871577Y-52052048D01*
X34089987Y-51906111D01*
X34307535Y-51816000D01*
X34332669Y-51805589D01*
X34332670Y-51805589D01*
X34332672Y-51805588D01*
X34590297Y-51754343D01*
X34852977Y-51754343D01*
X35110602Y-51805588D01*
X35110602Y-51805588D01*
G37*
G36*
X43899002Y-51805588D02*
X43899004Y-51805589D01*
X43899005Y-51805589D01*
X43924139Y-51816000D01*
X44141687Y-51906111D01*
X44360097Y-52052048D01*
X44545832Y-52237783D01*
X44691769Y-52456193D01*
X44792292Y-52698878D01*
X44843537Y-52956503D01*
X44843537Y-53219183D01*
X44792292Y-53476808D01*
X44691769Y-53719493D01*
X44545832Y-53937903D01*
X44360097Y-54123638D01*
X44141687Y-54269575D01*
X43988650Y-54332965D01*
X43899005Y-54370097D01*
X43899004Y-54370097D01*
X43899002Y-54370098D01*
X43641377Y-54421343D01*
X43378697Y-54421343D01*
X43121072Y-54370098D01*
X43121070Y-54370097D01*
X43121069Y-54370097D01*
X43031424Y-54332965D01*
X42878387Y-54269575D01*
X42659977Y-54123638D01*
X42474242Y-53937903D01*
X42328305Y-53719493D01*
X42227782Y-53476808D01*
X42176537Y-53219183D01*
X42176537Y-52956503D01*
X42227782Y-52698878D01*
X42328305Y-52456193D01*
X42474242Y-52237783D01*
X42659977Y-52052048D01*
X42878387Y-51906111D01*
X43095935Y-51816000D01*
X43121069Y-51805589D01*
X43121070Y-51805589D01*
X43121072Y-51805588D01*
X43378697Y-51754343D01*
X43641377Y-51754343D01*
X43899002Y-51805588D01*
X43899002Y-51805588D01*
G37*
G36*
X20378602Y-51805588D02*
X20378604Y-51805589D01*
X20378605Y-51805589D01*
X20403739Y-51816000D01*
X20621287Y-51906111D01*
X20839697Y-52052048D01*
X21025432Y-52237783D01*
X21171369Y-52456193D01*
X21271892Y-52698878D01*
X21323137Y-52956503D01*
X21323137Y-53219183D01*
X21271892Y-53476808D01*
X21171369Y-53719493D01*
X21025432Y-53937903D01*
X20839697Y-54123638D01*
X20621287Y-54269575D01*
X20468250Y-54332965D01*
X20378605Y-54370097D01*
X20378604Y-54370097D01*
X20378602Y-54370098D01*
X20120977Y-54421343D01*
X19858297Y-54421343D01*
X19600672Y-54370098D01*
X19600670Y-54370097D01*
X19600669Y-54370097D01*
X19511024Y-54332965D01*
X19357987Y-54269575D01*
X19139577Y-54123638D01*
X18953842Y-53937903D01*
X18807905Y-53719493D01*
X18707382Y-53476808D01*
X18656137Y-53219183D01*
X18656137Y-52956503D01*
X18707382Y-52698878D01*
X18807905Y-52456193D01*
X18953842Y-52237783D01*
X19139577Y-52052048D01*
X19357987Y-51906111D01*
X19575535Y-51816000D01*
X19600669Y-51805589D01*
X19600670Y-51805589D01*
X19600672Y-51805588D01*
X19858297Y-51754343D01*
X20120977Y-51754343D01*
X20378602Y-51805588D01*
X20378602Y-51805588D01*
G37*
G36*
X65721600Y-52696000D02*
X64021600Y-52696000D01*
X64021600Y-50996000D01*
X65721600Y-50996000D01*
X65721600Y-52696000D01*
X65721600Y-52696000D01*
G37*
G36*
X31916630Y-50978299D02*
X32076855Y-51026903D01*
X32224520Y-51105831D01*
X32353949Y-51212051D01*
X32460169Y-51341480D01*
X32539097Y-51489145D01*
X32587701Y-51649370D01*
X32604112Y-51816000D01*
X32587701Y-51982630D01*
X32539097Y-52142855D01*
X32460169Y-52290520D01*
X32353949Y-52419949D01*
X32224520Y-52526169D01*
X32076855Y-52605097D01*
X31916630Y-52653701D01*
X31791752Y-52666000D01*
X31708248Y-52666000D01*
X31583370Y-52653701D01*
X31423145Y-52605097D01*
X31275480Y-52526169D01*
X31146051Y-52419949D01*
X31039831Y-52290520D01*
X30960903Y-52142855D01*
X30912299Y-51982630D01*
X30895888Y-51816000D01*
X30912299Y-51649370D01*
X30960903Y-51489145D01*
X31039831Y-51341480D01*
X31146051Y-51212051D01*
X31275480Y-51105831D01*
X31423145Y-51026903D01*
X31583370Y-50978299D01*
X31708248Y-50966000D01*
X31791752Y-50966000D01*
X31916630Y-50978299D01*
X31916630Y-50978299D01*
G37*
G36*
X60872630Y-50978299D02*
X61032855Y-51026903D01*
X61180520Y-51105831D01*
X61309949Y-51212051D01*
X61416169Y-51341480D01*
X61495097Y-51489145D01*
X61543701Y-51649370D01*
X61560112Y-51816000D01*
X61543701Y-51982630D01*
X61495097Y-52142855D01*
X61416169Y-52290520D01*
X61309949Y-52419949D01*
X61180520Y-52526169D01*
X61032855Y-52605097D01*
X60872630Y-52653701D01*
X60747752Y-52666000D01*
X60664248Y-52666000D01*
X60539370Y-52653701D01*
X60379145Y-52605097D01*
X60231480Y-52526169D01*
X60102051Y-52419949D01*
X59995831Y-52290520D01*
X59916903Y-52142855D01*
X59868299Y-51982630D01*
X59851888Y-51816000D01*
X59868299Y-51649370D01*
X59916903Y-51489145D01*
X59995831Y-51341480D01*
X60102051Y-51212051D01*
X60231480Y-51105831D01*
X60379145Y-51026903D01*
X60539370Y-50978299D01*
X60664248Y-50966000D01*
X60747752Y-50966000D01*
X60872630Y-50978299D01*
X60872630Y-50978299D01*
G37*
M02*
