G04 #@! TF.GenerationSoftware,KiCad,Pcbnew,(5.0.1)-4*
G04 #@! TF.CreationDate,2019-03-05T01:58:22+01:00*
G04 #@! TF.ProjectId,1U Headphone,3155204865616470686F6E652E6B6963,rev?*
G04 #@! TF.SameCoordinates,Original*
G04 #@! TF.FileFunction,Copper,L2,Bot,Signal*
G04 #@! TF.FilePolarity,Positive*
%FSLAX46Y46*%
G04 Gerber Fmt 4.6, Leading zero omitted, Abs format (unit mm)*
G04 Created by KiCad (PCBNEW (5.0.1)-4) date 3/5/2019 1:58:22 AM*
%MOMM*%
%LPD*%
G01*
G04 APERTURE LIST*
G04 #@! TA.AperFunction,ComponentPad*
%ADD10C,1.930400*%
G04 #@! TD*
G04 #@! TA.AperFunction,WasherPad*
%ADD11C,2.800000*%
G04 #@! TD*
G04 #@! TA.AperFunction,ComponentPad*
%ADD12C,2.667000*%
G04 #@! TD*
G04 #@! TA.AperFunction,ComponentPad*
%ADD13C,1.803400*%
G04 #@! TD*
G04 #@! TA.AperFunction,WasherPad*
%ADD14C,3.200000*%
G04 #@! TD*
G04 #@! TA.AperFunction,ComponentPad*
%ADD15R,1.700000X1.700000*%
G04 #@! TD*
G04 #@! TA.AperFunction,ComponentPad*
%ADD16O,1.700000X1.700000*%
G04 #@! TD*
G04 #@! TA.AperFunction,ComponentPad*
%ADD17R,1.800000X1.800000*%
G04 #@! TD*
G04 #@! TA.AperFunction,ComponentPad*
%ADD18C,1.800000*%
G04 #@! TD*
G04 #@! TA.AperFunction,ViaPad*
%ADD19C,0.800000*%
G04 #@! TD*
G04 #@! TA.AperFunction,Conductor*
%ADD20C,0.250000*%
G04 #@! TD*
G04 #@! TA.AperFunction,Conductor*
%ADD21C,0.127000*%
G04 #@! TD*
G04 APERTURE END LIST*
D10*
G04 #@! TO.P,J1,T*
G04 #@! TO.N,Net-(J1-PadT)*
X32258000Y-75615800D03*
G04 #@! TO.P,J1,S*
G04 #@! TO.N,GND*
X32258000Y-64643000D03*
G04 #@! TO.P,J1,TN*
G04 #@! TO.N,Net-(J1-PadTN)*
X32258000Y-67056000D03*
D11*
G04 #@! TO.P,J1,*
G04 #@! TO.N,*
X32258000Y-70408800D03*
G04 #@! TD*
D10*
G04 #@! TO.P,J2,T*
G04 #@! TO.N,Net-(J2-PadT)*
X41656000Y-75615800D03*
G04 #@! TO.P,J2,S*
G04 #@! TO.N,GND*
X41656000Y-64643000D03*
G04 #@! TO.P,J2,TN*
G04 #@! TO.N,Net-(J1-PadT)*
X41656000Y-67056000D03*
D11*
G04 #@! TO.P,J2,*
G04 #@! TO.N,*
X41656000Y-70408800D03*
G04 #@! TD*
D12*
G04 #@! TO.P,RV1,5*
G04 #@! TO.N,N/C*
X19989637Y-53087843D03*
G04 #@! TO.P,RV1,4*
X28778037Y-53087843D03*
D13*
G04 #@! TO.P,RV1,1*
G04 #@! TO.N,GND*
X26923837Y-60098243D03*
G04 #@! TO.P,RV1,2*
G04 #@! TO.N,POT_R_C*
X24383837Y-60098243D03*
G04 #@! TO.P,RV1,3*
G04 #@! TO.N,Net-(C3-Pad2)*
X21843837Y-60098243D03*
G04 #@! TD*
D12*
G04 #@! TO.P,RV2,5*
G04 #@! TO.N,N/C*
X34721637Y-53087843D03*
G04 #@! TO.P,RV2,4*
X43510037Y-53087843D03*
D13*
G04 #@! TO.P,RV2,1*
G04 #@! TO.N,GND*
X41655837Y-60098243D03*
G04 #@! TO.P,RV2,2*
G04 #@! TO.N,POT_L_C*
X39115837Y-60098243D03*
G04 #@! TO.P,RV2,3*
G04 #@! TO.N,Net-(C4-Pad2)*
X36575837Y-60098243D03*
G04 #@! TD*
D10*
G04 #@! TO.P,J3,T*
G04 #@! TO.N,OUT_R_C*
X22352000Y-75615800D03*
G04 #@! TO.P,J3,S*
G04 #@! TO.N,GND*
X22352000Y-64643000D03*
G04 #@! TO.P,J3,R*
G04 #@! TO.N,OUT_L_C*
X22352000Y-67056000D03*
D14*
G04 #@! TO.P,J3,*
G04 #@! TO.N,*
X22352000Y-70408800D03*
G04 #@! TD*
D15*
G04 #@! TO.P,J6,1*
G04 #@! TO.N,-12V*
X60706000Y-56896000D03*
D16*
G04 #@! TO.P,J6,2*
G04 #@! TO.N,+12V*
X60706000Y-54356000D03*
G04 #@! TO.P,J6,3*
G04 #@! TO.N,GND*
X60706000Y-51816000D03*
G04 #@! TD*
D17*
G04 #@! TO.P,D3,1*
G04 #@! TO.N,Net-(D3-Pad1)*
X33782000Y-62382400D03*
D18*
G04 #@! TO.P,D3,2*
G04 #@! TO.N,+12V*
X36322000Y-62382400D03*
G04 #@! TD*
G04 #@! TO.P,D4,2*
G04 #@! TO.N,+12V*
X30480000Y-62382400D03*
D17*
G04 #@! TO.P,D4,1*
G04 #@! TO.N,Net-(D4-Pad1)*
X27940000Y-62382400D03*
G04 #@! TD*
D16*
G04 #@! TO.P,J4,3*
G04 #@! TO.N,Net-(D1-Pad1)*
X64871600Y-56926000D03*
G04 #@! TO.P,J4,2*
G04 #@! TO.N,Net-(D2-Pad2)*
X64871600Y-54386000D03*
D15*
G04 #@! TO.P,J4,1*
G04 #@! TO.N,GND*
X64871600Y-51846000D03*
G04 #@! TD*
G04 #@! TO.P,J5,1*
G04 #@! TO.N,-12V*
X31750000Y-56896000D03*
D16*
G04 #@! TO.P,J5,2*
G04 #@! TO.N,+12V*
X31750000Y-54356000D03*
G04 #@! TO.P,J5,3*
G04 #@! TO.N,GND*
X31750000Y-51816000D03*
G04 #@! TD*
G04 #@! TO.P,J7,3*
G04 #@! TO.N,OUT_L_C*
X19558000Y-62382400D03*
G04 #@! TO.P,J7,2*
G04 #@! TO.N,OUT_R_C*
X22098000Y-62382400D03*
D15*
G04 #@! TO.P,J7,1*
G04 #@! TO.N,POT_R_C*
X24638000Y-62382400D03*
G04 #@! TD*
D16*
G04 #@! TO.P,J8,3*
G04 #@! TO.N,OUT_L_M*
X48615600Y-62382400D03*
G04 #@! TO.P,J8,2*
G04 #@! TO.N,OUT_R_M*
X51155600Y-62382400D03*
D15*
G04 #@! TO.P,J8,1*
G04 #@! TO.N,POT_R_M*
X53695600Y-62382400D03*
G04 #@! TD*
G04 #@! TO.P,J9,1*
G04 #@! TO.N,POT_L_C*
X38862000Y-62382400D03*
D16*
G04 #@! TO.P,J9,2*
G04 #@! TO.N,GND*
X41402000Y-62382400D03*
G04 #@! TO.P,J9,3*
X43942000Y-62382400D03*
G04 #@! TD*
D15*
G04 #@! TO.P,J10,1*
G04 #@! TO.N,POT_L_M*
X67919600Y-62382400D03*
D16*
G04 #@! TO.P,J10,2*
G04 #@! TO.N,GND*
X70459600Y-62382400D03*
G04 #@! TO.P,J10,3*
X72999600Y-62382400D03*
G04 #@! TD*
D19*
G04 #@! TO.N,Net-(C1-Pad2)*
X38531800Y-55503800D03*
X40386000Y-58623801D03*
G04 #@! TO.N,Net-(C1-Pad1)*
X34798000Y-57759600D03*
X27381200Y-57454800D03*
G04 #@! TO.N,Net-(C2-Pad1)*
X39019053Y-53268453D03*
X37594247Y-52642647D03*
G04 #@! TO.N,Net-(C2-Pad2)*
X40447482Y-52749835D03*
X38327190Y-51904179D03*
G04 #@! TO.N,Net-(C4-Pad2)*
X24358600Y-57683400D03*
G04 #@! TO.N,Net-(J1-PadT)*
X37566600Y-75438000D03*
X37668200Y-69189600D03*
G04 #@! TO.N,GND*
X49072800Y-70967600D03*
X58699400Y-56311800D03*
X44958000Y-54711600D03*
G04 #@! TO.N,Net-(R5-Pad1)*
X52247800Y-69443600D03*
X51739800Y-67284600D03*
G04 #@! TO.N,POT_L_M*
X67741800Y-67106800D03*
G04 #@! TO.N,Net-(Q1-Pad3)*
X34696400Y-71247000D03*
X34671000Y-68326000D03*
G04 #@! TO.N,OUT_L_M*
X72415400Y-71323200D03*
G04 #@! TO.N,OUT_R_M*
X58521600Y-66979800D03*
G04 #@! TD*
D20*
G04 #@! TO.N,Net-(C1-Pad2)*
X40386000Y-57358000D02*
X38531800Y-55503800D01*
X40386000Y-58623801D02*
X40386000Y-57358000D01*
G04 #@! TO.N,Net-(C1-Pad1)*
X28085999Y-58159599D02*
X27381200Y-57454800D01*
X34798000Y-57759600D02*
X34398001Y-58159599D01*
X34398001Y-58159599D02*
X28085999Y-58159599D01*
G04 #@! TO.N,Net-(C2-Pad1)*
X38393247Y-52642647D02*
X39019053Y-53268453D01*
X37594247Y-52642647D02*
X38393247Y-52642647D01*
G04 #@! TO.N,Net-(C2-Pad2)*
X40447482Y-52749835D02*
X39601826Y-51904179D01*
X39601826Y-51904179D02*
X38327190Y-51904179D01*
G04 #@! TO.N,Net-(C4-Pad2)*
X26324512Y-57683400D02*
X24358600Y-57683400D01*
X36575837Y-60098243D02*
X28739355Y-60098243D01*
X28739355Y-60098243D02*
X26324512Y-57683400D01*
G04 #@! TO.N,Net-(J1-PadT)*
X37566600Y-75438000D02*
X37566600Y-69291200D01*
X37566600Y-69291200D02*
X37668200Y-69189600D01*
G04 #@! TO.N,Net-(R5-Pad1)*
X52247800Y-69443600D02*
X52247800Y-67792600D01*
X52247800Y-67792600D02*
X51739800Y-67284600D01*
G04 #@! TO.N,POT_L_M*
X67919600Y-62382400D02*
X67919600Y-66929000D01*
X67919600Y-66929000D02*
X67741800Y-67106800D01*
G04 #@! TO.N,Net-(Q1-Pad3)*
X34696400Y-71247000D02*
X34696400Y-68351400D01*
X34696400Y-68351400D02*
X34671000Y-68326000D01*
G04 #@! TO.N,OUT_L_M*
X70885198Y-71323200D02*
X72415400Y-71323200D01*
X60769397Y-61207399D02*
X70885198Y-71323200D01*
X48615600Y-62382400D02*
X49790601Y-61207399D01*
X49790601Y-61207399D02*
X60769397Y-61207399D01*
G04 #@! TO.N,OUT_R_M*
X58166000Y-66624200D02*
X58521600Y-66979800D01*
X51155600Y-62382400D02*
X55397400Y-66624200D01*
X55397400Y-66624200D02*
X58166000Y-66624200D01*
G04 #@! TD*
D21*
G04 #@! TO.N,GND*
G36*
X45352501Y-60081792D02*
X45359561Y-60117285D01*
X45359561Y-60117295D01*
X45402097Y-60331139D01*
X45456970Y-60463615D01*
X45456972Y-60463617D01*
X45578105Y-60644905D01*
X45656500Y-60723299D01*
X45656500Y-60934180D01*
X45585757Y-61004923D01*
X45461300Y-61305389D01*
X45461300Y-61630611D01*
X45585757Y-61931077D01*
X45656500Y-62001820D01*
X45656500Y-62458180D01*
X45585757Y-62528923D01*
X45461300Y-62829389D01*
X45461300Y-63154611D01*
X45585757Y-63455077D01*
X45656500Y-63525820D01*
X45656500Y-63982180D01*
X45585757Y-64052923D01*
X45461300Y-64353389D01*
X45461300Y-64678611D01*
X45585757Y-64979077D01*
X45656500Y-65049820D01*
X45656500Y-65260701D01*
X45578105Y-65339095D01*
X45456972Y-65520383D01*
X45456970Y-65520385D01*
X45402097Y-65652861D01*
X45359561Y-65866705D01*
X45359561Y-65866715D01*
X45352501Y-65902208D01*
X45352500Y-76594500D01*
X42491312Y-76594500D01*
X42743421Y-76342391D01*
X42938700Y-75870945D01*
X42938700Y-75360655D01*
X42743421Y-74889209D01*
X42382591Y-74528379D01*
X41911145Y-74333100D01*
X41400855Y-74333100D01*
X40929409Y-74528379D01*
X40568579Y-74889209D01*
X40373300Y-75360655D01*
X40373300Y-75870945D01*
X40568579Y-76342391D01*
X40820688Y-76594500D01*
X33093312Y-76594500D01*
X33345421Y-76342391D01*
X33540700Y-75870945D01*
X33540700Y-75360655D01*
X33513621Y-75295280D01*
X36849100Y-75295280D01*
X36849100Y-75580720D01*
X36958333Y-75844431D01*
X37160169Y-76046267D01*
X37423880Y-76155500D01*
X37709320Y-76155500D01*
X37973031Y-76046267D01*
X38174867Y-75844431D01*
X38284100Y-75580720D01*
X38284100Y-75295280D01*
X38174867Y-75031569D01*
X38009100Y-74865802D01*
X38009100Y-70067168D01*
X39938500Y-70067168D01*
X39938500Y-70750432D01*
X40199974Y-71381686D01*
X40683114Y-71864826D01*
X41314368Y-72126300D01*
X41997632Y-72126300D01*
X42628886Y-71864826D01*
X43112026Y-71381686D01*
X43373500Y-70750432D01*
X43373500Y-70067168D01*
X43112026Y-69435914D01*
X42628886Y-68952774D01*
X41997632Y-68691300D01*
X41314368Y-68691300D01*
X40683114Y-68952774D01*
X40199974Y-69435914D01*
X39938500Y-70067168D01*
X38009100Y-70067168D01*
X38009100Y-69825011D01*
X38074631Y-69797867D01*
X38276467Y-69596031D01*
X38385700Y-69332320D01*
X38385700Y-69046880D01*
X38276467Y-68783169D01*
X38074631Y-68581333D01*
X37810920Y-68472100D01*
X37525480Y-68472100D01*
X37261769Y-68581333D01*
X37059933Y-68783169D01*
X36950700Y-69046880D01*
X36950700Y-69332320D01*
X37059933Y-69596031D01*
X37124101Y-69660199D01*
X37124100Y-74865802D01*
X36958333Y-75031569D01*
X36849100Y-75295280D01*
X33513621Y-75295280D01*
X33345421Y-74889209D01*
X32984591Y-74528379D01*
X32513145Y-74333100D01*
X32002855Y-74333100D01*
X31531409Y-74528379D01*
X31170579Y-74889209D01*
X30975300Y-75360655D01*
X30975300Y-75870945D01*
X31170579Y-76342391D01*
X31422688Y-76594500D01*
X23187312Y-76594500D01*
X23439421Y-76342391D01*
X23634700Y-75870945D01*
X23634700Y-75360655D01*
X23439421Y-74889209D01*
X23078591Y-74528379D01*
X22607145Y-74333100D01*
X22096855Y-74333100D01*
X21625409Y-74528379D01*
X21264579Y-74889209D01*
X21069300Y-75360655D01*
X21069300Y-75870945D01*
X21264579Y-76342391D01*
X21516688Y-76594500D01*
X18147500Y-76594500D01*
X18147500Y-70027386D01*
X20434500Y-70027386D01*
X20434500Y-70790214D01*
X20726422Y-71494976D01*
X21265824Y-72034378D01*
X21970586Y-72326300D01*
X22733414Y-72326300D01*
X23438176Y-72034378D01*
X23977578Y-71494976D01*
X24269500Y-70790214D01*
X24269500Y-70067168D01*
X30540500Y-70067168D01*
X30540500Y-70750432D01*
X30801974Y-71381686D01*
X31285114Y-71864826D01*
X31916368Y-72126300D01*
X32599632Y-72126300D01*
X33230886Y-71864826D01*
X33714026Y-71381686D01*
X33975500Y-70750432D01*
X33975500Y-70067168D01*
X33714026Y-69435914D01*
X33230886Y-68952774D01*
X32599632Y-68691300D01*
X31916368Y-68691300D01*
X31285114Y-68952774D01*
X30801974Y-69435914D01*
X30540500Y-70067168D01*
X24269500Y-70067168D01*
X24269500Y-70027386D01*
X23977578Y-69322624D01*
X23438176Y-68783222D01*
X22733414Y-68491300D01*
X21970586Y-68491300D01*
X21265824Y-68783222D01*
X20726422Y-69322624D01*
X20434500Y-70027386D01*
X18147500Y-70027386D01*
X18147500Y-66800855D01*
X21069300Y-66800855D01*
X21069300Y-67311145D01*
X21264579Y-67782591D01*
X21625409Y-68143421D01*
X22096855Y-68338700D01*
X22607145Y-68338700D01*
X23078591Y-68143421D01*
X23439421Y-67782591D01*
X23634700Y-67311145D01*
X23634700Y-66800855D01*
X30975300Y-66800855D01*
X30975300Y-67311145D01*
X31170579Y-67782591D01*
X31531409Y-68143421D01*
X32002855Y-68338700D01*
X32513145Y-68338700D01*
X32888362Y-68183280D01*
X33953500Y-68183280D01*
X33953500Y-68468720D01*
X34062733Y-68732431D01*
X34253901Y-68923599D01*
X34253900Y-70674802D01*
X34088133Y-70840569D01*
X33978900Y-71104280D01*
X33978900Y-71389720D01*
X34088133Y-71653431D01*
X34289969Y-71855267D01*
X34553680Y-71964500D01*
X34839120Y-71964500D01*
X35102831Y-71855267D01*
X35304667Y-71653431D01*
X35413900Y-71389720D01*
X35413900Y-71104280D01*
X35304667Y-70840569D01*
X35138900Y-70674802D01*
X35138900Y-68872798D01*
X35279267Y-68732431D01*
X35388500Y-68468720D01*
X35388500Y-68183280D01*
X35279267Y-67919569D01*
X35077431Y-67717733D01*
X34813720Y-67608500D01*
X34528280Y-67608500D01*
X34264569Y-67717733D01*
X34062733Y-67919569D01*
X33953500Y-68183280D01*
X32888362Y-68183280D01*
X32984591Y-68143421D01*
X33345421Y-67782591D01*
X33540700Y-67311145D01*
X33540700Y-66800855D01*
X40373300Y-66800855D01*
X40373300Y-67311145D01*
X40568579Y-67782591D01*
X40929409Y-68143421D01*
X41400855Y-68338700D01*
X41911145Y-68338700D01*
X42382591Y-68143421D01*
X42743421Y-67782591D01*
X42938700Y-67311145D01*
X42938700Y-66800855D01*
X42743421Y-66329409D01*
X42382591Y-65968579D01*
X42121111Y-65860271D01*
X42262406Y-65801744D01*
X42379437Y-65635844D01*
X41656000Y-64912408D01*
X40932563Y-65635844D01*
X41049594Y-65801744D01*
X41214912Y-65850320D01*
X40929409Y-65968579D01*
X40568579Y-66329409D01*
X40373300Y-66800855D01*
X33540700Y-66800855D01*
X33345421Y-66329409D01*
X32984591Y-65968579D01*
X32723111Y-65860271D01*
X32864406Y-65801744D01*
X32981437Y-65635844D01*
X32258000Y-64912408D01*
X31534563Y-65635844D01*
X31651594Y-65801744D01*
X31816912Y-65850320D01*
X31531409Y-65968579D01*
X31170579Y-66329409D01*
X30975300Y-66800855D01*
X23634700Y-66800855D01*
X23439421Y-66329409D01*
X23078591Y-65968579D01*
X22817111Y-65860271D01*
X22958406Y-65801744D01*
X23075437Y-65635844D01*
X22352000Y-64912408D01*
X21628563Y-65635844D01*
X21745594Y-65801744D01*
X21910912Y-65850320D01*
X21625409Y-65968579D01*
X21264579Y-66329409D01*
X21069300Y-66800855D01*
X18147500Y-66800855D01*
X18147500Y-64526186D01*
X21049398Y-64526186D01*
X21103850Y-65033563D01*
X21193256Y-65249406D01*
X21359156Y-65366437D01*
X22082592Y-64643000D01*
X22621408Y-64643000D01*
X23344844Y-65366437D01*
X23510744Y-65249406D01*
X23654602Y-64759814D01*
X23629529Y-64526186D01*
X30955398Y-64526186D01*
X31009850Y-65033563D01*
X31099256Y-65249406D01*
X31265156Y-65366437D01*
X31988592Y-64643000D01*
X32527408Y-64643000D01*
X33250844Y-65366437D01*
X33416744Y-65249406D01*
X33560602Y-64759814D01*
X33535529Y-64526186D01*
X40353398Y-64526186D01*
X40407850Y-65033563D01*
X40497256Y-65249406D01*
X40663156Y-65366437D01*
X41386592Y-64643000D01*
X41925408Y-64643000D01*
X42648844Y-65366437D01*
X42814744Y-65249406D01*
X42958602Y-64759814D01*
X42904150Y-64252437D01*
X42814744Y-64036594D01*
X42648844Y-63919563D01*
X41925408Y-64643000D01*
X41386592Y-64643000D01*
X40663156Y-63919563D01*
X40497256Y-64036594D01*
X40353398Y-64526186D01*
X33535529Y-64526186D01*
X33506150Y-64252437D01*
X33416744Y-64036594D01*
X33250844Y-63919563D01*
X32527408Y-64643000D01*
X31988592Y-64643000D01*
X31265156Y-63919563D01*
X31099256Y-64036594D01*
X30955398Y-64526186D01*
X23629529Y-64526186D01*
X23600150Y-64252437D01*
X23510744Y-64036594D01*
X23344844Y-63919563D01*
X22621408Y-64643000D01*
X22082592Y-64643000D01*
X21359156Y-63919563D01*
X21193256Y-64036594D01*
X21049398Y-64526186D01*
X18147500Y-64526186D01*
X18147500Y-62382400D01*
X18367628Y-62382400D01*
X18458240Y-62837936D01*
X18716280Y-63224120D01*
X19102464Y-63482160D01*
X19443015Y-63549900D01*
X19672985Y-63549900D01*
X20013536Y-63482160D01*
X20399720Y-63224120D01*
X20657760Y-62837936D01*
X20748372Y-62382400D01*
X20657760Y-61926864D01*
X20399720Y-61540680D01*
X20013536Y-61282640D01*
X19672985Y-61214900D01*
X19443015Y-61214900D01*
X19102464Y-61282640D01*
X18716280Y-61540680D01*
X18458240Y-61926864D01*
X18367628Y-62382400D01*
X18147500Y-62382400D01*
X18147500Y-59855729D01*
X20624637Y-59855729D01*
X20624637Y-60340757D01*
X20810249Y-60788865D01*
X21153215Y-61131831D01*
X21594566Y-61314644D01*
X21256280Y-61540680D01*
X20998240Y-61926864D01*
X20907628Y-62382400D01*
X20998240Y-62837936D01*
X21256280Y-63224120D01*
X21642464Y-63482160D01*
X21734200Y-63500408D01*
X21628563Y-63650156D01*
X22352000Y-64373592D01*
X23075437Y-63650156D01*
X31534563Y-63650156D01*
X32258000Y-64373592D01*
X32981437Y-63650156D01*
X32950373Y-63606120D01*
X34682000Y-63606120D01*
X34805882Y-63581478D01*
X34910905Y-63511305D01*
X34981078Y-63406282D01*
X35005720Y-63282400D01*
X35005720Y-61482400D01*
X34981078Y-61358518D01*
X34910905Y-61253495D01*
X34805882Y-61183322D01*
X34682000Y-61158680D01*
X32882000Y-61158680D01*
X32758118Y-61183322D01*
X32653095Y-61253495D01*
X32582922Y-61358518D01*
X32558280Y-61482400D01*
X32558280Y-63282400D01*
X32581922Y-63401253D01*
X32374814Y-63340398D01*
X31867437Y-63394850D01*
X31651594Y-63484256D01*
X31534563Y-63650156D01*
X23075437Y-63650156D01*
X22958406Y-63484256D01*
X22675019Y-63400988D01*
X22939720Y-63224120D01*
X23197760Y-62837936D01*
X23288372Y-62382400D01*
X23197760Y-61926864D01*
X22939720Y-61540680D01*
X22553536Y-61282640D01*
X22294680Y-61231150D01*
X22534459Y-61131831D01*
X22877425Y-60788865D01*
X23063037Y-60340757D01*
X23063037Y-59855729D01*
X23164637Y-59855729D01*
X23164637Y-60340757D01*
X23350249Y-60788865D01*
X23693215Y-61131831D01*
X23878745Y-61208680D01*
X23788000Y-61208680D01*
X23664118Y-61233322D01*
X23559095Y-61303495D01*
X23488922Y-61408518D01*
X23464280Y-61532400D01*
X23464280Y-63232400D01*
X23488922Y-63356282D01*
X23559095Y-63461305D01*
X23664118Y-63531478D01*
X23788000Y-63556120D01*
X25488000Y-63556120D01*
X25611882Y-63531478D01*
X25716905Y-63461305D01*
X25787078Y-63356282D01*
X25811720Y-63232400D01*
X25811720Y-61532400D01*
X25787078Y-61408518D01*
X25716905Y-61303495D01*
X25611882Y-61233322D01*
X25488000Y-61208680D01*
X24888929Y-61208680D01*
X25074459Y-61131831D01*
X25161575Y-61044715D01*
X26246773Y-61044715D01*
X26355918Y-61204014D01*
X26765937Y-61321080D01*
X26740922Y-61358518D01*
X26716280Y-61482400D01*
X26716280Y-63282400D01*
X26740922Y-63406282D01*
X26811095Y-63511305D01*
X26916118Y-63581478D01*
X27040000Y-63606120D01*
X28840000Y-63606120D01*
X28963882Y-63581478D01*
X29068905Y-63511305D01*
X29139078Y-63406282D01*
X29163720Y-63282400D01*
X29163720Y-62140224D01*
X29262500Y-62140224D01*
X29262500Y-62624576D01*
X29447854Y-63072058D01*
X29790342Y-63414546D01*
X30237824Y-63599900D01*
X30722176Y-63599900D01*
X31169658Y-63414546D01*
X31512146Y-63072058D01*
X31697500Y-62624576D01*
X31697500Y-62140224D01*
X31512146Y-61692742D01*
X31169658Y-61350254D01*
X30722176Y-61164900D01*
X30237824Y-61164900D01*
X29790342Y-61350254D01*
X29447854Y-61692742D01*
X29262500Y-62140224D01*
X29163720Y-62140224D01*
X29163720Y-61482400D01*
X29139078Y-61358518D01*
X29068905Y-61253495D01*
X28963882Y-61183322D01*
X28840000Y-61158680D01*
X27522817Y-61158680D01*
X27600901Y-61044715D01*
X26923837Y-60367651D01*
X26246773Y-61044715D01*
X25161575Y-61044715D01*
X25417425Y-60788865D01*
X25603037Y-60340757D01*
X25603037Y-59996714D01*
X25684905Y-59996714D01*
X25740359Y-60478562D01*
X25818066Y-60666162D01*
X25977365Y-60775307D01*
X26654429Y-60098243D01*
X25977365Y-59421179D01*
X25818066Y-59530324D01*
X25684905Y-59996714D01*
X25603037Y-59996714D01*
X25603037Y-59855729D01*
X25417425Y-59407621D01*
X25074459Y-59064655D01*
X24626351Y-58879043D01*
X24141323Y-58879043D01*
X23693215Y-59064655D01*
X23350249Y-59407621D01*
X23164637Y-59855729D01*
X23063037Y-59855729D01*
X22877425Y-59407621D01*
X22534459Y-59064655D01*
X22086351Y-58879043D01*
X21601323Y-58879043D01*
X21153215Y-59064655D01*
X20810249Y-59407621D01*
X20624637Y-59855729D01*
X18147500Y-59855729D01*
X18147500Y-57540680D01*
X23641100Y-57540680D01*
X23641100Y-57826120D01*
X23750333Y-58089831D01*
X23952169Y-58291667D01*
X24215880Y-58400900D01*
X24501320Y-58400900D01*
X24765031Y-58291667D01*
X24930798Y-58125900D01*
X26141224Y-58125900D01*
X26890191Y-58874868D01*
X26543518Y-58914765D01*
X26355918Y-58992472D01*
X26246773Y-59151771D01*
X26923837Y-59828835D01*
X26937979Y-59814693D01*
X27207387Y-60084101D01*
X27193245Y-60098243D01*
X27870309Y-60775307D01*
X28029608Y-60666162D01*
X28162769Y-60199772D01*
X28155964Y-60140642D01*
X28395643Y-60380320D01*
X28420330Y-60417268D01*
X28512063Y-60478562D01*
X28566700Y-60515069D01*
X28739355Y-60549412D01*
X28782937Y-60540743D01*
X35439474Y-60540743D01*
X35542249Y-60788865D01*
X35885215Y-61131831D01*
X36022438Y-61188670D01*
X35632342Y-61350254D01*
X35289854Y-61692742D01*
X35104500Y-62140224D01*
X35104500Y-62624576D01*
X35289854Y-63072058D01*
X35632342Y-63414546D01*
X36079824Y-63599900D01*
X36564176Y-63599900D01*
X37011658Y-63414546D01*
X37354146Y-63072058D01*
X37539500Y-62624576D01*
X37539500Y-62140224D01*
X37354146Y-61692742D01*
X37193804Y-61532400D01*
X37688280Y-61532400D01*
X37688280Y-63232400D01*
X37712922Y-63356282D01*
X37783095Y-63461305D01*
X37888118Y-63531478D01*
X38012000Y-63556120D01*
X39712000Y-63556120D01*
X39835882Y-63531478D01*
X39940905Y-63461305D01*
X40011078Y-63356282D01*
X40035720Y-63232400D01*
X40035720Y-62750747D01*
X40294110Y-62750747D01*
X40519403Y-63146679D01*
X40879064Y-63426257D01*
X41033656Y-63490271D01*
X41047334Y-63487460D01*
X40932563Y-63650156D01*
X41656000Y-64373592D01*
X42379437Y-63650156D01*
X42262406Y-63484256D01*
X41963362Y-63396387D01*
X42284597Y-63146679D01*
X42509890Y-62750747D01*
X42834110Y-62750747D01*
X43059403Y-63146679D01*
X43419064Y-63426257D01*
X43573656Y-63490271D01*
X43751500Y-63453720D01*
X43751500Y-62572900D01*
X44132500Y-62572900D01*
X44132500Y-63453720D01*
X44310344Y-63490271D01*
X44464936Y-63426257D01*
X44824597Y-63146679D01*
X45049890Y-62750747D01*
X45014497Y-62572900D01*
X44132500Y-62572900D01*
X43751500Y-62572900D01*
X42869503Y-62572900D01*
X42834110Y-62750747D01*
X42509890Y-62750747D01*
X42474497Y-62572900D01*
X41592500Y-62572900D01*
X41592500Y-62592900D01*
X41211500Y-62592900D01*
X41211500Y-62572900D01*
X40329503Y-62572900D01*
X40294110Y-62750747D01*
X40035720Y-62750747D01*
X40035720Y-62014053D01*
X40294110Y-62014053D01*
X40329503Y-62191900D01*
X41211500Y-62191900D01*
X41211500Y-62171900D01*
X41592500Y-62171900D01*
X41592500Y-62191900D01*
X42474497Y-62191900D01*
X42509890Y-62014053D01*
X42834110Y-62014053D01*
X42869503Y-62191900D01*
X43751500Y-62191900D01*
X43751500Y-61311080D01*
X44132500Y-61311080D01*
X44132500Y-62191900D01*
X45014497Y-62191900D01*
X45049890Y-62014053D01*
X44824597Y-61618121D01*
X44464936Y-61338543D01*
X44310344Y-61274529D01*
X44132500Y-61311080D01*
X43751500Y-61311080D01*
X43573656Y-61274529D01*
X43419064Y-61338543D01*
X43059403Y-61618121D01*
X42834110Y-62014053D01*
X42509890Y-62014053D01*
X42284597Y-61618121D01*
X41924936Y-61338543D01*
X41841745Y-61304095D01*
X42036156Y-61281721D01*
X42223756Y-61204014D01*
X42332901Y-61044715D01*
X41655837Y-60367651D01*
X40978773Y-61044715D01*
X41087918Y-61204014D01*
X41211498Y-61239298D01*
X41211498Y-61311080D01*
X41033656Y-61274529D01*
X40879064Y-61338543D01*
X40519403Y-61618121D01*
X40294110Y-62014053D01*
X40035720Y-62014053D01*
X40035720Y-61532400D01*
X40011078Y-61408518D01*
X39940905Y-61303495D01*
X39835882Y-61233322D01*
X39712000Y-61208680D01*
X39620929Y-61208680D01*
X39806459Y-61131831D01*
X40149425Y-60788865D01*
X40335037Y-60340757D01*
X40335037Y-59855729D01*
X40149425Y-59407621D01*
X39806459Y-59064655D01*
X39358351Y-58879043D01*
X38873323Y-58879043D01*
X38425215Y-59064655D01*
X38082249Y-59407621D01*
X37896637Y-59855729D01*
X37896637Y-60340757D01*
X38082249Y-60788865D01*
X38425215Y-61131831D01*
X38610745Y-61208680D01*
X38012000Y-61208680D01*
X37888118Y-61233322D01*
X37783095Y-61303495D01*
X37712922Y-61408518D01*
X37688280Y-61532400D01*
X37193804Y-61532400D01*
X37011658Y-61350254D01*
X36875399Y-61293813D01*
X37266459Y-61131831D01*
X37609425Y-60788865D01*
X37795037Y-60340757D01*
X37795037Y-59855729D01*
X37609425Y-59407621D01*
X37266459Y-59064655D01*
X36818351Y-58879043D01*
X36333323Y-58879043D01*
X35885215Y-59064655D01*
X35542249Y-59407621D01*
X35439474Y-59655743D01*
X28922645Y-59655743D01*
X27439201Y-58172300D01*
X27472911Y-58172300D01*
X27742284Y-58441673D01*
X27766974Y-58478624D01*
X27913344Y-58576425D01*
X28042417Y-58602099D01*
X28085998Y-58610768D01*
X28129579Y-58602099D01*
X34354419Y-58602099D01*
X34398001Y-58610768D01*
X34441583Y-58602099D01*
X34570656Y-58576425D01*
X34717026Y-58478624D01*
X34718044Y-58477100D01*
X34940720Y-58477100D01*
X35204431Y-58367867D01*
X35406267Y-58166031D01*
X35515500Y-57902320D01*
X35515500Y-57616880D01*
X35406267Y-57353169D01*
X35204431Y-57151333D01*
X34940720Y-57042100D01*
X34655280Y-57042100D01*
X34391569Y-57151333D01*
X34189733Y-57353169D01*
X34080500Y-57616880D01*
X34080500Y-57717099D01*
X32923720Y-57717099D01*
X32923720Y-56046000D01*
X32899078Y-55922118D01*
X32828905Y-55817095D01*
X32723882Y-55746922D01*
X32600000Y-55722280D01*
X30900000Y-55722280D01*
X30776118Y-55746922D01*
X30671095Y-55817095D01*
X30600922Y-55922118D01*
X30576280Y-56046000D01*
X30576280Y-57717099D01*
X28269288Y-57717099D01*
X28098700Y-57546511D01*
X28098700Y-57312080D01*
X27989467Y-57048369D01*
X27787631Y-56846533D01*
X27523920Y-56737300D01*
X27238480Y-56737300D01*
X26974769Y-56846533D01*
X26772933Y-57048369D01*
X26663700Y-57312080D01*
X26663700Y-57394551D01*
X26643537Y-57364375D01*
X26497167Y-57266574D01*
X26368094Y-57240900D01*
X26324512Y-57232231D01*
X26280930Y-57240900D01*
X24930798Y-57240900D01*
X24765031Y-57075133D01*
X24501320Y-56965900D01*
X24215880Y-56965900D01*
X23952169Y-57075133D01*
X23750333Y-57276969D01*
X23641100Y-57540680D01*
X18147500Y-57540680D01*
X18147500Y-52759439D01*
X18338637Y-52759439D01*
X18338637Y-53416247D01*
X18589987Y-54023059D01*
X19054421Y-54487493D01*
X19661233Y-54738843D01*
X20318041Y-54738843D01*
X20924853Y-54487493D01*
X21389287Y-54023059D01*
X21640637Y-53416247D01*
X21640637Y-52759439D01*
X27127037Y-52759439D01*
X27127037Y-53416247D01*
X27378387Y-54023059D01*
X27842821Y-54487493D01*
X28449633Y-54738843D01*
X29106441Y-54738843D01*
X29713253Y-54487493D01*
X29844746Y-54356000D01*
X30559628Y-54356000D01*
X30650240Y-54811536D01*
X30908280Y-55197720D01*
X31294464Y-55455760D01*
X31635015Y-55523500D01*
X31864985Y-55523500D01*
X32205536Y-55455760D01*
X32347234Y-55361080D01*
X37814300Y-55361080D01*
X37814300Y-55646520D01*
X37923533Y-55910231D01*
X38125369Y-56112067D01*
X38389080Y-56221300D01*
X38623512Y-56221300D01*
X39943501Y-57541291D01*
X39943500Y-58051603D01*
X39777733Y-58217370D01*
X39668500Y-58481081D01*
X39668500Y-58766521D01*
X39777733Y-59030232D01*
X39979569Y-59232068D01*
X40243280Y-59341301D01*
X40528720Y-59341301D01*
X40746938Y-59250912D01*
X40643017Y-59354833D01*
X40709364Y-59421180D01*
X40550066Y-59530324D01*
X40416905Y-59996714D01*
X40472359Y-60478562D01*
X40550066Y-60666162D01*
X40709365Y-60775307D01*
X41386429Y-60098243D01*
X41925245Y-60098243D01*
X42602309Y-60775307D01*
X42761608Y-60666162D01*
X42894769Y-60199772D01*
X42839315Y-59717924D01*
X42761608Y-59530324D01*
X42602309Y-59421179D01*
X41925245Y-60098243D01*
X41386429Y-60098243D01*
X41372287Y-60084101D01*
X41641695Y-59814693D01*
X41655837Y-59828835D01*
X42332901Y-59151771D01*
X42223756Y-58992472D01*
X41757366Y-58859311D01*
X41275518Y-58914765D01*
X41087918Y-58992472D01*
X40978774Y-59151770D01*
X40925752Y-59098748D01*
X40994267Y-59030232D01*
X41103500Y-58766521D01*
X41103500Y-58481081D01*
X40994267Y-58217370D01*
X40828500Y-58051603D01*
X40828500Y-57401582D01*
X40837169Y-57358000D01*
X40802826Y-57185345D01*
X40729712Y-57075922D01*
X40705025Y-57038975D01*
X40668077Y-57014288D01*
X39249300Y-55595512D01*
X39249300Y-55361080D01*
X39140067Y-55097369D01*
X38938231Y-54895533D01*
X38674520Y-54786300D01*
X38389080Y-54786300D01*
X38125369Y-54895533D01*
X37923533Y-55097369D01*
X37814300Y-55361080D01*
X32347234Y-55361080D01*
X32591720Y-55197720D01*
X32849760Y-54811536D01*
X32940372Y-54356000D01*
X32849760Y-53900464D01*
X32591720Y-53514280D01*
X32205536Y-53256240D01*
X31864985Y-53188500D01*
X31635015Y-53188500D01*
X31294464Y-53256240D01*
X30908280Y-53514280D01*
X30650240Y-53900464D01*
X30559628Y-54356000D01*
X29844746Y-54356000D01*
X30177687Y-54023059D01*
X30429037Y-53416247D01*
X30429037Y-52759439D01*
X30190825Y-52184344D01*
X30642129Y-52184344D01*
X30706143Y-52338936D01*
X30985721Y-52698597D01*
X31381653Y-52923890D01*
X31559500Y-52888497D01*
X31559500Y-52006500D01*
X31940500Y-52006500D01*
X31940500Y-52888497D01*
X32118347Y-52923890D01*
X32407354Y-52759439D01*
X33070637Y-52759439D01*
X33070637Y-53416247D01*
X33321987Y-54023059D01*
X33786421Y-54487493D01*
X34393233Y-54738843D01*
X35050041Y-54738843D01*
X35656853Y-54487493D01*
X36121287Y-54023059D01*
X36372637Y-53416247D01*
X36372637Y-52759439D01*
X36265144Y-52499927D01*
X36876747Y-52499927D01*
X36876747Y-52785367D01*
X36985980Y-53049078D01*
X37187816Y-53250914D01*
X37451527Y-53360147D01*
X37736967Y-53360147D01*
X38000678Y-53250914D01*
X38166445Y-53085147D01*
X38209959Y-53085147D01*
X38301553Y-53176741D01*
X38301553Y-53411173D01*
X38410786Y-53674884D01*
X38612622Y-53876720D01*
X38876333Y-53985953D01*
X39161773Y-53985953D01*
X39425484Y-53876720D01*
X39627320Y-53674884D01*
X39736553Y-53411173D01*
X39736553Y-53125733D01*
X39627320Y-52862022D01*
X39425484Y-52660186D01*
X39161773Y-52550953D01*
X38927341Y-52550953D01*
X38811228Y-52434839D01*
X38899388Y-52346679D01*
X39418538Y-52346679D01*
X39729982Y-52658124D01*
X39729982Y-52892555D01*
X39839215Y-53156266D01*
X40041051Y-53358102D01*
X40304762Y-53467335D01*
X40590202Y-53467335D01*
X40853913Y-53358102D01*
X41055749Y-53156266D01*
X41164982Y-52892555D01*
X41164982Y-52759439D01*
X41859037Y-52759439D01*
X41859037Y-53416247D01*
X42110387Y-54023059D01*
X42574821Y-54487493D01*
X43181633Y-54738843D01*
X43838441Y-54738843D01*
X44445253Y-54487493D01*
X44909687Y-54023059D01*
X45161037Y-53416247D01*
X45161037Y-52759439D01*
X44909687Y-52152627D01*
X44445253Y-51688193D01*
X43838441Y-51436843D01*
X43181633Y-51436843D01*
X42574821Y-51688193D01*
X42110387Y-52152627D01*
X41859037Y-52759439D01*
X41164982Y-52759439D01*
X41164982Y-52607115D01*
X41055749Y-52343404D01*
X40853913Y-52141568D01*
X40590202Y-52032335D01*
X40355771Y-52032335D01*
X39945542Y-51622107D01*
X39920851Y-51585154D01*
X39774481Y-51487353D01*
X39645408Y-51461679D01*
X39601826Y-51453010D01*
X39558244Y-51461679D01*
X38899388Y-51461679D01*
X38733621Y-51295912D01*
X38469910Y-51186679D01*
X38184470Y-51186679D01*
X37920759Y-51295912D01*
X37718923Y-51497748D01*
X37609690Y-51761459D01*
X37609690Y-51925147D01*
X37451527Y-51925147D01*
X37187816Y-52034380D01*
X36985980Y-52236216D01*
X36876747Y-52499927D01*
X36265144Y-52499927D01*
X36121287Y-52152627D01*
X35656853Y-51688193D01*
X35050041Y-51436843D01*
X34393233Y-51436843D01*
X33786421Y-51688193D01*
X33321987Y-52152627D01*
X33070637Y-52759439D01*
X32407354Y-52759439D01*
X32514279Y-52698597D01*
X32793857Y-52338936D01*
X32857871Y-52184344D01*
X32821320Y-52006500D01*
X31940500Y-52006500D01*
X31559500Y-52006500D01*
X30678680Y-52006500D01*
X30642129Y-52184344D01*
X30190825Y-52184344D01*
X30177687Y-52152627D01*
X29713253Y-51688193D01*
X29132546Y-51447656D01*
X30642129Y-51447656D01*
X30678680Y-51625500D01*
X31559500Y-51625500D01*
X31559500Y-50743503D01*
X31940500Y-50743503D01*
X31940500Y-51625500D01*
X32821320Y-51625500D01*
X32857871Y-51447656D01*
X32793857Y-51293064D01*
X32514279Y-50933403D01*
X32118347Y-50708110D01*
X31940500Y-50743503D01*
X31559500Y-50743503D01*
X31381653Y-50708110D01*
X30985721Y-50933403D01*
X30706143Y-51293064D01*
X30642129Y-51447656D01*
X29132546Y-51447656D01*
X29106441Y-51436843D01*
X28449633Y-51436843D01*
X27842821Y-51688193D01*
X27378387Y-52152627D01*
X27127037Y-52759439D01*
X21640637Y-52759439D01*
X21389287Y-52152627D01*
X20924853Y-51688193D01*
X20318041Y-51436843D01*
X19661233Y-51436843D01*
X19054421Y-51688193D01*
X18589987Y-52152627D01*
X18338637Y-52759439D01*
X18147500Y-52759439D01*
X18147500Y-48627500D01*
X45352500Y-48627500D01*
X45352501Y-60081792D01*
X45352501Y-60081792D01*
G37*
X45352501Y-60081792D02*
X45359561Y-60117285D01*
X45359561Y-60117295D01*
X45402097Y-60331139D01*
X45456970Y-60463615D01*
X45456972Y-60463617D01*
X45578105Y-60644905D01*
X45656500Y-60723299D01*
X45656500Y-60934180D01*
X45585757Y-61004923D01*
X45461300Y-61305389D01*
X45461300Y-61630611D01*
X45585757Y-61931077D01*
X45656500Y-62001820D01*
X45656500Y-62458180D01*
X45585757Y-62528923D01*
X45461300Y-62829389D01*
X45461300Y-63154611D01*
X45585757Y-63455077D01*
X45656500Y-63525820D01*
X45656500Y-63982180D01*
X45585757Y-64052923D01*
X45461300Y-64353389D01*
X45461300Y-64678611D01*
X45585757Y-64979077D01*
X45656500Y-65049820D01*
X45656500Y-65260701D01*
X45578105Y-65339095D01*
X45456972Y-65520383D01*
X45456970Y-65520385D01*
X45402097Y-65652861D01*
X45359561Y-65866705D01*
X45359561Y-65866715D01*
X45352501Y-65902208D01*
X45352500Y-76594500D01*
X42491312Y-76594500D01*
X42743421Y-76342391D01*
X42938700Y-75870945D01*
X42938700Y-75360655D01*
X42743421Y-74889209D01*
X42382591Y-74528379D01*
X41911145Y-74333100D01*
X41400855Y-74333100D01*
X40929409Y-74528379D01*
X40568579Y-74889209D01*
X40373300Y-75360655D01*
X40373300Y-75870945D01*
X40568579Y-76342391D01*
X40820688Y-76594500D01*
X33093312Y-76594500D01*
X33345421Y-76342391D01*
X33540700Y-75870945D01*
X33540700Y-75360655D01*
X33513621Y-75295280D01*
X36849100Y-75295280D01*
X36849100Y-75580720D01*
X36958333Y-75844431D01*
X37160169Y-76046267D01*
X37423880Y-76155500D01*
X37709320Y-76155500D01*
X37973031Y-76046267D01*
X38174867Y-75844431D01*
X38284100Y-75580720D01*
X38284100Y-75295280D01*
X38174867Y-75031569D01*
X38009100Y-74865802D01*
X38009100Y-70067168D01*
X39938500Y-70067168D01*
X39938500Y-70750432D01*
X40199974Y-71381686D01*
X40683114Y-71864826D01*
X41314368Y-72126300D01*
X41997632Y-72126300D01*
X42628886Y-71864826D01*
X43112026Y-71381686D01*
X43373500Y-70750432D01*
X43373500Y-70067168D01*
X43112026Y-69435914D01*
X42628886Y-68952774D01*
X41997632Y-68691300D01*
X41314368Y-68691300D01*
X40683114Y-68952774D01*
X40199974Y-69435914D01*
X39938500Y-70067168D01*
X38009100Y-70067168D01*
X38009100Y-69825011D01*
X38074631Y-69797867D01*
X38276467Y-69596031D01*
X38385700Y-69332320D01*
X38385700Y-69046880D01*
X38276467Y-68783169D01*
X38074631Y-68581333D01*
X37810920Y-68472100D01*
X37525480Y-68472100D01*
X37261769Y-68581333D01*
X37059933Y-68783169D01*
X36950700Y-69046880D01*
X36950700Y-69332320D01*
X37059933Y-69596031D01*
X37124101Y-69660199D01*
X37124100Y-74865802D01*
X36958333Y-75031569D01*
X36849100Y-75295280D01*
X33513621Y-75295280D01*
X33345421Y-74889209D01*
X32984591Y-74528379D01*
X32513145Y-74333100D01*
X32002855Y-74333100D01*
X31531409Y-74528379D01*
X31170579Y-74889209D01*
X30975300Y-75360655D01*
X30975300Y-75870945D01*
X31170579Y-76342391D01*
X31422688Y-76594500D01*
X23187312Y-76594500D01*
X23439421Y-76342391D01*
X23634700Y-75870945D01*
X23634700Y-75360655D01*
X23439421Y-74889209D01*
X23078591Y-74528379D01*
X22607145Y-74333100D01*
X22096855Y-74333100D01*
X21625409Y-74528379D01*
X21264579Y-74889209D01*
X21069300Y-75360655D01*
X21069300Y-75870945D01*
X21264579Y-76342391D01*
X21516688Y-76594500D01*
X18147500Y-76594500D01*
X18147500Y-70027386D01*
X20434500Y-70027386D01*
X20434500Y-70790214D01*
X20726422Y-71494976D01*
X21265824Y-72034378D01*
X21970586Y-72326300D01*
X22733414Y-72326300D01*
X23438176Y-72034378D01*
X23977578Y-71494976D01*
X24269500Y-70790214D01*
X24269500Y-70067168D01*
X30540500Y-70067168D01*
X30540500Y-70750432D01*
X30801974Y-71381686D01*
X31285114Y-71864826D01*
X31916368Y-72126300D01*
X32599632Y-72126300D01*
X33230886Y-71864826D01*
X33714026Y-71381686D01*
X33975500Y-70750432D01*
X33975500Y-70067168D01*
X33714026Y-69435914D01*
X33230886Y-68952774D01*
X32599632Y-68691300D01*
X31916368Y-68691300D01*
X31285114Y-68952774D01*
X30801974Y-69435914D01*
X30540500Y-70067168D01*
X24269500Y-70067168D01*
X24269500Y-70027386D01*
X23977578Y-69322624D01*
X23438176Y-68783222D01*
X22733414Y-68491300D01*
X21970586Y-68491300D01*
X21265824Y-68783222D01*
X20726422Y-69322624D01*
X20434500Y-70027386D01*
X18147500Y-70027386D01*
X18147500Y-66800855D01*
X21069300Y-66800855D01*
X21069300Y-67311145D01*
X21264579Y-67782591D01*
X21625409Y-68143421D01*
X22096855Y-68338700D01*
X22607145Y-68338700D01*
X23078591Y-68143421D01*
X23439421Y-67782591D01*
X23634700Y-67311145D01*
X23634700Y-66800855D01*
X30975300Y-66800855D01*
X30975300Y-67311145D01*
X31170579Y-67782591D01*
X31531409Y-68143421D01*
X32002855Y-68338700D01*
X32513145Y-68338700D01*
X32888362Y-68183280D01*
X33953500Y-68183280D01*
X33953500Y-68468720D01*
X34062733Y-68732431D01*
X34253901Y-68923599D01*
X34253900Y-70674802D01*
X34088133Y-70840569D01*
X33978900Y-71104280D01*
X33978900Y-71389720D01*
X34088133Y-71653431D01*
X34289969Y-71855267D01*
X34553680Y-71964500D01*
X34839120Y-71964500D01*
X35102831Y-71855267D01*
X35304667Y-71653431D01*
X35413900Y-71389720D01*
X35413900Y-71104280D01*
X35304667Y-70840569D01*
X35138900Y-70674802D01*
X35138900Y-68872798D01*
X35279267Y-68732431D01*
X35388500Y-68468720D01*
X35388500Y-68183280D01*
X35279267Y-67919569D01*
X35077431Y-67717733D01*
X34813720Y-67608500D01*
X34528280Y-67608500D01*
X34264569Y-67717733D01*
X34062733Y-67919569D01*
X33953500Y-68183280D01*
X32888362Y-68183280D01*
X32984591Y-68143421D01*
X33345421Y-67782591D01*
X33540700Y-67311145D01*
X33540700Y-66800855D01*
X40373300Y-66800855D01*
X40373300Y-67311145D01*
X40568579Y-67782591D01*
X40929409Y-68143421D01*
X41400855Y-68338700D01*
X41911145Y-68338700D01*
X42382591Y-68143421D01*
X42743421Y-67782591D01*
X42938700Y-67311145D01*
X42938700Y-66800855D01*
X42743421Y-66329409D01*
X42382591Y-65968579D01*
X42121111Y-65860271D01*
X42262406Y-65801744D01*
X42379437Y-65635844D01*
X41656000Y-64912408D01*
X40932563Y-65635844D01*
X41049594Y-65801744D01*
X41214912Y-65850320D01*
X40929409Y-65968579D01*
X40568579Y-66329409D01*
X40373300Y-66800855D01*
X33540700Y-66800855D01*
X33345421Y-66329409D01*
X32984591Y-65968579D01*
X32723111Y-65860271D01*
X32864406Y-65801744D01*
X32981437Y-65635844D01*
X32258000Y-64912408D01*
X31534563Y-65635844D01*
X31651594Y-65801744D01*
X31816912Y-65850320D01*
X31531409Y-65968579D01*
X31170579Y-66329409D01*
X30975300Y-66800855D01*
X23634700Y-66800855D01*
X23439421Y-66329409D01*
X23078591Y-65968579D01*
X22817111Y-65860271D01*
X22958406Y-65801744D01*
X23075437Y-65635844D01*
X22352000Y-64912408D01*
X21628563Y-65635844D01*
X21745594Y-65801744D01*
X21910912Y-65850320D01*
X21625409Y-65968579D01*
X21264579Y-66329409D01*
X21069300Y-66800855D01*
X18147500Y-66800855D01*
X18147500Y-64526186D01*
X21049398Y-64526186D01*
X21103850Y-65033563D01*
X21193256Y-65249406D01*
X21359156Y-65366437D01*
X22082592Y-64643000D01*
X22621408Y-64643000D01*
X23344844Y-65366437D01*
X23510744Y-65249406D01*
X23654602Y-64759814D01*
X23629529Y-64526186D01*
X30955398Y-64526186D01*
X31009850Y-65033563D01*
X31099256Y-65249406D01*
X31265156Y-65366437D01*
X31988592Y-64643000D01*
X32527408Y-64643000D01*
X33250844Y-65366437D01*
X33416744Y-65249406D01*
X33560602Y-64759814D01*
X33535529Y-64526186D01*
X40353398Y-64526186D01*
X40407850Y-65033563D01*
X40497256Y-65249406D01*
X40663156Y-65366437D01*
X41386592Y-64643000D01*
X41925408Y-64643000D01*
X42648844Y-65366437D01*
X42814744Y-65249406D01*
X42958602Y-64759814D01*
X42904150Y-64252437D01*
X42814744Y-64036594D01*
X42648844Y-63919563D01*
X41925408Y-64643000D01*
X41386592Y-64643000D01*
X40663156Y-63919563D01*
X40497256Y-64036594D01*
X40353398Y-64526186D01*
X33535529Y-64526186D01*
X33506150Y-64252437D01*
X33416744Y-64036594D01*
X33250844Y-63919563D01*
X32527408Y-64643000D01*
X31988592Y-64643000D01*
X31265156Y-63919563D01*
X31099256Y-64036594D01*
X30955398Y-64526186D01*
X23629529Y-64526186D01*
X23600150Y-64252437D01*
X23510744Y-64036594D01*
X23344844Y-63919563D01*
X22621408Y-64643000D01*
X22082592Y-64643000D01*
X21359156Y-63919563D01*
X21193256Y-64036594D01*
X21049398Y-64526186D01*
X18147500Y-64526186D01*
X18147500Y-62382400D01*
X18367628Y-62382400D01*
X18458240Y-62837936D01*
X18716280Y-63224120D01*
X19102464Y-63482160D01*
X19443015Y-63549900D01*
X19672985Y-63549900D01*
X20013536Y-63482160D01*
X20399720Y-63224120D01*
X20657760Y-62837936D01*
X20748372Y-62382400D01*
X20657760Y-61926864D01*
X20399720Y-61540680D01*
X20013536Y-61282640D01*
X19672985Y-61214900D01*
X19443015Y-61214900D01*
X19102464Y-61282640D01*
X18716280Y-61540680D01*
X18458240Y-61926864D01*
X18367628Y-62382400D01*
X18147500Y-62382400D01*
X18147500Y-59855729D01*
X20624637Y-59855729D01*
X20624637Y-60340757D01*
X20810249Y-60788865D01*
X21153215Y-61131831D01*
X21594566Y-61314644D01*
X21256280Y-61540680D01*
X20998240Y-61926864D01*
X20907628Y-62382400D01*
X20998240Y-62837936D01*
X21256280Y-63224120D01*
X21642464Y-63482160D01*
X21734200Y-63500408D01*
X21628563Y-63650156D01*
X22352000Y-64373592D01*
X23075437Y-63650156D01*
X31534563Y-63650156D01*
X32258000Y-64373592D01*
X32981437Y-63650156D01*
X32950373Y-63606120D01*
X34682000Y-63606120D01*
X34805882Y-63581478D01*
X34910905Y-63511305D01*
X34981078Y-63406282D01*
X35005720Y-63282400D01*
X35005720Y-61482400D01*
X34981078Y-61358518D01*
X34910905Y-61253495D01*
X34805882Y-61183322D01*
X34682000Y-61158680D01*
X32882000Y-61158680D01*
X32758118Y-61183322D01*
X32653095Y-61253495D01*
X32582922Y-61358518D01*
X32558280Y-61482400D01*
X32558280Y-63282400D01*
X32581922Y-63401253D01*
X32374814Y-63340398D01*
X31867437Y-63394850D01*
X31651594Y-63484256D01*
X31534563Y-63650156D01*
X23075437Y-63650156D01*
X22958406Y-63484256D01*
X22675019Y-63400988D01*
X22939720Y-63224120D01*
X23197760Y-62837936D01*
X23288372Y-62382400D01*
X23197760Y-61926864D01*
X22939720Y-61540680D01*
X22553536Y-61282640D01*
X22294680Y-61231150D01*
X22534459Y-61131831D01*
X22877425Y-60788865D01*
X23063037Y-60340757D01*
X23063037Y-59855729D01*
X23164637Y-59855729D01*
X23164637Y-60340757D01*
X23350249Y-60788865D01*
X23693215Y-61131831D01*
X23878745Y-61208680D01*
X23788000Y-61208680D01*
X23664118Y-61233322D01*
X23559095Y-61303495D01*
X23488922Y-61408518D01*
X23464280Y-61532400D01*
X23464280Y-63232400D01*
X23488922Y-63356282D01*
X23559095Y-63461305D01*
X23664118Y-63531478D01*
X23788000Y-63556120D01*
X25488000Y-63556120D01*
X25611882Y-63531478D01*
X25716905Y-63461305D01*
X25787078Y-63356282D01*
X25811720Y-63232400D01*
X25811720Y-61532400D01*
X25787078Y-61408518D01*
X25716905Y-61303495D01*
X25611882Y-61233322D01*
X25488000Y-61208680D01*
X24888929Y-61208680D01*
X25074459Y-61131831D01*
X25161575Y-61044715D01*
X26246773Y-61044715D01*
X26355918Y-61204014D01*
X26765937Y-61321080D01*
X26740922Y-61358518D01*
X26716280Y-61482400D01*
X26716280Y-63282400D01*
X26740922Y-63406282D01*
X26811095Y-63511305D01*
X26916118Y-63581478D01*
X27040000Y-63606120D01*
X28840000Y-63606120D01*
X28963882Y-63581478D01*
X29068905Y-63511305D01*
X29139078Y-63406282D01*
X29163720Y-63282400D01*
X29163720Y-62140224D01*
X29262500Y-62140224D01*
X29262500Y-62624576D01*
X29447854Y-63072058D01*
X29790342Y-63414546D01*
X30237824Y-63599900D01*
X30722176Y-63599900D01*
X31169658Y-63414546D01*
X31512146Y-63072058D01*
X31697500Y-62624576D01*
X31697500Y-62140224D01*
X31512146Y-61692742D01*
X31169658Y-61350254D01*
X30722176Y-61164900D01*
X30237824Y-61164900D01*
X29790342Y-61350254D01*
X29447854Y-61692742D01*
X29262500Y-62140224D01*
X29163720Y-62140224D01*
X29163720Y-61482400D01*
X29139078Y-61358518D01*
X29068905Y-61253495D01*
X28963882Y-61183322D01*
X28840000Y-61158680D01*
X27522817Y-61158680D01*
X27600901Y-61044715D01*
X26923837Y-60367651D01*
X26246773Y-61044715D01*
X25161575Y-61044715D01*
X25417425Y-60788865D01*
X25603037Y-60340757D01*
X25603037Y-59996714D01*
X25684905Y-59996714D01*
X25740359Y-60478562D01*
X25818066Y-60666162D01*
X25977365Y-60775307D01*
X26654429Y-60098243D01*
X25977365Y-59421179D01*
X25818066Y-59530324D01*
X25684905Y-59996714D01*
X25603037Y-59996714D01*
X25603037Y-59855729D01*
X25417425Y-59407621D01*
X25074459Y-59064655D01*
X24626351Y-58879043D01*
X24141323Y-58879043D01*
X23693215Y-59064655D01*
X23350249Y-59407621D01*
X23164637Y-59855729D01*
X23063037Y-59855729D01*
X22877425Y-59407621D01*
X22534459Y-59064655D01*
X22086351Y-58879043D01*
X21601323Y-58879043D01*
X21153215Y-59064655D01*
X20810249Y-59407621D01*
X20624637Y-59855729D01*
X18147500Y-59855729D01*
X18147500Y-57540680D01*
X23641100Y-57540680D01*
X23641100Y-57826120D01*
X23750333Y-58089831D01*
X23952169Y-58291667D01*
X24215880Y-58400900D01*
X24501320Y-58400900D01*
X24765031Y-58291667D01*
X24930798Y-58125900D01*
X26141224Y-58125900D01*
X26890191Y-58874868D01*
X26543518Y-58914765D01*
X26355918Y-58992472D01*
X26246773Y-59151771D01*
X26923837Y-59828835D01*
X26937979Y-59814693D01*
X27207387Y-60084101D01*
X27193245Y-60098243D01*
X27870309Y-60775307D01*
X28029608Y-60666162D01*
X28162769Y-60199772D01*
X28155964Y-60140642D01*
X28395643Y-60380320D01*
X28420330Y-60417268D01*
X28512063Y-60478562D01*
X28566700Y-60515069D01*
X28739355Y-60549412D01*
X28782937Y-60540743D01*
X35439474Y-60540743D01*
X35542249Y-60788865D01*
X35885215Y-61131831D01*
X36022438Y-61188670D01*
X35632342Y-61350254D01*
X35289854Y-61692742D01*
X35104500Y-62140224D01*
X35104500Y-62624576D01*
X35289854Y-63072058D01*
X35632342Y-63414546D01*
X36079824Y-63599900D01*
X36564176Y-63599900D01*
X37011658Y-63414546D01*
X37354146Y-63072058D01*
X37539500Y-62624576D01*
X37539500Y-62140224D01*
X37354146Y-61692742D01*
X37193804Y-61532400D01*
X37688280Y-61532400D01*
X37688280Y-63232400D01*
X37712922Y-63356282D01*
X37783095Y-63461305D01*
X37888118Y-63531478D01*
X38012000Y-63556120D01*
X39712000Y-63556120D01*
X39835882Y-63531478D01*
X39940905Y-63461305D01*
X40011078Y-63356282D01*
X40035720Y-63232400D01*
X40035720Y-62750747D01*
X40294110Y-62750747D01*
X40519403Y-63146679D01*
X40879064Y-63426257D01*
X41033656Y-63490271D01*
X41047334Y-63487460D01*
X40932563Y-63650156D01*
X41656000Y-64373592D01*
X42379437Y-63650156D01*
X42262406Y-63484256D01*
X41963362Y-63396387D01*
X42284597Y-63146679D01*
X42509890Y-62750747D01*
X42834110Y-62750747D01*
X43059403Y-63146679D01*
X43419064Y-63426257D01*
X43573656Y-63490271D01*
X43751500Y-63453720D01*
X43751500Y-62572900D01*
X44132500Y-62572900D01*
X44132500Y-63453720D01*
X44310344Y-63490271D01*
X44464936Y-63426257D01*
X44824597Y-63146679D01*
X45049890Y-62750747D01*
X45014497Y-62572900D01*
X44132500Y-62572900D01*
X43751500Y-62572900D01*
X42869503Y-62572900D01*
X42834110Y-62750747D01*
X42509890Y-62750747D01*
X42474497Y-62572900D01*
X41592500Y-62572900D01*
X41592500Y-62592900D01*
X41211500Y-62592900D01*
X41211500Y-62572900D01*
X40329503Y-62572900D01*
X40294110Y-62750747D01*
X40035720Y-62750747D01*
X40035720Y-62014053D01*
X40294110Y-62014053D01*
X40329503Y-62191900D01*
X41211500Y-62191900D01*
X41211500Y-62171900D01*
X41592500Y-62171900D01*
X41592500Y-62191900D01*
X42474497Y-62191900D01*
X42509890Y-62014053D01*
X42834110Y-62014053D01*
X42869503Y-62191900D01*
X43751500Y-62191900D01*
X43751500Y-61311080D01*
X44132500Y-61311080D01*
X44132500Y-62191900D01*
X45014497Y-62191900D01*
X45049890Y-62014053D01*
X44824597Y-61618121D01*
X44464936Y-61338543D01*
X44310344Y-61274529D01*
X44132500Y-61311080D01*
X43751500Y-61311080D01*
X43573656Y-61274529D01*
X43419064Y-61338543D01*
X43059403Y-61618121D01*
X42834110Y-62014053D01*
X42509890Y-62014053D01*
X42284597Y-61618121D01*
X41924936Y-61338543D01*
X41841745Y-61304095D01*
X42036156Y-61281721D01*
X42223756Y-61204014D01*
X42332901Y-61044715D01*
X41655837Y-60367651D01*
X40978773Y-61044715D01*
X41087918Y-61204014D01*
X41211498Y-61239298D01*
X41211498Y-61311080D01*
X41033656Y-61274529D01*
X40879064Y-61338543D01*
X40519403Y-61618121D01*
X40294110Y-62014053D01*
X40035720Y-62014053D01*
X40035720Y-61532400D01*
X40011078Y-61408518D01*
X39940905Y-61303495D01*
X39835882Y-61233322D01*
X39712000Y-61208680D01*
X39620929Y-61208680D01*
X39806459Y-61131831D01*
X40149425Y-60788865D01*
X40335037Y-60340757D01*
X40335037Y-59855729D01*
X40149425Y-59407621D01*
X39806459Y-59064655D01*
X39358351Y-58879043D01*
X38873323Y-58879043D01*
X38425215Y-59064655D01*
X38082249Y-59407621D01*
X37896637Y-59855729D01*
X37896637Y-60340757D01*
X38082249Y-60788865D01*
X38425215Y-61131831D01*
X38610745Y-61208680D01*
X38012000Y-61208680D01*
X37888118Y-61233322D01*
X37783095Y-61303495D01*
X37712922Y-61408518D01*
X37688280Y-61532400D01*
X37193804Y-61532400D01*
X37011658Y-61350254D01*
X36875399Y-61293813D01*
X37266459Y-61131831D01*
X37609425Y-60788865D01*
X37795037Y-60340757D01*
X37795037Y-59855729D01*
X37609425Y-59407621D01*
X37266459Y-59064655D01*
X36818351Y-58879043D01*
X36333323Y-58879043D01*
X35885215Y-59064655D01*
X35542249Y-59407621D01*
X35439474Y-59655743D01*
X28922645Y-59655743D01*
X27439201Y-58172300D01*
X27472911Y-58172300D01*
X27742284Y-58441673D01*
X27766974Y-58478624D01*
X27913344Y-58576425D01*
X28042417Y-58602099D01*
X28085998Y-58610768D01*
X28129579Y-58602099D01*
X34354419Y-58602099D01*
X34398001Y-58610768D01*
X34441583Y-58602099D01*
X34570656Y-58576425D01*
X34717026Y-58478624D01*
X34718044Y-58477100D01*
X34940720Y-58477100D01*
X35204431Y-58367867D01*
X35406267Y-58166031D01*
X35515500Y-57902320D01*
X35515500Y-57616880D01*
X35406267Y-57353169D01*
X35204431Y-57151333D01*
X34940720Y-57042100D01*
X34655280Y-57042100D01*
X34391569Y-57151333D01*
X34189733Y-57353169D01*
X34080500Y-57616880D01*
X34080500Y-57717099D01*
X32923720Y-57717099D01*
X32923720Y-56046000D01*
X32899078Y-55922118D01*
X32828905Y-55817095D01*
X32723882Y-55746922D01*
X32600000Y-55722280D01*
X30900000Y-55722280D01*
X30776118Y-55746922D01*
X30671095Y-55817095D01*
X30600922Y-55922118D01*
X30576280Y-56046000D01*
X30576280Y-57717099D01*
X28269288Y-57717099D01*
X28098700Y-57546511D01*
X28098700Y-57312080D01*
X27989467Y-57048369D01*
X27787631Y-56846533D01*
X27523920Y-56737300D01*
X27238480Y-56737300D01*
X26974769Y-56846533D01*
X26772933Y-57048369D01*
X26663700Y-57312080D01*
X26663700Y-57394551D01*
X26643537Y-57364375D01*
X26497167Y-57266574D01*
X26368094Y-57240900D01*
X26324512Y-57232231D01*
X26280930Y-57240900D01*
X24930798Y-57240900D01*
X24765031Y-57075133D01*
X24501320Y-56965900D01*
X24215880Y-56965900D01*
X23952169Y-57075133D01*
X23750333Y-57276969D01*
X23641100Y-57540680D01*
X18147500Y-57540680D01*
X18147500Y-52759439D01*
X18338637Y-52759439D01*
X18338637Y-53416247D01*
X18589987Y-54023059D01*
X19054421Y-54487493D01*
X19661233Y-54738843D01*
X20318041Y-54738843D01*
X20924853Y-54487493D01*
X21389287Y-54023059D01*
X21640637Y-53416247D01*
X21640637Y-52759439D01*
X27127037Y-52759439D01*
X27127037Y-53416247D01*
X27378387Y-54023059D01*
X27842821Y-54487493D01*
X28449633Y-54738843D01*
X29106441Y-54738843D01*
X29713253Y-54487493D01*
X29844746Y-54356000D01*
X30559628Y-54356000D01*
X30650240Y-54811536D01*
X30908280Y-55197720D01*
X31294464Y-55455760D01*
X31635015Y-55523500D01*
X31864985Y-55523500D01*
X32205536Y-55455760D01*
X32347234Y-55361080D01*
X37814300Y-55361080D01*
X37814300Y-55646520D01*
X37923533Y-55910231D01*
X38125369Y-56112067D01*
X38389080Y-56221300D01*
X38623512Y-56221300D01*
X39943501Y-57541291D01*
X39943500Y-58051603D01*
X39777733Y-58217370D01*
X39668500Y-58481081D01*
X39668500Y-58766521D01*
X39777733Y-59030232D01*
X39979569Y-59232068D01*
X40243280Y-59341301D01*
X40528720Y-59341301D01*
X40746938Y-59250912D01*
X40643017Y-59354833D01*
X40709364Y-59421180D01*
X40550066Y-59530324D01*
X40416905Y-59996714D01*
X40472359Y-60478562D01*
X40550066Y-60666162D01*
X40709365Y-60775307D01*
X41386429Y-60098243D01*
X41925245Y-60098243D01*
X42602309Y-60775307D01*
X42761608Y-60666162D01*
X42894769Y-60199772D01*
X42839315Y-59717924D01*
X42761608Y-59530324D01*
X42602309Y-59421179D01*
X41925245Y-60098243D01*
X41386429Y-60098243D01*
X41372287Y-60084101D01*
X41641695Y-59814693D01*
X41655837Y-59828835D01*
X42332901Y-59151771D01*
X42223756Y-58992472D01*
X41757366Y-58859311D01*
X41275518Y-58914765D01*
X41087918Y-58992472D01*
X40978774Y-59151770D01*
X40925752Y-59098748D01*
X40994267Y-59030232D01*
X41103500Y-58766521D01*
X41103500Y-58481081D01*
X40994267Y-58217370D01*
X40828500Y-58051603D01*
X40828500Y-57401582D01*
X40837169Y-57358000D01*
X40802826Y-57185345D01*
X40729712Y-57075922D01*
X40705025Y-57038975D01*
X40668077Y-57014288D01*
X39249300Y-55595512D01*
X39249300Y-55361080D01*
X39140067Y-55097369D01*
X38938231Y-54895533D01*
X38674520Y-54786300D01*
X38389080Y-54786300D01*
X38125369Y-54895533D01*
X37923533Y-55097369D01*
X37814300Y-55361080D01*
X32347234Y-55361080D01*
X32591720Y-55197720D01*
X32849760Y-54811536D01*
X32940372Y-54356000D01*
X32849760Y-53900464D01*
X32591720Y-53514280D01*
X32205536Y-53256240D01*
X31864985Y-53188500D01*
X31635015Y-53188500D01*
X31294464Y-53256240D01*
X30908280Y-53514280D01*
X30650240Y-53900464D01*
X30559628Y-54356000D01*
X29844746Y-54356000D01*
X30177687Y-54023059D01*
X30429037Y-53416247D01*
X30429037Y-52759439D01*
X30190825Y-52184344D01*
X30642129Y-52184344D01*
X30706143Y-52338936D01*
X30985721Y-52698597D01*
X31381653Y-52923890D01*
X31559500Y-52888497D01*
X31559500Y-52006500D01*
X31940500Y-52006500D01*
X31940500Y-52888497D01*
X32118347Y-52923890D01*
X32407354Y-52759439D01*
X33070637Y-52759439D01*
X33070637Y-53416247D01*
X33321987Y-54023059D01*
X33786421Y-54487493D01*
X34393233Y-54738843D01*
X35050041Y-54738843D01*
X35656853Y-54487493D01*
X36121287Y-54023059D01*
X36372637Y-53416247D01*
X36372637Y-52759439D01*
X36265144Y-52499927D01*
X36876747Y-52499927D01*
X36876747Y-52785367D01*
X36985980Y-53049078D01*
X37187816Y-53250914D01*
X37451527Y-53360147D01*
X37736967Y-53360147D01*
X38000678Y-53250914D01*
X38166445Y-53085147D01*
X38209959Y-53085147D01*
X38301553Y-53176741D01*
X38301553Y-53411173D01*
X38410786Y-53674884D01*
X38612622Y-53876720D01*
X38876333Y-53985953D01*
X39161773Y-53985953D01*
X39425484Y-53876720D01*
X39627320Y-53674884D01*
X39736553Y-53411173D01*
X39736553Y-53125733D01*
X39627320Y-52862022D01*
X39425484Y-52660186D01*
X39161773Y-52550953D01*
X38927341Y-52550953D01*
X38811228Y-52434839D01*
X38899388Y-52346679D01*
X39418538Y-52346679D01*
X39729982Y-52658124D01*
X39729982Y-52892555D01*
X39839215Y-53156266D01*
X40041051Y-53358102D01*
X40304762Y-53467335D01*
X40590202Y-53467335D01*
X40853913Y-53358102D01*
X41055749Y-53156266D01*
X41164982Y-52892555D01*
X41164982Y-52759439D01*
X41859037Y-52759439D01*
X41859037Y-53416247D01*
X42110387Y-54023059D01*
X42574821Y-54487493D01*
X43181633Y-54738843D01*
X43838441Y-54738843D01*
X44445253Y-54487493D01*
X44909687Y-54023059D01*
X45161037Y-53416247D01*
X45161037Y-52759439D01*
X44909687Y-52152627D01*
X44445253Y-51688193D01*
X43838441Y-51436843D01*
X43181633Y-51436843D01*
X42574821Y-51688193D01*
X42110387Y-52152627D01*
X41859037Y-52759439D01*
X41164982Y-52759439D01*
X41164982Y-52607115D01*
X41055749Y-52343404D01*
X40853913Y-52141568D01*
X40590202Y-52032335D01*
X40355771Y-52032335D01*
X39945542Y-51622107D01*
X39920851Y-51585154D01*
X39774481Y-51487353D01*
X39645408Y-51461679D01*
X39601826Y-51453010D01*
X39558244Y-51461679D01*
X38899388Y-51461679D01*
X38733621Y-51295912D01*
X38469910Y-51186679D01*
X38184470Y-51186679D01*
X37920759Y-51295912D01*
X37718923Y-51497748D01*
X37609690Y-51761459D01*
X37609690Y-51925147D01*
X37451527Y-51925147D01*
X37187816Y-52034380D01*
X36985980Y-52236216D01*
X36876747Y-52499927D01*
X36265144Y-52499927D01*
X36121287Y-52152627D01*
X35656853Y-51688193D01*
X35050041Y-51436843D01*
X34393233Y-51436843D01*
X33786421Y-51688193D01*
X33321987Y-52152627D01*
X33070637Y-52759439D01*
X32407354Y-52759439D01*
X32514279Y-52698597D01*
X32793857Y-52338936D01*
X32857871Y-52184344D01*
X32821320Y-52006500D01*
X31940500Y-52006500D01*
X31559500Y-52006500D01*
X30678680Y-52006500D01*
X30642129Y-52184344D01*
X30190825Y-52184344D01*
X30177687Y-52152627D01*
X29713253Y-51688193D01*
X29132546Y-51447656D01*
X30642129Y-51447656D01*
X30678680Y-51625500D01*
X31559500Y-51625500D01*
X31559500Y-50743503D01*
X31940500Y-50743503D01*
X31940500Y-51625500D01*
X32821320Y-51625500D01*
X32857871Y-51447656D01*
X32793857Y-51293064D01*
X32514279Y-50933403D01*
X32118347Y-50708110D01*
X31940500Y-50743503D01*
X31559500Y-50743503D01*
X31381653Y-50708110D01*
X30985721Y-50933403D01*
X30706143Y-51293064D01*
X30642129Y-51447656D01*
X29132546Y-51447656D01*
X29106441Y-51436843D01*
X28449633Y-51436843D01*
X27842821Y-51688193D01*
X27378387Y-52152627D01*
X27127037Y-52759439D01*
X21640637Y-52759439D01*
X21389287Y-52152627D01*
X20924853Y-51688193D01*
X20318041Y-51436843D01*
X19661233Y-51436843D01*
X19054421Y-51688193D01*
X18589987Y-52152627D01*
X18338637Y-52759439D01*
X18147500Y-52759439D01*
X18147500Y-48627500D01*
X45352500Y-48627500D01*
X45352501Y-60081792D01*
G36*
X74410101Y-76594500D02*
X47205100Y-76594500D01*
X47205100Y-67141880D01*
X51022300Y-67141880D01*
X51022300Y-67427320D01*
X51131533Y-67691031D01*
X51333369Y-67892867D01*
X51597080Y-68002100D01*
X51805301Y-68002100D01*
X51805300Y-68871402D01*
X51639533Y-69037169D01*
X51530300Y-69300880D01*
X51530300Y-69586320D01*
X51639533Y-69850031D01*
X51841369Y-70051867D01*
X52105080Y-70161100D01*
X52390520Y-70161100D01*
X52654231Y-70051867D01*
X52856067Y-69850031D01*
X52965300Y-69586320D01*
X52965300Y-69300880D01*
X52856067Y-69037169D01*
X52690300Y-68871402D01*
X52690300Y-67836180D01*
X52698969Y-67792599D01*
X52683547Y-67715067D01*
X52664626Y-67619945D01*
X52566825Y-67473575D01*
X52529874Y-67448885D01*
X52457300Y-67376311D01*
X52457300Y-67141880D01*
X52348067Y-66878169D01*
X52146231Y-66676333D01*
X51882520Y-66567100D01*
X51597080Y-66567100D01*
X51333369Y-66676333D01*
X51131533Y-66878169D01*
X51022300Y-67141880D01*
X47205100Y-67141880D01*
X47205100Y-65902208D01*
X47198039Y-65866710D01*
X47198039Y-65866704D01*
X47155503Y-65652861D01*
X47155503Y-65652859D01*
X47100630Y-65520385D01*
X47100630Y-65520384D01*
X47100629Y-65520383D01*
X46979498Y-65339101D01*
X46979497Y-65339098D01*
X46901100Y-65260700D01*
X46901100Y-65049820D01*
X46971843Y-64979077D01*
X47096300Y-64678611D01*
X47096300Y-64353389D01*
X46971843Y-64052923D01*
X46901100Y-63982180D01*
X46901100Y-63525820D01*
X46971843Y-63455077D01*
X47096300Y-63154611D01*
X47096300Y-62829389D01*
X46971843Y-62528923D01*
X46901100Y-62458180D01*
X46901100Y-62382400D01*
X47425228Y-62382400D01*
X47515840Y-62837936D01*
X47773880Y-63224120D01*
X48160064Y-63482160D01*
X48500615Y-63549900D01*
X48730585Y-63549900D01*
X49071136Y-63482160D01*
X49457320Y-63224120D01*
X49715360Y-62837936D01*
X49805972Y-62382400D01*
X49715360Y-61926864D01*
X49707976Y-61915813D01*
X49973890Y-61649899D01*
X50240902Y-61649899D01*
X50055840Y-61926864D01*
X49965228Y-62382400D01*
X50055840Y-62837936D01*
X50313880Y-63224120D01*
X50700064Y-63482160D01*
X51040615Y-63549900D01*
X51270585Y-63549900D01*
X51611136Y-63482160D01*
X51622187Y-63474776D01*
X55053686Y-66906275D01*
X55078375Y-66943225D01*
X55224745Y-67041026D01*
X55353818Y-67066700D01*
X55397399Y-67075369D01*
X55440980Y-67066700D01*
X57804100Y-67066700D01*
X57804100Y-67122520D01*
X57913333Y-67386231D01*
X58115169Y-67588067D01*
X58378880Y-67697300D01*
X58664320Y-67697300D01*
X58928031Y-67588067D01*
X59129867Y-67386231D01*
X59239100Y-67122520D01*
X59239100Y-66837080D01*
X59129867Y-66573369D01*
X58928031Y-66371533D01*
X58664320Y-66262300D01*
X58420858Y-66262300D01*
X58338655Y-66207374D01*
X58209582Y-66181700D01*
X58166000Y-66173031D01*
X58122418Y-66181700D01*
X55580689Y-66181700D01*
X52955108Y-63556120D01*
X54545600Y-63556120D01*
X54669482Y-63531478D01*
X54774505Y-63461305D01*
X54844678Y-63356282D01*
X54869320Y-63232400D01*
X54869320Y-61649899D01*
X60586109Y-61649899D01*
X70541484Y-71605275D01*
X70566173Y-71642225D01*
X70696986Y-71729631D01*
X70712543Y-71740026D01*
X70885198Y-71774369D01*
X70928780Y-71765700D01*
X71843202Y-71765700D01*
X72008969Y-71931467D01*
X72272680Y-72040700D01*
X72558120Y-72040700D01*
X72821831Y-71931467D01*
X73023667Y-71729631D01*
X73132900Y-71465920D01*
X73132900Y-71180480D01*
X73023667Y-70916769D01*
X72821831Y-70714933D01*
X72558120Y-70605700D01*
X72272680Y-70605700D01*
X72008969Y-70714933D01*
X71843202Y-70880700D01*
X71068487Y-70880700D01*
X67974723Y-67786937D01*
X68148231Y-67715067D01*
X68350067Y-67513231D01*
X68459300Y-67249520D01*
X68459300Y-66964080D01*
X68362100Y-66729419D01*
X68362100Y-63556120D01*
X68769600Y-63556120D01*
X68893482Y-63531478D01*
X68998505Y-63461305D01*
X69068678Y-63356282D01*
X69093320Y-63232400D01*
X69093320Y-62750747D01*
X69351710Y-62750747D01*
X69577003Y-63146679D01*
X69936664Y-63426257D01*
X70091256Y-63490271D01*
X70269100Y-63453720D01*
X70269100Y-62572900D01*
X70650100Y-62572900D01*
X70650100Y-63453720D01*
X70827944Y-63490271D01*
X70982536Y-63426257D01*
X71342197Y-63146679D01*
X71567490Y-62750747D01*
X71891710Y-62750747D01*
X72117003Y-63146679D01*
X72476664Y-63426257D01*
X72631256Y-63490271D01*
X72809100Y-63453720D01*
X72809100Y-62572900D01*
X73190100Y-62572900D01*
X73190100Y-63453720D01*
X73367944Y-63490271D01*
X73522536Y-63426257D01*
X73882197Y-63146679D01*
X74107490Y-62750747D01*
X74072097Y-62572900D01*
X73190100Y-62572900D01*
X72809100Y-62572900D01*
X71927103Y-62572900D01*
X71891710Y-62750747D01*
X71567490Y-62750747D01*
X71532097Y-62572900D01*
X70650100Y-62572900D01*
X70269100Y-62572900D01*
X69387103Y-62572900D01*
X69351710Y-62750747D01*
X69093320Y-62750747D01*
X69093320Y-62014053D01*
X69351710Y-62014053D01*
X69387103Y-62191900D01*
X70269100Y-62191900D01*
X70269100Y-61311080D01*
X70650100Y-61311080D01*
X70650100Y-62191900D01*
X71532097Y-62191900D01*
X71567490Y-62014053D01*
X71891710Y-62014053D01*
X71927103Y-62191900D01*
X72809100Y-62191900D01*
X72809100Y-61311080D01*
X73190100Y-61311080D01*
X73190100Y-62191900D01*
X74072097Y-62191900D01*
X74107490Y-62014053D01*
X73882197Y-61618121D01*
X73522536Y-61338543D01*
X73367944Y-61274529D01*
X73190100Y-61311080D01*
X72809100Y-61311080D01*
X72631256Y-61274529D01*
X72476664Y-61338543D01*
X72117003Y-61618121D01*
X71891710Y-62014053D01*
X71567490Y-62014053D01*
X71342197Y-61618121D01*
X70982536Y-61338543D01*
X70827944Y-61274529D01*
X70650100Y-61311080D01*
X70269100Y-61311080D01*
X70091256Y-61274529D01*
X69936664Y-61338543D01*
X69577003Y-61618121D01*
X69351710Y-62014053D01*
X69093320Y-62014053D01*
X69093320Y-61532400D01*
X69068678Y-61408518D01*
X68998505Y-61303495D01*
X68893482Y-61233322D01*
X68769600Y-61208680D01*
X67069600Y-61208680D01*
X66945718Y-61233322D01*
X66840695Y-61303495D01*
X66770522Y-61408518D01*
X66745880Y-61532400D01*
X66745880Y-63232400D01*
X66770522Y-63356282D01*
X66840695Y-63461305D01*
X66945718Y-63531478D01*
X67069600Y-63556120D01*
X67477100Y-63556120D01*
X67477101Y-66439826D01*
X67335369Y-66498533D01*
X67133533Y-66700369D01*
X67061663Y-66873877D01*
X61113113Y-60925327D01*
X61088422Y-60888374D01*
X60942052Y-60790573D01*
X60812979Y-60764899D01*
X60769397Y-60756230D01*
X60725815Y-60764899D01*
X49834181Y-60764899D01*
X49790600Y-60756230D01*
X49747019Y-60764899D01*
X49617946Y-60790573D01*
X49471576Y-60888374D01*
X49446887Y-60925325D01*
X49082187Y-61290024D01*
X49071136Y-61282640D01*
X48730585Y-61214900D01*
X48500615Y-61214900D01*
X48160064Y-61282640D01*
X47773880Y-61540680D01*
X47515840Y-61926864D01*
X47425228Y-62382400D01*
X46901100Y-62382400D01*
X46901100Y-62001820D01*
X46971843Y-61931077D01*
X47096300Y-61630611D01*
X47096300Y-61305389D01*
X46971843Y-61004923D01*
X46901100Y-60934180D01*
X46901100Y-60723300D01*
X46979497Y-60644902D01*
X46979498Y-60644899D01*
X47100629Y-60463617D01*
X47100630Y-60463616D01*
X47139807Y-60369034D01*
X47155503Y-60331141D01*
X47155503Y-60331139D01*
X47198039Y-60117296D01*
X47198039Y-60117290D01*
X47205100Y-60081792D01*
X47205100Y-56046000D01*
X59532280Y-56046000D01*
X59532280Y-57746000D01*
X59556922Y-57869882D01*
X59627095Y-57974905D01*
X59732118Y-58045078D01*
X59856000Y-58069720D01*
X61556000Y-58069720D01*
X61679882Y-58045078D01*
X61784905Y-57974905D01*
X61855078Y-57869882D01*
X61879720Y-57746000D01*
X61879720Y-56926000D01*
X63681228Y-56926000D01*
X63771840Y-57381536D01*
X64029880Y-57767720D01*
X64416064Y-58025760D01*
X64756615Y-58093500D01*
X64986585Y-58093500D01*
X65327136Y-58025760D01*
X65713320Y-57767720D01*
X65971360Y-57381536D01*
X66061972Y-56926000D01*
X65971360Y-56470464D01*
X65713320Y-56084280D01*
X65327136Y-55826240D01*
X64986585Y-55758500D01*
X64756615Y-55758500D01*
X64416064Y-55826240D01*
X64029880Y-56084280D01*
X63771840Y-56470464D01*
X63681228Y-56926000D01*
X61879720Y-56926000D01*
X61879720Y-56046000D01*
X61855078Y-55922118D01*
X61784905Y-55817095D01*
X61679882Y-55746922D01*
X61556000Y-55722280D01*
X59856000Y-55722280D01*
X59732118Y-55746922D01*
X59627095Y-55817095D01*
X59556922Y-55922118D01*
X59532280Y-56046000D01*
X47205100Y-56046000D01*
X47205100Y-54356000D01*
X59515628Y-54356000D01*
X59606240Y-54811536D01*
X59864280Y-55197720D01*
X60250464Y-55455760D01*
X60591015Y-55523500D01*
X60820985Y-55523500D01*
X61161536Y-55455760D01*
X61547720Y-55197720D01*
X61805760Y-54811536D01*
X61890404Y-54386000D01*
X63681228Y-54386000D01*
X63771840Y-54841536D01*
X64029880Y-55227720D01*
X64416064Y-55485760D01*
X64756615Y-55553500D01*
X64986585Y-55553500D01*
X65327136Y-55485760D01*
X65713320Y-55227720D01*
X65971360Y-54841536D01*
X66061972Y-54386000D01*
X65971360Y-53930464D01*
X65713320Y-53544280D01*
X65327136Y-53286240D01*
X64986585Y-53218500D01*
X64756615Y-53218500D01*
X64416064Y-53286240D01*
X64029880Y-53544280D01*
X63771840Y-53930464D01*
X63681228Y-54386000D01*
X61890404Y-54386000D01*
X61896372Y-54356000D01*
X61805760Y-53900464D01*
X61547720Y-53514280D01*
X61161536Y-53256240D01*
X60820985Y-53188500D01*
X60591015Y-53188500D01*
X60250464Y-53256240D01*
X59864280Y-53514280D01*
X59606240Y-53900464D01*
X59515628Y-54356000D01*
X47205100Y-54356000D01*
X47205100Y-52184344D01*
X59598129Y-52184344D01*
X59662143Y-52338936D01*
X59941721Y-52698597D01*
X60337653Y-52923890D01*
X60515500Y-52888497D01*
X60515500Y-52006500D01*
X60896500Y-52006500D01*
X60896500Y-52888497D01*
X61074347Y-52923890D01*
X61470279Y-52698597D01*
X61749857Y-52338936D01*
X61813871Y-52184344D01*
X61799800Y-52115875D01*
X63704100Y-52115875D01*
X63704100Y-52759154D01*
X63752436Y-52875849D01*
X63841750Y-52965163D01*
X63958445Y-53013500D01*
X64601725Y-53013500D01*
X64681100Y-52934125D01*
X64681100Y-52036500D01*
X65062100Y-52036500D01*
X65062100Y-52934125D01*
X65141475Y-53013500D01*
X65784755Y-53013500D01*
X65901450Y-52965163D01*
X65990764Y-52875849D01*
X66039100Y-52759154D01*
X66039100Y-52115875D01*
X65959725Y-52036500D01*
X65062100Y-52036500D01*
X64681100Y-52036500D01*
X63783475Y-52036500D01*
X63704100Y-52115875D01*
X61799800Y-52115875D01*
X61777320Y-52006500D01*
X60896500Y-52006500D01*
X60515500Y-52006500D01*
X59634680Y-52006500D01*
X59598129Y-52184344D01*
X47205100Y-52184344D01*
X47205100Y-51447656D01*
X59598129Y-51447656D01*
X59634680Y-51625500D01*
X60515500Y-51625500D01*
X60515500Y-50743503D01*
X60896500Y-50743503D01*
X60896500Y-51625500D01*
X61777320Y-51625500D01*
X61813871Y-51447656D01*
X61749857Y-51293064D01*
X61470279Y-50933403D01*
X61469301Y-50932846D01*
X63704100Y-50932846D01*
X63704100Y-51576125D01*
X63783475Y-51655500D01*
X64681100Y-51655500D01*
X64681100Y-50757875D01*
X65062100Y-50757875D01*
X65062100Y-51655500D01*
X65959725Y-51655500D01*
X66039100Y-51576125D01*
X66039100Y-50932846D01*
X65990764Y-50816151D01*
X65901450Y-50726837D01*
X65784755Y-50678500D01*
X65141475Y-50678500D01*
X65062100Y-50757875D01*
X64681100Y-50757875D01*
X64601725Y-50678500D01*
X63958445Y-50678500D01*
X63841750Y-50726837D01*
X63752436Y-50816151D01*
X63704100Y-50932846D01*
X61469301Y-50932846D01*
X61074347Y-50708110D01*
X60896500Y-50743503D01*
X60515500Y-50743503D01*
X60337653Y-50708110D01*
X59941721Y-50933403D01*
X59662143Y-51293064D01*
X59598129Y-51447656D01*
X47205100Y-51447656D01*
X47205100Y-48627500D01*
X74410100Y-48627500D01*
X74410101Y-76594500D01*
X74410101Y-76594500D01*
G37*
X74410101Y-76594500D02*
X47205100Y-76594500D01*
X47205100Y-67141880D01*
X51022300Y-67141880D01*
X51022300Y-67427320D01*
X51131533Y-67691031D01*
X51333369Y-67892867D01*
X51597080Y-68002100D01*
X51805301Y-68002100D01*
X51805300Y-68871402D01*
X51639533Y-69037169D01*
X51530300Y-69300880D01*
X51530300Y-69586320D01*
X51639533Y-69850031D01*
X51841369Y-70051867D01*
X52105080Y-70161100D01*
X52390520Y-70161100D01*
X52654231Y-70051867D01*
X52856067Y-69850031D01*
X52965300Y-69586320D01*
X52965300Y-69300880D01*
X52856067Y-69037169D01*
X52690300Y-68871402D01*
X52690300Y-67836180D01*
X52698969Y-67792599D01*
X52683547Y-67715067D01*
X52664626Y-67619945D01*
X52566825Y-67473575D01*
X52529874Y-67448885D01*
X52457300Y-67376311D01*
X52457300Y-67141880D01*
X52348067Y-66878169D01*
X52146231Y-66676333D01*
X51882520Y-66567100D01*
X51597080Y-66567100D01*
X51333369Y-66676333D01*
X51131533Y-66878169D01*
X51022300Y-67141880D01*
X47205100Y-67141880D01*
X47205100Y-65902208D01*
X47198039Y-65866710D01*
X47198039Y-65866704D01*
X47155503Y-65652861D01*
X47155503Y-65652859D01*
X47100630Y-65520385D01*
X47100630Y-65520384D01*
X47100629Y-65520383D01*
X46979498Y-65339101D01*
X46979497Y-65339098D01*
X46901100Y-65260700D01*
X46901100Y-65049820D01*
X46971843Y-64979077D01*
X47096300Y-64678611D01*
X47096300Y-64353389D01*
X46971843Y-64052923D01*
X46901100Y-63982180D01*
X46901100Y-63525820D01*
X46971843Y-63455077D01*
X47096300Y-63154611D01*
X47096300Y-62829389D01*
X46971843Y-62528923D01*
X46901100Y-62458180D01*
X46901100Y-62382400D01*
X47425228Y-62382400D01*
X47515840Y-62837936D01*
X47773880Y-63224120D01*
X48160064Y-63482160D01*
X48500615Y-63549900D01*
X48730585Y-63549900D01*
X49071136Y-63482160D01*
X49457320Y-63224120D01*
X49715360Y-62837936D01*
X49805972Y-62382400D01*
X49715360Y-61926864D01*
X49707976Y-61915813D01*
X49973890Y-61649899D01*
X50240902Y-61649899D01*
X50055840Y-61926864D01*
X49965228Y-62382400D01*
X50055840Y-62837936D01*
X50313880Y-63224120D01*
X50700064Y-63482160D01*
X51040615Y-63549900D01*
X51270585Y-63549900D01*
X51611136Y-63482160D01*
X51622187Y-63474776D01*
X55053686Y-66906275D01*
X55078375Y-66943225D01*
X55224745Y-67041026D01*
X55353818Y-67066700D01*
X55397399Y-67075369D01*
X55440980Y-67066700D01*
X57804100Y-67066700D01*
X57804100Y-67122520D01*
X57913333Y-67386231D01*
X58115169Y-67588067D01*
X58378880Y-67697300D01*
X58664320Y-67697300D01*
X58928031Y-67588067D01*
X59129867Y-67386231D01*
X59239100Y-67122520D01*
X59239100Y-66837080D01*
X59129867Y-66573369D01*
X58928031Y-66371533D01*
X58664320Y-66262300D01*
X58420858Y-66262300D01*
X58338655Y-66207374D01*
X58209582Y-66181700D01*
X58166000Y-66173031D01*
X58122418Y-66181700D01*
X55580689Y-66181700D01*
X52955108Y-63556120D01*
X54545600Y-63556120D01*
X54669482Y-63531478D01*
X54774505Y-63461305D01*
X54844678Y-63356282D01*
X54869320Y-63232400D01*
X54869320Y-61649899D01*
X60586109Y-61649899D01*
X70541484Y-71605275D01*
X70566173Y-71642225D01*
X70696986Y-71729631D01*
X70712543Y-71740026D01*
X70885198Y-71774369D01*
X70928780Y-71765700D01*
X71843202Y-71765700D01*
X72008969Y-71931467D01*
X72272680Y-72040700D01*
X72558120Y-72040700D01*
X72821831Y-71931467D01*
X73023667Y-71729631D01*
X73132900Y-71465920D01*
X73132900Y-71180480D01*
X73023667Y-70916769D01*
X72821831Y-70714933D01*
X72558120Y-70605700D01*
X72272680Y-70605700D01*
X72008969Y-70714933D01*
X71843202Y-70880700D01*
X71068487Y-70880700D01*
X67974723Y-67786937D01*
X68148231Y-67715067D01*
X68350067Y-67513231D01*
X68459300Y-67249520D01*
X68459300Y-66964080D01*
X68362100Y-66729419D01*
X68362100Y-63556120D01*
X68769600Y-63556120D01*
X68893482Y-63531478D01*
X68998505Y-63461305D01*
X69068678Y-63356282D01*
X69093320Y-63232400D01*
X69093320Y-62750747D01*
X69351710Y-62750747D01*
X69577003Y-63146679D01*
X69936664Y-63426257D01*
X70091256Y-63490271D01*
X70269100Y-63453720D01*
X70269100Y-62572900D01*
X70650100Y-62572900D01*
X70650100Y-63453720D01*
X70827944Y-63490271D01*
X70982536Y-63426257D01*
X71342197Y-63146679D01*
X71567490Y-62750747D01*
X71891710Y-62750747D01*
X72117003Y-63146679D01*
X72476664Y-63426257D01*
X72631256Y-63490271D01*
X72809100Y-63453720D01*
X72809100Y-62572900D01*
X73190100Y-62572900D01*
X73190100Y-63453720D01*
X73367944Y-63490271D01*
X73522536Y-63426257D01*
X73882197Y-63146679D01*
X74107490Y-62750747D01*
X74072097Y-62572900D01*
X73190100Y-62572900D01*
X72809100Y-62572900D01*
X71927103Y-62572900D01*
X71891710Y-62750747D01*
X71567490Y-62750747D01*
X71532097Y-62572900D01*
X70650100Y-62572900D01*
X70269100Y-62572900D01*
X69387103Y-62572900D01*
X69351710Y-62750747D01*
X69093320Y-62750747D01*
X69093320Y-62014053D01*
X69351710Y-62014053D01*
X69387103Y-62191900D01*
X70269100Y-62191900D01*
X70269100Y-61311080D01*
X70650100Y-61311080D01*
X70650100Y-62191900D01*
X71532097Y-62191900D01*
X71567490Y-62014053D01*
X71891710Y-62014053D01*
X71927103Y-62191900D01*
X72809100Y-62191900D01*
X72809100Y-61311080D01*
X73190100Y-61311080D01*
X73190100Y-62191900D01*
X74072097Y-62191900D01*
X74107490Y-62014053D01*
X73882197Y-61618121D01*
X73522536Y-61338543D01*
X73367944Y-61274529D01*
X73190100Y-61311080D01*
X72809100Y-61311080D01*
X72631256Y-61274529D01*
X72476664Y-61338543D01*
X72117003Y-61618121D01*
X71891710Y-62014053D01*
X71567490Y-62014053D01*
X71342197Y-61618121D01*
X70982536Y-61338543D01*
X70827944Y-61274529D01*
X70650100Y-61311080D01*
X70269100Y-61311080D01*
X70091256Y-61274529D01*
X69936664Y-61338543D01*
X69577003Y-61618121D01*
X69351710Y-62014053D01*
X69093320Y-62014053D01*
X69093320Y-61532400D01*
X69068678Y-61408518D01*
X68998505Y-61303495D01*
X68893482Y-61233322D01*
X68769600Y-61208680D01*
X67069600Y-61208680D01*
X66945718Y-61233322D01*
X66840695Y-61303495D01*
X66770522Y-61408518D01*
X66745880Y-61532400D01*
X66745880Y-63232400D01*
X66770522Y-63356282D01*
X66840695Y-63461305D01*
X66945718Y-63531478D01*
X67069600Y-63556120D01*
X67477100Y-63556120D01*
X67477101Y-66439826D01*
X67335369Y-66498533D01*
X67133533Y-66700369D01*
X67061663Y-66873877D01*
X61113113Y-60925327D01*
X61088422Y-60888374D01*
X60942052Y-60790573D01*
X60812979Y-60764899D01*
X60769397Y-60756230D01*
X60725815Y-60764899D01*
X49834181Y-60764899D01*
X49790600Y-60756230D01*
X49747019Y-60764899D01*
X49617946Y-60790573D01*
X49471576Y-60888374D01*
X49446887Y-60925325D01*
X49082187Y-61290024D01*
X49071136Y-61282640D01*
X48730585Y-61214900D01*
X48500615Y-61214900D01*
X48160064Y-61282640D01*
X47773880Y-61540680D01*
X47515840Y-61926864D01*
X47425228Y-62382400D01*
X46901100Y-62382400D01*
X46901100Y-62001820D01*
X46971843Y-61931077D01*
X47096300Y-61630611D01*
X47096300Y-61305389D01*
X46971843Y-61004923D01*
X46901100Y-60934180D01*
X46901100Y-60723300D01*
X46979497Y-60644902D01*
X46979498Y-60644899D01*
X47100629Y-60463617D01*
X47100630Y-60463616D01*
X47139807Y-60369034D01*
X47155503Y-60331141D01*
X47155503Y-60331139D01*
X47198039Y-60117296D01*
X47198039Y-60117290D01*
X47205100Y-60081792D01*
X47205100Y-56046000D01*
X59532280Y-56046000D01*
X59532280Y-57746000D01*
X59556922Y-57869882D01*
X59627095Y-57974905D01*
X59732118Y-58045078D01*
X59856000Y-58069720D01*
X61556000Y-58069720D01*
X61679882Y-58045078D01*
X61784905Y-57974905D01*
X61855078Y-57869882D01*
X61879720Y-57746000D01*
X61879720Y-56926000D01*
X63681228Y-56926000D01*
X63771840Y-57381536D01*
X64029880Y-57767720D01*
X64416064Y-58025760D01*
X64756615Y-58093500D01*
X64986585Y-58093500D01*
X65327136Y-58025760D01*
X65713320Y-57767720D01*
X65971360Y-57381536D01*
X66061972Y-56926000D01*
X65971360Y-56470464D01*
X65713320Y-56084280D01*
X65327136Y-55826240D01*
X64986585Y-55758500D01*
X64756615Y-55758500D01*
X64416064Y-55826240D01*
X64029880Y-56084280D01*
X63771840Y-56470464D01*
X63681228Y-56926000D01*
X61879720Y-56926000D01*
X61879720Y-56046000D01*
X61855078Y-55922118D01*
X61784905Y-55817095D01*
X61679882Y-55746922D01*
X61556000Y-55722280D01*
X59856000Y-55722280D01*
X59732118Y-55746922D01*
X59627095Y-55817095D01*
X59556922Y-55922118D01*
X59532280Y-56046000D01*
X47205100Y-56046000D01*
X47205100Y-54356000D01*
X59515628Y-54356000D01*
X59606240Y-54811536D01*
X59864280Y-55197720D01*
X60250464Y-55455760D01*
X60591015Y-55523500D01*
X60820985Y-55523500D01*
X61161536Y-55455760D01*
X61547720Y-55197720D01*
X61805760Y-54811536D01*
X61890404Y-54386000D01*
X63681228Y-54386000D01*
X63771840Y-54841536D01*
X64029880Y-55227720D01*
X64416064Y-55485760D01*
X64756615Y-55553500D01*
X64986585Y-55553500D01*
X65327136Y-55485760D01*
X65713320Y-55227720D01*
X65971360Y-54841536D01*
X66061972Y-54386000D01*
X65971360Y-53930464D01*
X65713320Y-53544280D01*
X65327136Y-53286240D01*
X64986585Y-53218500D01*
X64756615Y-53218500D01*
X64416064Y-53286240D01*
X64029880Y-53544280D01*
X63771840Y-53930464D01*
X63681228Y-54386000D01*
X61890404Y-54386000D01*
X61896372Y-54356000D01*
X61805760Y-53900464D01*
X61547720Y-53514280D01*
X61161536Y-53256240D01*
X60820985Y-53188500D01*
X60591015Y-53188500D01*
X60250464Y-53256240D01*
X59864280Y-53514280D01*
X59606240Y-53900464D01*
X59515628Y-54356000D01*
X47205100Y-54356000D01*
X47205100Y-52184344D01*
X59598129Y-52184344D01*
X59662143Y-52338936D01*
X59941721Y-52698597D01*
X60337653Y-52923890D01*
X60515500Y-52888497D01*
X60515500Y-52006500D01*
X60896500Y-52006500D01*
X60896500Y-52888497D01*
X61074347Y-52923890D01*
X61470279Y-52698597D01*
X61749857Y-52338936D01*
X61813871Y-52184344D01*
X61799800Y-52115875D01*
X63704100Y-52115875D01*
X63704100Y-52759154D01*
X63752436Y-52875849D01*
X63841750Y-52965163D01*
X63958445Y-53013500D01*
X64601725Y-53013500D01*
X64681100Y-52934125D01*
X64681100Y-52036500D01*
X65062100Y-52036500D01*
X65062100Y-52934125D01*
X65141475Y-53013500D01*
X65784755Y-53013500D01*
X65901450Y-52965163D01*
X65990764Y-52875849D01*
X66039100Y-52759154D01*
X66039100Y-52115875D01*
X65959725Y-52036500D01*
X65062100Y-52036500D01*
X64681100Y-52036500D01*
X63783475Y-52036500D01*
X63704100Y-52115875D01*
X61799800Y-52115875D01*
X61777320Y-52006500D01*
X60896500Y-52006500D01*
X60515500Y-52006500D01*
X59634680Y-52006500D01*
X59598129Y-52184344D01*
X47205100Y-52184344D01*
X47205100Y-51447656D01*
X59598129Y-51447656D01*
X59634680Y-51625500D01*
X60515500Y-51625500D01*
X60515500Y-50743503D01*
X60896500Y-50743503D01*
X60896500Y-51625500D01*
X61777320Y-51625500D01*
X61813871Y-51447656D01*
X61749857Y-51293064D01*
X61470279Y-50933403D01*
X61469301Y-50932846D01*
X63704100Y-50932846D01*
X63704100Y-51576125D01*
X63783475Y-51655500D01*
X64681100Y-51655500D01*
X64681100Y-50757875D01*
X65062100Y-50757875D01*
X65062100Y-51655500D01*
X65959725Y-51655500D01*
X66039100Y-51576125D01*
X66039100Y-50932846D01*
X65990764Y-50816151D01*
X65901450Y-50726837D01*
X65784755Y-50678500D01*
X65141475Y-50678500D01*
X65062100Y-50757875D01*
X64681100Y-50757875D01*
X64601725Y-50678500D01*
X63958445Y-50678500D01*
X63841750Y-50726837D01*
X63752436Y-50816151D01*
X63704100Y-50932846D01*
X61469301Y-50932846D01*
X61074347Y-50708110D01*
X60896500Y-50743503D01*
X60515500Y-50743503D01*
X60337653Y-50708110D01*
X59941721Y-50933403D01*
X59662143Y-51293064D01*
X59598129Y-51447656D01*
X47205100Y-51447656D01*
X47205100Y-48627500D01*
X74410100Y-48627500D01*
X74410101Y-76594500D01*
G04 #@! TD*
M02*
