G04 #@! TF.GenerationSoftware,KiCad,Pcbnew,(5.0.1)-4*
G04 #@! TF.CreationDate,2019-03-05T01:58:22+01:00*
G04 #@! TF.ProjectId,1U Headphone,3155204865616470686F6E652E6B6963,rev?*
G04 #@! TF.SameCoordinates,Original*
G04 #@! TF.FileFunction,Legend,Top*
G04 #@! TF.FilePolarity,Positive*
%FSLAX46Y46*%
G04 Gerber Fmt 4.6, Leading zero omitted, Abs format (unit mm)*
G04 Created by KiCad (PCBNEW (5.0.1)-4) date 3/5/2019 1:58:22 AM*
%MOMM*%
%LPD*%
G01*
G04 APERTURE LIST*
%ADD10C,0.120000*%
%ADD11C,0.150000*%
G04 APERTURE END LIST*
D10*
X67127000Y-50765523D02*
X67157952Y-50703619D01*
X67157952Y-50610761D01*
X67127000Y-50517904D01*
X67065095Y-50456000D01*
X67003190Y-50425047D01*
X66879380Y-50394095D01*
X66786523Y-50394095D01*
X66662714Y-50425047D01*
X66600809Y-50456000D01*
X66538904Y-50517904D01*
X66507952Y-50610761D01*
X66507952Y-50672666D01*
X66538904Y-50765523D01*
X66569857Y-50796476D01*
X66786523Y-50796476D01*
X66786523Y-50672666D01*
X66507952Y-51075047D02*
X67157952Y-51075047D01*
X66507952Y-51446476D01*
X67157952Y-51446476D01*
X66507952Y-51756000D02*
X67157952Y-51756000D01*
X67157952Y-51910761D01*
X67127000Y-52003619D01*
X67065095Y-52065523D01*
X67003190Y-52096476D01*
X66879380Y-52127428D01*
X66786523Y-52127428D01*
X66662714Y-52096476D01*
X66600809Y-52065523D01*
X66538904Y-52003619D01*
X66507952Y-51910761D01*
X66507952Y-51756000D01*
X66755571Y-52901238D02*
X66755571Y-53396476D01*
X66507952Y-53148857D02*
X67003190Y-53148857D01*
X66507952Y-54046476D02*
X66507952Y-53675047D01*
X66507952Y-53860761D02*
X67157952Y-53860761D01*
X67065095Y-53798857D01*
X67003190Y-53736952D01*
X66972238Y-53675047D01*
X67096047Y-54294095D02*
X67127000Y-54325047D01*
X67157952Y-54386952D01*
X67157952Y-54541714D01*
X67127000Y-54603619D01*
X67096047Y-54634571D01*
X67034142Y-54665523D01*
X66972238Y-54665523D01*
X66879380Y-54634571D01*
X66507952Y-54263142D01*
X66507952Y-54665523D01*
X67157952Y-54851238D02*
X66507952Y-55067904D01*
X67157952Y-55284571D01*
X66755571Y-55996476D02*
X66755571Y-56491714D01*
X66507952Y-57141714D02*
X66507952Y-56770285D01*
X66507952Y-56956000D02*
X67157952Y-56956000D01*
X67065095Y-56894095D01*
X67003190Y-56832190D01*
X66972238Y-56770285D01*
X67096047Y-57389333D02*
X67127000Y-57420285D01*
X67157952Y-57482190D01*
X67157952Y-57636952D01*
X67127000Y-57698857D01*
X67096047Y-57729809D01*
X67034142Y-57760761D01*
X66972238Y-57760761D01*
X66879380Y-57729809D01*
X66507952Y-57358380D01*
X66507952Y-57760761D01*
X67157952Y-57946476D02*
X66507952Y-58163142D01*
X67157952Y-58379809D01*
G04 #@! TO.C,C1*
X36476400Y-56965667D02*
X36476400Y-56623133D01*
X35456400Y-56965667D02*
X35456400Y-56623133D01*
G04 #@! TO.C,C2*
X35456400Y-50209267D02*
X35456400Y-49866733D01*
X36476400Y-50209267D02*
X36476400Y-49866733D01*
G04 #@! TO.C,C3*
X22102000Y-53874000D02*
X22102000Y-55074000D01*
X22102000Y-58394000D02*
X22102000Y-57194000D01*
X25557563Y-58394000D02*
X22102000Y-58394000D01*
X25557563Y-53874000D02*
X22102000Y-53874000D01*
X26622000Y-54938437D02*
X26622000Y-55074000D01*
X26622000Y-57329563D02*
X26622000Y-57194000D01*
X26622000Y-57329563D02*
X25557563Y-58394000D01*
X26622000Y-54938437D02*
X25557563Y-53874000D01*
X27362000Y-57694000D02*
X26862000Y-57694000D01*
X27112000Y-57944000D02*
X27112000Y-57444000D01*
G04 #@! TO.C,C4*
X27112000Y-52457600D02*
X27112000Y-51957600D01*
X27362000Y-52207600D02*
X26862000Y-52207600D01*
X26622000Y-49452037D02*
X25557563Y-48387600D01*
X26622000Y-51843163D02*
X25557563Y-52907600D01*
X26622000Y-51843163D02*
X26622000Y-51707600D01*
X26622000Y-49452037D02*
X26622000Y-49587600D01*
X25557563Y-48387600D02*
X22102000Y-48387600D01*
X25557563Y-52907600D02*
X22102000Y-52907600D01*
X22102000Y-52907600D02*
X22102000Y-51707600D01*
X22102000Y-48387600D02*
X22102000Y-49587600D01*
G04 #@! TO.C,R1*
X38504400Y-65919533D02*
X38504400Y-66262067D01*
X39524400Y-65919533D02*
X39524400Y-66262067D01*
G04 #@! TO.C,R2*
X44706000Y-65868733D02*
X44706000Y-66211267D01*
X43686000Y-65868733D02*
X43686000Y-66211267D01*
G04 #@! TO.C,R3*
X38051200Y-56965667D02*
X38051200Y-56623133D01*
X37031200Y-56965667D02*
X37031200Y-56623133D01*
G04 #@! TO.C,R4*
X37031200Y-50209267D02*
X37031200Y-49866733D01*
X38051200Y-50209267D02*
X38051200Y-49866733D01*
G04 #@! TO.C,R5*
X51557133Y-65657000D02*
X51899667Y-65657000D01*
X51557133Y-66677000D02*
X51899667Y-66677000D01*
G04 #@! TO.C,R6*
X66060533Y-65657000D02*
X66403067Y-65657000D01*
X66060533Y-66677000D02*
X66403067Y-66677000D01*
G04 #@! TO.C,R7*
X48973200Y-67673067D02*
X48973200Y-67330533D01*
X47953200Y-67673067D02*
X47953200Y-67330533D01*
G04 #@! TO.C,R8*
X62634400Y-67584533D02*
X62634400Y-67927067D01*
X63654400Y-67584533D02*
X63654400Y-67927067D01*
G04 #@! TO.C,R9*
X59158600Y-73006133D02*
X59158600Y-73348667D01*
X58138600Y-73006133D02*
X58138600Y-73348667D01*
G04 #@! TO.C,R10*
X73814400Y-73006133D02*
X73814400Y-73348667D01*
X72794400Y-73006133D02*
X72794400Y-73348667D01*
G04 #@! TO.C,R11*
X58138600Y-69232933D02*
X58138600Y-69575467D01*
X59158600Y-69232933D02*
X59158600Y-69575467D01*
G04 #@! TO.C,R12*
X73763600Y-69575467D02*
X73763600Y-69232933D01*
X72743600Y-69575467D02*
X72743600Y-69232933D01*
D11*
G04 #@! TO.C,U1*
X38456200Y-56223800D02*
X38556200Y-56223800D01*
X38456200Y-51573800D02*
X38656200Y-51573800D01*
X41706200Y-51573800D02*
X41506200Y-51573800D01*
X41706200Y-56223800D02*
X41506200Y-56223800D01*
X38456200Y-56223800D02*
X38456200Y-51573800D01*
X41706200Y-56223800D02*
X41706200Y-51573800D01*
X38556200Y-56223800D02*
X38556200Y-57573800D01*
G04 #@! TO.C,U2*
X51442800Y-67859200D02*
X51442800Y-67909200D01*
X55592800Y-67859200D02*
X55592800Y-68004200D01*
X55592800Y-73009200D02*
X55592800Y-72864200D01*
X51442800Y-73009200D02*
X51442800Y-72864200D01*
X51442800Y-67859200D02*
X55592800Y-67859200D01*
X51442800Y-73009200D02*
X55592800Y-73009200D01*
X51442800Y-67909200D02*
X50042800Y-67909200D01*
G04 #@! TO.C,U3*
X66225600Y-67934600D02*
X64825600Y-67934600D01*
X66225600Y-73034600D02*
X70375600Y-73034600D01*
X66225600Y-67884600D02*
X70375600Y-67884600D01*
X66225600Y-73034600D02*
X66225600Y-72889600D01*
X70375600Y-73034600D02*
X70375600Y-72889600D01*
X70375600Y-67884600D02*
X70375600Y-68029600D01*
X66225600Y-67884600D02*
X66225600Y-67934600D01*
D10*
G04 #@! TO.C,C5*
X53677000Y-58782200D02*
X53677000Y-58282200D01*
X53927000Y-58532200D02*
X53427000Y-58532200D01*
X53187000Y-55776637D02*
X52122563Y-54712200D01*
X53187000Y-58167763D02*
X52122563Y-59232200D01*
X53187000Y-58167763D02*
X53187000Y-58032200D01*
X53187000Y-55776637D02*
X53187000Y-55912200D01*
X52122563Y-54712200D02*
X48667000Y-54712200D01*
X52122563Y-59232200D02*
X48667000Y-59232200D01*
X48667000Y-59232200D02*
X48667000Y-58032200D01*
X48667000Y-54712200D02*
X48667000Y-55912200D01*
G04 #@! TO.C,C6*
X48667000Y-49556000D02*
X48667000Y-50756000D01*
X48667000Y-54076000D02*
X48667000Y-52876000D01*
X52122563Y-54076000D02*
X48667000Y-54076000D01*
X52122563Y-49556000D02*
X48667000Y-49556000D01*
X53187000Y-50620437D02*
X53187000Y-50756000D01*
X53187000Y-53011563D02*
X53187000Y-52876000D01*
X53187000Y-53011563D02*
X52122563Y-54076000D01*
X53187000Y-50620437D02*
X52122563Y-49556000D01*
X53927000Y-53376000D02*
X53427000Y-53376000D01*
X53677000Y-53626000D02*
X53677000Y-53126000D01*
G04 #@! TO.C,C7*
X56140533Y-57482200D02*
X56483067Y-57482200D01*
X56140533Y-56462200D02*
X56483067Y-56462200D01*
G04 #@! TO.C,C8*
X56329733Y-51306000D02*
X56672267Y-51306000D01*
X56329733Y-52326000D02*
X56672267Y-52326000D01*
G04 #@! TO.C,C9*
X43554467Y-56608800D02*
X43211933Y-56608800D01*
X43554467Y-57628800D02*
X43211933Y-57628800D01*
G04 #@! TO.C,C10*
X43223333Y-49121600D02*
X43565867Y-49121600D01*
X43223333Y-50141600D02*
X43565867Y-50141600D01*
G04 #@! TO.C,C11*
X48308800Y-73551867D02*
X48308800Y-73209333D01*
X49328800Y-73551867D02*
X49328800Y-73209333D01*
G04 #@! TO.C,C12*
X56913933Y-66499200D02*
X57256467Y-66499200D01*
X56913933Y-65479200D02*
X57256467Y-65479200D01*
G04 #@! TO.C,C13*
X64559333Y-73708800D02*
X64901867Y-73708800D01*
X64559333Y-74728800D02*
X64901867Y-74728800D01*
G04 #@! TO.C,C14*
X71696733Y-66778600D02*
X72039267Y-66778600D01*
X71696733Y-65758600D02*
X72039267Y-65758600D01*
G04 #@! TO.C,D1*
X67676200Y-55845200D02*
X67676200Y-57845200D01*
X67676200Y-57845200D02*
X71576200Y-57845200D01*
X67676200Y-55845200D02*
X71576200Y-55845200D01*
G04 #@! TO.C,D2*
X67803200Y-50536600D02*
X71703200Y-50536600D01*
X67803200Y-52536600D02*
X71703200Y-52536600D01*
X67803200Y-50536600D02*
X67803200Y-52536600D01*
G04 #@! TO.C,Q1*
X34292000Y-72130800D02*
X34292000Y-73060800D01*
X34292000Y-75290800D02*
X34292000Y-74360800D01*
X34292000Y-75290800D02*
X36452000Y-75290800D01*
X34292000Y-72130800D02*
X35752000Y-72130800D01*
G04 #@! TO.C,Q2*
X38051200Y-72130800D02*
X39511200Y-72130800D01*
X38051200Y-75290800D02*
X40211200Y-75290800D01*
X38051200Y-75290800D02*
X38051200Y-74360800D01*
X38051200Y-72130800D02*
X38051200Y-73060800D01*
G04 #@! TO.C,R13*
X34440400Y-66047467D02*
X34440400Y-65704933D01*
X35460400Y-66047467D02*
X35460400Y-65704933D01*
G04 #@! TO.C,R14*
X28754800Y-66058867D02*
X28754800Y-65716333D01*
X27734800Y-66058867D02*
X27734800Y-65716333D01*
G04 #@! TO.C,R15*
X38504400Y-69678733D02*
X38504400Y-70021267D01*
X39524400Y-69678733D02*
X39524400Y-70021267D01*
G04 #@! TO.C,R16*
X44706000Y-69639333D02*
X44706000Y-69981867D01*
X43686000Y-69639333D02*
X43686000Y-69981867D01*
G04 #@! TO.C,J4*
X63541600Y-50516000D02*
X64871600Y-50516000D01*
X63541600Y-51846000D02*
X63541600Y-50516000D01*
X63541600Y-53116000D02*
X66201600Y-53116000D01*
X66201600Y-53116000D02*
X66201600Y-58256000D01*
X63541600Y-53116000D02*
X63541600Y-58256000D01*
X63541600Y-58256000D02*
X66201600Y-58256000D01*
G04 #@! TO.C,J5*
X33080000Y-55626000D02*
X30420000Y-55626000D01*
X33080000Y-55626000D02*
X33080000Y-50486000D01*
X33080000Y-50486000D02*
X30420000Y-50486000D01*
X30420000Y-55626000D02*
X30420000Y-50486000D01*
X30420000Y-58226000D02*
X30420000Y-56896000D01*
X31750000Y-58226000D02*
X30420000Y-58226000D01*
G04 #@! TO.C,J7*
X25968000Y-62382400D02*
X25968000Y-63712400D01*
X25968000Y-63712400D02*
X24638000Y-63712400D01*
X23368000Y-63712400D02*
X18228000Y-63712400D01*
X18228000Y-61052400D02*
X18228000Y-63712400D01*
X23368000Y-61052400D02*
X18228000Y-61052400D01*
X23368000Y-61052400D02*
X23368000Y-63712400D01*
G04 #@! TO.C,J9*
X40132000Y-63712400D02*
X40132000Y-61052400D01*
X40132000Y-63712400D02*
X45272000Y-63712400D01*
X45272000Y-63712400D02*
X45272000Y-61052400D01*
X40132000Y-61052400D02*
X45272000Y-61052400D01*
X37532000Y-61052400D02*
X38862000Y-61052400D01*
X37532000Y-62382400D02*
X37532000Y-61052400D01*
G04 #@! TO.C,~*
G04 #@! TO.C,C1*
X34786400Y-56911066D02*
X34819733Y-56944400D01*
X34853066Y-57044400D01*
X34853066Y-57111066D01*
X34819733Y-57211066D01*
X34753066Y-57277733D01*
X34686400Y-57311066D01*
X34553066Y-57344400D01*
X34453066Y-57344400D01*
X34319733Y-57311066D01*
X34253066Y-57277733D01*
X34186400Y-57211066D01*
X34153066Y-57111066D01*
X34153066Y-57044400D01*
X34186400Y-56944400D01*
X34219733Y-56911066D01*
X34853066Y-56244400D02*
X34853066Y-56644400D01*
X34853066Y-56444400D02*
X34153066Y-56444400D01*
X34253066Y-56511066D01*
X34319733Y-56577733D01*
X34353066Y-56644400D01*
G04 #@! TO.C,C2*
X34786400Y-50154666D02*
X34819733Y-50188000D01*
X34853066Y-50288000D01*
X34853066Y-50354666D01*
X34819733Y-50454666D01*
X34753066Y-50521333D01*
X34686400Y-50554666D01*
X34553066Y-50588000D01*
X34453066Y-50588000D01*
X34319733Y-50554666D01*
X34253066Y-50521333D01*
X34186400Y-50454666D01*
X34153066Y-50354666D01*
X34153066Y-50288000D01*
X34186400Y-50188000D01*
X34219733Y-50154666D01*
X34219733Y-49888000D02*
X34186400Y-49854666D01*
X34153066Y-49788000D01*
X34153066Y-49621333D01*
X34186400Y-49554666D01*
X34219733Y-49521333D01*
X34286400Y-49488000D01*
X34353066Y-49488000D01*
X34453066Y-49521333D01*
X34853066Y-49921333D01*
X34853066Y-49488000D01*
G04 #@! TO.C,C3*
X20457333Y-58162000D02*
X20424000Y-58195333D01*
X20324000Y-58228666D01*
X20257333Y-58228666D01*
X20157333Y-58195333D01*
X20090666Y-58128666D01*
X20057333Y-58062000D01*
X20024000Y-57928666D01*
X20024000Y-57828666D01*
X20057333Y-57695333D01*
X20090666Y-57628666D01*
X20157333Y-57562000D01*
X20257333Y-57528666D01*
X20324000Y-57528666D01*
X20424000Y-57562000D01*
X20457333Y-57595333D01*
X20690666Y-57528666D02*
X21124000Y-57528666D01*
X20890666Y-57795333D01*
X20990666Y-57795333D01*
X21057333Y-57828666D01*
X21090666Y-57862000D01*
X21124000Y-57928666D01*
X21124000Y-58095333D01*
X21090666Y-58162000D01*
X21057333Y-58195333D01*
X20990666Y-58228666D01*
X20790666Y-58228666D01*
X20724000Y-58195333D01*
X20690666Y-58162000D01*
G04 #@! TO.C,C4*
X20711333Y-49272000D02*
X20678000Y-49305333D01*
X20578000Y-49338666D01*
X20511333Y-49338666D01*
X20411333Y-49305333D01*
X20344666Y-49238666D01*
X20311333Y-49172000D01*
X20278000Y-49038666D01*
X20278000Y-48938666D01*
X20311333Y-48805333D01*
X20344666Y-48738666D01*
X20411333Y-48672000D01*
X20511333Y-48638666D01*
X20578000Y-48638666D01*
X20678000Y-48672000D01*
X20711333Y-48705333D01*
X21311333Y-48872000D02*
X21311333Y-49338666D01*
X21144666Y-48605333D02*
X20978000Y-49105333D01*
X21411333Y-49105333D01*
G04 #@! TO.C,R1*
X37908666Y-66156666D02*
X37575333Y-66390000D01*
X37908666Y-66556666D02*
X37208666Y-66556666D01*
X37208666Y-66290000D01*
X37242000Y-66223333D01*
X37275333Y-66190000D01*
X37342000Y-66156666D01*
X37442000Y-66156666D01*
X37508666Y-66190000D01*
X37542000Y-66223333D01*
X37575333Y-66290000D01*
X37575333Y-66556666D01*
X37908666Y-65490000D02*
X37908666Y-65890000D01*
X37908666Y-65690000D02*
X37208666Y-65690000D01*
X37308666Y-65756666D01*
X37375333Y-65823333D01*
X37408666Y-65890000D01*
G04 #@! TO.C,R2*
X43496666Y-66156666D02*
X43163333Y-66390000D01*
X43496666Y-66556666D02*
X42796666Y-66556666D01*
X42796666Y-66290000D01*
X42830000Y-66223333D01*
X42863333Y-66190000D01*
X42930000Y-66156666D01*
X43030000Y-66156666D01*
X43096666Y-66190000D01*
X43130000Y-66223333D01*
X43163333Y-66290000D01*
X43163333Y-66556666D01*
X42863333Y-65890000D02*
X42830000Y-65856666D01*
X42796666Y-65790000D01*
X42796666Y-65623333D01*
X42830000Y-65556666D01*
X42863333Y-65523333D01*
X42930000Y-65490000D01*
X42996666Y-65490000D01*
X43096666Y-65523333D01*
X43496666Y-65923333D01*
X43496666Y-65490000D01*
G04 #@! TO.C,R3*
X37908666Y-54472666D02*
X37575333Y-54706000D01*
X37908666Y-54872666D02*
X37208666Y-54872666D01*
X37208666Y-54606000D01*
X37242000Y-54539333D01*
X37275333Y-54506000D01*
X37342000Y-54472666D01*
X37442000Y-54472666D01*
X37508666Y-54506000D01*
X37542000Y-54539333D01*
X37575333Y-54606000D01*
X37575333Y-54872666D01*
X37208666Y-54239333D02*
X37208666Y-53806000D01*
X37475333Y-54039333D01*
X37475333Y-53939333D01*
X37508666Y-53872666D01*
X37542000Y-53839333D01*
X37608666Y-53806000D01*
X37775333Y-53806000D01*
X37842000Y-53839333D01*
X37875333Y-53872666D01*
X37908666Y-53939333D01*
X37908666Y-54139333D01*
X37875333Y-54206000D01*
X37842000Y-54239333D01*
G04 #@! TO.C,R4*
X37908666Y-52694666D02*
X37575333Y-52928000D01*
X37908666Y-53094666D02*
X37208666Y-53094666D01*
X37208666Y-52828000D01*
X37242000Y-52761333D01*
X37275333Y-52728000D01*
X37342000Y-52694666D01*
X37442000Y-52694666D01*
X37508666Y-52728000D01*
X37542000Y-52761333D01*
X37575333Y-52828000D01*
X37575333Y-53094666D01*
X37442000Y-52094666D02*
X37908666Y-52094666D01*
X37175333Y-52261333D02*
X37675333Y-52428000D01*
X37675333Y-51994666D01*
G04 #@! TO.C,R5*
X51611733Y-65053666D02*
X51378400Y-64720333D01*
X51211733Y-65053666D02*
X51211733Y-64353666D01*
X51478400Y-64353666D01*
X51545066Y-64387000D01*
X51578400Y-64420333D01*
X51611733Y-64487000D01*
X51611733Y-64587000D01*
X51578400Y-64653666D01*
X51545066Y-64687000D01*
X51478400Y-64720333D01*
X51211733Y-64720333D01*
X52245066Y-64353666D02*
X51911733Y-64353666D01*
X51878400Y-64687000D01*
X51911733Y-64653666D01*
X51978400Y-64620333D01*
X52145066Y-64620333D01*
X52211733Y-64653666D01*
X52245066Y-64687000D01*
X52278400Y-64753666D01*
X52278400Y-64920333D01*
X52245066Y-64987000D01*
X52211733Y-65020333D01*
X52145066Y-65053666D01*
X51978400Y-65053666D01*
X51911733Y-65020333D01*
X51878400Y-64987000D01*
G04 #@! TO.C,R6*
X66115133Y-65053666D02*
X65881800Y-64720333D01*
X65715133Y-65053666D02*
X65715133Y-64353666D01*
X65981800Y-64353666D01*
X66048466Y-64387000D01*
X66081800Y-64420333D01*
X66115133Y-64487000D01*
X66115133Y-64587000D01*
X66081800Y-64653666D01*
X66048466Y-64687000D01*
X65981800Y-64720333D01*
X65715133Y-64720333D01*
X66715133Y-64353666D02*
X66581800Y-64353666D01*
X66515133Y-64387000D01*
X66481800Y-64420333D01*
X66415133Y-64520333D01*
X66381800Y-64653666D01*
X66381800Y-64920333D01*
X66415133Y-64987000D01*
X66448466Y-65020333D01*
X66515133Y-65053666D01*
X66648466Y-65053666D01*
X66715133Y-65020333D01*
X66748466Y-64987000D01*
X66781800Y-64920333D01*
X66781800Y-64753666D01*
X66748466Y-64687000D01*
X66715133Y-64653666D01*
X66648466Y-64620333D01*
X66515133Y-64620333D01*
X66448466Y-64653666D01*
X66415133Y-64687000D01*
X66381800Y-64753666D01*
G04 #@! TO.C,R7*
X48830666Y-64886666D02*
X48497333Y-65120000D01*
X48830666Y-65286666D02*
X48130666Y-65286666D01*
X48130666Y-65020000D01*
X48164000Y-64953333D01*
X48197333Y-64920000D01*
X48264000Y-64886666D01*
X48364000Y-64886666D01*
X48430666Y-64920000D01*
X48464000Y-64953333D01*
X48497333Y-65020000D01*
X48497333Y-65286666D01*
X48130666Y-64653333D02*
X48130666Y-64186666D01*
X48830666Y-64486666D01*
G04 #@! TO.C,R8*
X63562666Y-65140666D02*
X63229333Y-65374000D01*
X63562666Y-65540666D02*
X62862666Y-65540666D01*
X62862666Y-65274000D01*
X62896000Y-65207333D01*
X62929333Y-65174000D01*
X62996000Y-65140666D01*
X63096000Y-65140666D01*
X63162666Y-65174000D01*
X63196000Y-65207333D01*
X63229333Y-65274000D01*
X63229333Y-65540666D01*
X63162666Y-64740666D02*
X63129333Y-64807333D01*
X63096000Y-64840666D01*
X63029333Y-64874000D01*
X62996000Y-64874000D01*
X62929333Y-64840666D01*
X62896000Y-64807333D01*
X62862666Y-64740666D01*
X62862666Y-64607333D01*
X62896000Y-64540666D01*
X62929333Y-64507333D01*
X62996000Y-64474000D01*
X63029333Y-64474000D01*
X63096000Y-64507333D01*
X63129333Y-64540666D01*
X63162666Y-64607333D01*
X63162666Y-64740666D01*
X63196000Y-64807333D01*
X63229333Y-64840666D01*
X63296000Y-64874000D01*
X63429333Y-64874000D01*
X63496000Y-64840666D01*
X63529333Y-64807333D01*
X63562666Y-64740666D01*
X63562666Y-64607333D01*
X63529333Y-64540666D01*
X63496000Y-64507333D01*
X63429333Y-64474000D01*
X63296000Y-64474000D01*
X63229333Y-64507333D01*
X63196000Y-64540666D01*
X63162666Y-64607333D01*
G04 #@! TO.C,R9*
X60395266Y-73294066D02*
X60061933Y-73527400D01*
X60395266Y-73694066D02*
X59695266Y-73694066D01*
X59695266Y-73427400D01*
X59728600Y-73360733D01*
X59761933Y-73327400D01*
X59828600Y-73294066D01*
X59928600Y-73294066D01*
X59995266Y-73327400D01*
X60028600Y-73360733D01*
X60061933Y-73427400D01*
X60061933Y-73694066D01*
X60395266Y-72960733D02*
X60395266Y-72827400D01*
X60361933Y-72760733D01*
X60328600Y-72727400D01*
X60228600Y-72660733D01*
X60095266Y-72627400D01*
X59828600Y-72627400D01*
X59761933Y-72660733D01*
X59728600Y-72694066D01*
X59695266Y-72760733D01*
X59695266Y-72894066D01*
X59728600Y-72960733D01*
X59761933Y-72994066D01*
X59828600Y-73027400D01*
X59995266Y-73027400D01*
X60061933Y-72994066D01*
X60095266Y-72960733D01*
X60128600Y-72894066D01*
X60128600Y-72760733D01*
X60095266Y-72694066D01*
X60061933Y-72660733D01*
X59995266Y-72627400D01*
G04 #@! TO.C,R10*
X73621066Y-76218200D02*
X73287733Y-76451533D01*
X73621066Y-76618200D02*
X72921066Y-76618200D01*
X72921066Y-76351533D01*
X72954400Y-76284866D01*
X72987733Y-76251533D01*
X73054400Y-76218200D01*
X73154400Y-76218200D01*
X73221066Y-76251533D01*
X73254400Y-76284866D01*
X73287733Y-76351533D01*
X73287733Y-76618200D01*
X73621066Y-75551533D02*
X73621066Y-75951533D01*
X73621066Y-75751533D02*
X72921066Y-75751533D01*
X73021066Y-75818200D01*
X73087733Y-75884866D01*
X73121066Y-75951533D01*
X72921066Y-75118200D02*
X72921066Y-75051533D01*
X72954400Y-74984866D01*
X72987733Y-74951533D01*
X73054400Y-74918200D01*
X73187733Y-74884866D01*
X73354400Y-74884866D01*
X73487733Y-74918200D01*
X73554400Y-74951533D01*
X73587733Y-74984866D01*
X73621066Y-75051533D01*
X73621066Y-75118200D01*
X73587733Y-75184866D01*
X73554400Y-75218200D01*
X73487733Y-75251533D01*
X73354400Y-75284866D01*
X73187733Y-75284866D01*
X73054400Y-75251533D01*
X72987733Y-75218200D01*
X72954400Y-75184866D01*
X72921066Y-75118200D01*
G04 #@! TO.C,R11*
X60395266Y-69854200D02*
X60061933Y-70087533D01*
X60395266Y-70254200D02*
X59695266Y-70254200D01*
X59695266Y-69987533D01*
X59728600Y-69920866D01*
X59761933Y-69887533D01*
X59828600Y-69854200D01*
X59928600Y-69854200D01*
X59995266Y-69887533D01*
X60028600Y-69920866D01*
X60061933Y-69987533D01*
X60061933Y-70254200D01*
X60395266Y-69187533D02*
X60395266Y-69587533D01*
X60395266Y-69387533D02*
X59695266Y-69387533D01*
X59795266Y-69454200D01*
X59861933Y-69520866D01*
X59895266Y-69587533D01*
X60395266Y-68520866D02*
X60395266Y-68920866D01*
X60395266Y-68720866D02*
X59695266Y-68720866D01*
X59795266Y-68787533D01*
X59861933Y-68854200D01*
X59895266Y-68920866D01*
G04 #@! TO.C,R12*
X74459266Y-67201200D02*
X74125933Y-67434533D01*
X74459266Y-67601200D02*
X73759266Y-67601200D01*
X73759266Y-67334533D01*
X73792600Y-67267866D01*
X73825933Y-67234533D01*
X73892600Y-67201200D01*
X73992600Y-67201200D01*
X74059266Y-67234533D01*
X74092600Y-67267866D01*
X74125933Y-67334533D01*
X74125933Y-67601200D01*
X74459266Y-66534533D02*
X74459266Y-66934533D01*
X74459266Y-66734533D02*
X73759266Y-66734533D01*
X73859266Y-66801200D01*
X73925933Y-66867866D01*
X73959266Y-66934533D01*
X73825933Y-66267866D02*
X73792600Y-66234533D01*
X73759266Y-66167866D01*
X73759266Y-66001200D01*
X73792600Y-65934533D01*
X73825933Y-65901200D01*
X73892600Y-65867866D01*
X73959266Y-65867866D01*
X74059266Y-65901200D01*
X74459266Y-66301200D01*
X74459266Y-65867866D01*
G04 #@! TO.C,U1*
X39598666Y-48892666D02*
X39598666Y-49459333D01*
X39632000Y-49526000D01*
X39665333Y-49559333D01*
X39732000Y-49592666D01*
X39865333Y-49592666D01*
X39932000Y-49559333D01*
X39965333Y-49526000D01*
X39998666Y-49459333D01*
X39998666Y-48892666D01*
X40698666Y-49592666D02*
X40298666Y-49592666D01*
X40498666Y-49592666D02*
X40498666Y-48892666D01*
X40432000Y-48992666D01*
X40365333Y-49059333D01*
X40298666Y-49092666D01*
G04 #@! TO.C,U2*
X52984466Y-73784666D02*
X52984466Y-74351333D01*
X53017800Y-74418000D01*
X53051133Y-74451333D01*
X53117800Y-74484666D01*
X53251133Y-74484666D01*
X53317800Y-74451333D01*
X53351133Y-74418000D01*
X53384466Y-74351333D01*
X53384466Y-73784666D01*
X53684466Y-73851333D02*
X53717800Y-73818000D01*
X53784466Y-73784666D01*
X53951133Y-73784666D01*
X54017800Y-73818000D01*
X54051133Y-73851333D01*
X54084466Y-73918000D01*
X54084466Y-73984666D01*
X54051133Y-74084666D01*
X53651133Y-74484666D01*
X54084466Y-74484666D01*
G04 #@! TO.C,U3*
X67767266Y-73784666D02*
X67767266Y-74351333D01*
X67800600Y-74418000D01*
X67833933Y-74451333D01*
X67900600Y-74484666D01*
X68033933Y-74484666D01*
X68100600Y-74451333D01*
X68133933Y-74418000D01*
X68167266Y-74351333D01*
X68167266Y-73784666D01*
X68433933Y-73784666D02*
X68867266Y-73784666D01*
X68633933Y-74051333D01*
X68733933Y-74051333D01*
X68800600Y-74084666D01*
X68833933Y-74118000D01*
X68867266Y-74184666D01*
X68867266Y-74351333D01*
X68833933Y-74418000D01*
X68800600Y-74451333D01*
X68733933Y-74484666D01*
X68533933Y-74484666D01*
X68467266Y-74451333D01*
X68433933Y-74418000D01*
G04 #@! TO.C,C5*
X53477333Y-59940000D02*
X53444000Y-59973333D01*
X53344000Y-60006666D01*
X53277333Y-60006666D01*
X53177333Y-59973333D01*
X53110666Y-59906666D01*
X53077333Y-59840000D01*
X53044000Y-59706666D01*
X53044000Y-59606666D01*
X53077333Y-59473333D01*
X53110666Y-59406666D01*
X53177333Y-59340000D01*
X53277333Y-59306666D01*
X53344000Y-59306666D01*
X53444000Y-59340000D01*
X53477333Y-59373333D01*
X54110666Y-59306666D02*
X53777333Y-59306666D01*
X53744000Y-59640000D01*
X53777333Y-59606666D01*
X53844000Y-59573333D01*
X54010666Y-59573333D01*
X54077333Y-59606666D01*
X54110666Y-59640000D01*
X54144000Y-59706666D01*
X54144000Y-59873333D01*
X54110666Y-59940000D01*
X54077333Y-59973333D01*
X54010666Y-60006666D01*
X53844000Y-60006666D01*
X53777333Y-59973333D01*
X53744000Y-59940000D01*
G04 #@! TO.C,C6*
X53477333Y-49526000D02*
X53444000Y-49559333D01*
X53344000Y-49592666D01*
X53277333Y-49592666D01*
X53177333Y-49559333D01*
X53110666Y-49492666D01*
X53077333Y-49426000D01*
X53044000Y-49292666D01*
X53044000Y-49192666D01*
X53077333Y-49059333D01*
X53110666Y-48992666D01*
X53177333Y-48926000D01*
X53277333Y-48892666D01*
X53344000Y-48892666D01*
X53444000Y-48926000D01*
X53477333Y-48959333D01*
X54077333Y-48892666D02*
X53944000Y-48892666D01*
X53877333Y-48926000D01*
X53844000Y-48959333D01*
X53777333Y-49059333D01*
X53744000Y-49192666D01*
X53744000Y-49459333D01*
X53777333Y-49526000D01*
X53810666Y-49559333D01*
X53877333Y-49592666D01*
X54010666Y-49592666D01*
X54077333Y-49559333D01*
X54110666Y-49526000D01*
X54144000Y-49459333D01*
X54144000Y-49292666D01*
X54110666Y-49226000D01*
X54077333Y-49192666D01*
X54010666Y-49159333D01*
X53877333Y-49159333D01*
X53810666Y-49192666D01*
X53777333Y-49226000D01*
X53744000Y-49292666D01*
G04 #@! TO.C,C7*
X56195133Y-55792200D02*
X56161800Y-55825533D01*
X56061800Y-55858866D01*
X55995133Y-55858866D01*
X55895133Y-55825533D01*
X55828466Y-55758866D01*
X55795133Y-55692200D01*
X55761800Y-55558866D01*
X55761800Y-55458866D01*
X55795133Y-55325533D01*
X55828466Y-55258866D01*
X55895133Y-55192200D01*
X55995133Y-55158866D01*
X56061800Y-55158866D01*
X56161800Y-55192200D01*
X56195133Y-55225533D01*
X56428466Y-55158866D02*
X56895133Y-55158866D01*
X56595133Y-55858866D01*
G04 #@! TO.C,C8*
X56384333Y-50636000D02*
X56351000Y-50669333D01*
X56251000Y-50702666D01*
X56184333Y-50702666D01*
X56084333Y-50669333D01*
X56017666Y-50602666D01*
X55984333Y-50536000D01*
X55951000Y-50402666D01*
X55951000Y-50302666D01*
X55984333Y-50169333D01*
X56017666Y-50102666D01*
X56084333Y-50036000D01*
X56184333Y-50002666D01*
X56251000Y-50002666D01*
X56351000Y-50036000D01*
X56384333Y-50069333D01*
X56784333Y-50302666D02*
X56717666Y-50269333D01*
X56684333Y-50236000D01*
X56651000Y-50169333D01*
X56651000Y-50136000D01*
X56684333Y-50069333D01*
X56717666Y-50036000D01*
X56784333Y-50002666D01*
X56917666Y-50002666D01*
X56984333Y-50036000D01*
X57017666Y-50069333D01*
X57051000Y-50136000D01*
X57051000Y-50169333D01*
X57017666Y-50236000D01*
X56984333Y-50269333D01*
X56917666Y-50302666D01*
X56784333Y-50302666D01*
X56717666Y-50336000D01*
X56684333Y-50369333D01*
X56651000Y-50436000D01*
X56651000Y-50569333D01*
X56684333Y-50636000D01*
X56717666Y-50669333D01*
X56784333Y-50702666D01*
X56917666Y-50702666D01*
X56984333Y-50669333D01*
X57017666Y-50636000D01*
X57051000Y-50569333D01*
X57051000Y-50436000D01*
X57017666Y-50369333D01*
X56984333Y-50336000D01*
X56917666Y-50302666D01*
G04 #@! TO.C,C9*
X43266533Y-58798800D02*
X43233200Y-58832133D01*
X43133200Y-58865466D01*
X43066533Y-58865466D01*
X42966533Y-58832133D01*
X42899866Y-58765466D01*
X42866533Y-58698800D01*
X42833200Y-58565466D01*
X42833200Y-58465466D01*
X42866533Y-58332133D01*
X42899866Y-58265466D01*
X42966533Y-58198800D01*
X43066533Y-58165466D01*
X43133200Y-58165466D01*
X43233200Y-58198800D01*
X43266533Y-58232133D01*
X43599866Y-58865466D02*
X43733200Y-58865466D01*
X43799866Y-58832133D01*
X43833200Y-58798800D01*
X43899866Y-58698800D01*
X43933200Y-58565466D01*
X43933200Y-58298800D01*
X43899866Y-58232133D01*
X43866533Y-58198800D01*
X43799866Y-58165466D01*
X43666533Y-58165466D01*
X43599866Y-58198800D01*
X43566533Y-58232133D01*
X43533200Y-58298800D01*
X43533200Y-58465466D01*
X43566533Y-58532133D01*
X43599866Y-58565466D01*
X43666533Y-58598800D01*
X43799866Y-58598800D01*
X43866533Y-58565466D01*
X43899866Y-58532133D01*
X43933200Y-58465466D01*
G04 #@! TO.C,C10*
X42933200Y-51100800D02*
X42899866Y-51134133D01*
X42799866Y-51167466D01*
X42733200Y-51167466D01*
X42633200Y-51134133D01*
X42566533Y-51067466D01*
X42533200Y-51000800D01*
X42499866Y-50867466D01*
X42499866Y-50767466D01*
X42533200Y-50634133D01*
X42566533Y-50567466D01*
X42633200Y-50500800D01*
X42733200Y-50467466D01*
X42799866Y-50467466D01*
X42899866Y-50500800D01*
X42933200Y-50534133D01*
X43599866Y-51167466D02*
X43199866Y-51167466D01*
X43399866Y-51167466D02*
X43399866Y-50467466D01*
X43333200Y-50567466D01*
X43266533Y-50634133D01*
X43199866Y-50667466D01*
X44033200Y-50467466D02*
X44099866Y-50467466D01*
X44166533Y-50500800D01*
X44199866Y-50534133D01*
X44233200Y-50600800D01*
X44266533Y-50734133D01*
X44266533Y-50900800D01*
X44233200Y-51034133D01*
X44199866Y-51100800D01*
X44166533Y-51134133D01*
X44099866Y-51167466D01*
X44033200Y-51167466D01*
X43966533Y-51134133D01*
X43933200Y-51100800D01*
X43899866Y-51034133D01*
X43866533Y-50900800D01*
X43866533Y-50734133D01*
X43899866Y-50600800D01*
X43933200Y-50534133D01*
X43966533Y-50500800D01*
X44033200Y-50467466D01*
G04 #@! TO.C,C11*
X47638800Y-73830600D02*
X47672133Y-73863933D01*
X47705466Y-73963933D01*
X47705466Y-74030600D01*
X47672133Y-74130600D01*
X47605466Y-74197266D01*
X47538800Y-74230600D01*
X47405466Y-74263933D01*
X47305466Y-74263933D01*
X47172133Y-74230600D01*
X47105466Y-74197266D01*
X47038800Y-74130600D01*
X47005466Y-74030600D01*
X47005466Y-73963933D01*
X47038800Y-73863933D01*
X47072133Y-73830600D01*
X47705466Y-73163933D02*
X47705466Y-73563933D01*
X47705466Y-73363933D02*
X47005466Y-73363933D01*
X47105466Y-73430600D01*
X47172133Y-73497266D01*
X47205466Y-73563933D01*
X47705466Y-72497266D02*
X47705466Y-72897266D01*
X47705466Y-72697266D02*
X47005466Y-72697266D01*
X47105466Y-72763933D01*
X47172133Y-72830600D01*
X47205466Y-72897266D01*
G04 #@! TO.C,C12*
X58119800Y-64664400D02*
X58086466Y-64697733D01*
X57986466Y-64731066D01*
X57919800Y-64731066D01*
X57819800Y-64697733D01*
X57753133Y-64631066D01*
X57719800Y-64564400D01*
X57686466Y-64431066D01*
X57686466Y-64331066D01*
X57719800Y-64197733D01*
X57753133Y-64131066D01*
X57819800Y-64064400D01*
X57919800Y-64031066D01*
X57986466Y-64031066D01*
X58086466Y-64064400D01*
X58119800Y-64097733D01*
X58786466Y-64731066D02*
X58386466Y-64731066D01*
X58586466Y-64731066D02*
X58586466Y-64031066D01*
X58519800Y-64131066D01*
X58453133Y-64197733D01*
X58386466Y-64231066D01*
X59053133Y-64097733D02*
X59086466Y-64064400D01*
X59153133Y-64031066D01*
X59319800Y-64031066D01*
X59386466Y-64064400D01*
X59419800Y-64097733D01*
X59453133Y-64164400D01*
X59453133Y-64231066D01*
X59419800Y-64331066D01*
X59019800Y-64731066D01*
X59453133Y-64731066D01*
G04 #@! TO.C,C13*
X64280600Y-75967400D02*
X64247266Y-76000733D01*
X64147266Y-76034066D01*
X64080600Y-76034066D01*
X63980600Y-76000733D01*
X63913933Y-75934066D01*
X63880600Y-75867400D01*
X63847266Y-75734066D01*
X63847266Y-75634066D01*
X63880600Y-75500733D01*
X63913933Y-75434066D01*
X63980600Y-75367400D01*
X64080600Y-75334066D01*
X64147266Y-75334066D01*
X64247266Y-75367400D01*
X64280600Y-75400733D01*
X64947266Y-76034066D02*
X64547266Y-76034066D01*
X64747266Y-76034066D02*
X64747266Y-75334066D01*
X64680600Y-75434066D01*
X64613933Y-75500733D01*
X64547266Y-75534066D01*
X65180600Y-75334066D02*
X65613933Y-75334066D01*
X65380600Y-75600733D01*
X65480600Y-75600733D01*
X65547266Y-75634066D01*
X65580600Y-75667400D01*
X65613933Y-75734066D01*
X65613933Y-75900733D01*
X65580600Y-75967400D01*
X65547266Y-76000733D01*
X65480600Y-76034066D01*
X65280600Y-76034066D01*
X65213933Y-76000733D01*
X65180600Y-75967400D01*
G04 #@! TO.C,C14*
X71432000Y-65147000D02*
X71398666Y-65180333D01*
X71298666Y-65213666D01*
X71232000Y-65213666D01*
X71132000Y-65180333D01*
X71065333Y-65113666D01*
X71032000Y-65047000D01*
X70998666Y-64913666D01*
X70998666Y-64813666D01*
X71032000Y-64680333D01*
X71065333Y-64613666D01*
X71132000Y-64547000D01*
X71232000Y-64513666D01*
X71298666Y-64513666D01*
X71398666Y-64547000D01*
X71432000Y-64580333D01*
X72098666Y-65213666D02*
X71698666Y-65213666D01*
X71898666Y-65213666D02*
X71898666Y-64513666D01*
X71832000Y-64613666D01*
X71765333Y-64680333D01*
X71698666Y-64713666D01*
X72698666Y-64747000D02*
X72698666Y-65213666D01*
X72532000Y-64480333D02*
X72365333Y-64980333D01*
X72798666Y-64980333D01*
G04 #@! TO.C,D1*
X69409533Y-55161866D02*
X69409533Y-54461866D01*
X69576200Y-54461866D01*
X69676200Y-54495200D01*
X69742866Y-54561866D01*
X69776200Y-54628533D01*
X69809533Y-54761866D01*
X69809533Y-54861866D01*
X69776200Y-54995200D01*
X69742866Y-55061866D01*
X69676200Y-55128533D01*
X69576200Y-55161866D01*
X69409533Y-55161866D01*
X70476200Y-55161866D02*
X70076200Y-55161866D01*
X70276200Y-55161866D02*
X70276200Y-54461866D01*
X70209533Y-54561866D01*
X70142866Y-54628533D01*
X70076200Y-54661866D01*
G04 #@! TO.C,D2*
X69536533Y-49853266D02*
X69536533Y-49153266D01*
X69703200Y-49153266D01*
X69803200Y-49186600D01*
X69869866Y-49253266D01*
X69903200Y-49319933D01*
X69936533Y-49453266D01*
X69936533Y-49553266D01*
X69903200Y-49686600D01*
X69869866Y-49753266D01*
X69803200Y-49819933D01*
X69703200Y-49853266D01*
X69536533Y-49853266D01*
X70203200Y-49219933D02*
X70236533Y-49186600D01*
X70303200Y-49153266D01*
X70469866Y-49153266D01*
X70536533Y-49186600D01*
X70569866Y-49219933D01*
X70603200Y-49286600D01*
X70603200Y-49353266D01*
X70569866Y-49453266D01*
X70169866Y-49853266D01*
X70603200Y-49853266D01*
G04 #@! TO.C,Q1*
X32953333Y-73027333D02*
X32886666Y-72994000D01*
X32820000Y-72927333D01*
X32720000Y-72827333D01*
X32653333Y-72794000D01*
X32586666Y-72794000D01*
X32620000Y-72960666D02*
X32553333Y-72927333D01*
X32486666Y-72860666D01*
X32453333Y-72727333D01*
X32453333Y-72494000D01*
X32486666Y-72360666D01*
X32553333Y-72294000D01*
X32620000Y-72260666D01*
X32753333Y-72260666D01*
X32820000Y-72294000D01*
X32886666Y-72360666D01*
X32920000Y-72494000D01*
X32920000Y-72727333D01*
X32886666Y-72860666D01*
X32820000Y-72927333D01*
X32753333Y-72960666D01*
X32620000Y-72960666D01*
X33586666Y-72960666D02*
X33186666Y-72960666D01*
X33386666Y-72960666D02*
X33386666Y-72260666D01*
X33320000Y-72360666D01*
X33253333Y-72427333D01*
X33186666Y-72460666D01*
G04 #@! TO.C,Q2*
X41335333Y-73027333D02*
X41268666Y-72994000D01*
X41202000Y-72927333D01*
X41102000Y-72827333D01*
X41035333Y-72794000D01*
X40968666Y-72794000D01*
X41002000Y-72960666D02*
X40935333Y-72927333D01*
X40868666Y-72860666D01*
X40835333Y-72727333D01*
X40835333Y-72494000D01*
X40868666Y-72360666D01*
X40935333Y-72294000D01*
X41002000Y-72260666D01*
X41135333Y-72260666D01*
X41202000Y-72294000D01*
X41268666Y-72360666D01*
X41302000Y-72494000D01*
X41302000Y-72727333D01*
X41268666Y-72860666D01*
X41202000Y-72927333D01*
X41135333Y-72960666D01*
X41002000Y-72960666D01*
X41568666Y-72327333D02*
X41602000Y-72294000D01*
X41668666Y-72260666D01*
X41835333Y-72260666D01*
X41902000Y-72294000D01*
X41935333Y-72327333D01*
X41968666Y-72394000D01*
X41968666Y-72460666D01*
X41935333Y-72560666D01*
X41535333Y-72960666D01*
X41968666Y-72960666D01*
G04 #@! TO.C,R13*
X35368666Y-69284000D02*
X35035333Y-69517333D01*
X35368666Y-69684000D02*
X34668666Y-69684000D01*
X34668666Y-69417333D01*
X34702000Y-69350666D01*
X34735333Y-69317333D01*
X34802000Y-69284000D01*
X34902000Y-69284000D01*
X34968666Y-69317333D01*
X35002000Y-69350666D01*
X35035333Y-69417333D01*
X35035333Y-69684000D01*
X35368666Y-68617333D02*
X35368666Y-69017333D01*
X35368666Y-68817333D02*
X34668666Y-68817333D01*
X34768666Y-68884000D01*
X34835333Y-68950666D01*
X34868666Y-69017333D01*
X34668666Y-68384000D02*
X34668666Y-67950666D01*
X34935333Y-68184000D01*
X34935333Y-68084000D01*
X34968666Y-68017333D01*
X35002000Y-67984000D01*
X35068666Y-67950666D01*
X35235333Y-67950666D01*
X35302000Y-67984000D01*
X35335333Y-68017333D01*
X35368666Y-68084000D01*
X35368666Y-68284000D01*
X35335333Y-68350666D01*
X35302000Y-68384000D01*
G04 #@! TO.C,R14*
X27131466Y-66337600D02*
X26798133Y-66570933D01*
X27131466Y-66737600D02*
X26431466Y-66737600D01*
X26431466Y-66470933D01*
X26464800Y-66404266D01*
X26498133Y-66370933D01*
X26564800Y-66337600D01*
X26664800Y-66337600D01*
X26731466Y-66370933D01*
X26764800Y-66404266D01*
X26798133Y-66470933D01*
X26798133Y-66737600D01*
X27131466Y-65670933D02*
X27131466Y-66070933D01*
X27131466Y-65870933D02*
X26431466Y-65870933D01*
X26531466Y-65937600D01*
X26598133Y-66004266D01*
X26631466Y-66070933D01*
X26664800Y-65070933D02*
X27131466Y-65070933D01*
X26398133Y-65237600D02*
X26898133Y-65404266D01*
X26898133Y-64970933D01*
G04 #@! TO.C,R15*
X37908666Y-70554000D02*
X37575333Y-70787333D01*
X37908666Y-70954000D02*
X37208666Y-70954000D01*
X37208666Y-70687333D01*
X37242000Y-70620666D01*
X37275333Y-70587333D01*
X37342000Y-70554000D01*
X37442000Y-70554000D01*
X37508666Y-70587333D01*
X37542000Y-70620666D01*
X37575333Y-70687333D01*
X37575333Y-70954000D01*
X37908666Y-69887333D02*
X37908666Y-70287333D01*
X37908666Y-70087333D02*
X37208666Y-70087333D01*
X37308666Y-70154000D01*
X37375333Y-70220666D01*
X37408666Y-70287333D01*
X37208666Y-69254000D02*
X37208666Y-69587333D01*
X37542000Y-69620666D01*
X37508666Y-69587333D01*
X37475333Y-69520666D01*
X37475333Y-69354000D01*
X37508666Y-69287333D01*
X37542000Y-69254000D01*
X37608666Y-69220666D01*
X37775333Y-69220666D01*
X37842000Y-69254000D01*
X37875333Y-69287333D01*
X37908666Y-69354000D01*
X37908666Y-69520666D01*
X37875333Y-69587333D01*
X37842000Y-69620666D01*
G04 #@! TO.C,R16*
X44512666Y-73348000D02*
X44179333Y-73581333D01*
X44512666Y-73748000D02*
X43812666Y-73748000D01*
X43812666Y-73481333D01*
X43846000Y-73414666D01*
X43879333Y-73381333D01*
X43946000Y-73348000D01*
X44046000Y-73348000D01*
X44112666Y-73381333D01*
X44146000Y-73414666D01*
X44179333Y-73481333D01*
X44179333Y-73748000D01*
X44512666Y-72681333D02*
X44512666Y-73081333D01*
X44512666Y-72881333D02*
X43812666Y-72881333D01*
X43912666Y-72948000D01*
X43979333Y-73014666D01*
X44012666Y-73081333D01*
X43812666Y-72081333D02*
X43812666Y-72214666D01*
X43846000Y-72281333D01*
X43879333Y-72314666D01*
X43979333Y-72381333D01*
X44112666Y-72414666D01*
X44379333Y-72414666D01*
X44446000Y-72381333D01*
X44479333Y-72348000D01*
X44512666Y-72281333D01*
X44512666Y-72148000D01*
X44479333Y-72081333D01*
X44446000Y-72048000D01*
X44379333Y-72014666D01*
X44212666Y-72014666D01*
X44146000Y-72048000D01*
X44112666Y-72081333D01*
X44079333Y-72148000D01*
X44079333Y-72281333D01*
X44112666Y-72348000D01*
X44146000Y-72381333D01*
X44212666Y-72414666D01*
G04 #@! TO.C,J4*
X64638266Y-49132666D02*
X64638266Y-49632666D01*
X64604933Y-49732666D01*
X64538266Y-49799333D01*
X64438266Y-49832666D01*
X64371600Y-49832666D01*
X65271600Y-49366000D02*
X65271600Y-49832666D01*
X65104933Y-49099333D02*
X64938266Y-49599333D01*
X65371600Y-49599333D01*
G04 #@! TO.C,J5*
X31516666Y-59282666D02*
X31516666Y-59782666D01*
X31483333Y-59882666D01*
X31416666Y-59949333D01*
X31316666Y-59982666D01*
X31250000Y-59982666D01*
X32183333Y-59282666D02*
X31850000Y-59282666D01*
X31816666Y-59616000D01*
X31850000Y-59582666D01*
X31916666Y-59549333D01*
X32083333Y-59549333D01*
X32150000Y-59582666D01*
X32183333Y-59616000D01*
X32216666Y-59682666D01*
X32216666Y-59849333D01*
X32183333Y-59916000D01*
X32150000Y-59949333D01*
X32083333Y-59982666D01*
X31916666Y-59982666D01*
X31850000Y-59949333D01*
X31816666Y-59916000D01*
G04 #@! TO.C,J7*
X19070666Y-64386666D02*
X19070666Y-64886666D01*
X19037333Y-64986666D01*
X18970666Y-65053333D01*
X18870666Y-65086666D01*
X18804000Y-65086666D01*
X19337333Y-64386666D02*
X19804000Y-64386666D01*
X19504000Y-65086666D01*
G04 #@! TO.C,J9*
X43708666Y-59814666D02*
X43708666Y-60314666D01*
X43675333Y-60414666D01*
X43608666Y-60481333D01*
X43508666Y-60514666D01*
X43442000Y-60514666D01*
X44075333Y-60514666D02*
X44208666Y-60514666D01*
X44275333Y-60481333D01*
X44308666Y-60448000D01*
X44375333Y-60348000D01*
X44408666Y-60214666D01*
X44408666Y-59948000D01*
X44375333Y-59881333D01*
X44342000Y-59848000D01*
X44275333Y-59814666D01*
X44142000Y-59814666D01*
X44075333Y-59848000D01*
X44042000Y-59881333D01*
X44008666Y-59948000D01*
X44008666Y-60114666D01*
X44042000Y-60181333D01*
X44075333Y-60214666D01*
X44142000Y-60248000D01*
X44275333Y-60248000D01*
X44342000Y-60214666D01*
X44375333Y-60181333D01*
X44408666Y-60114666D01*
G04 #@! TD*
M02*
