M48
;DRILL file {KiCad (5.0.1)-4} date 3/5/2019 1:58:26 AM
;FORMAT={-:-/ absolute / inch / decimal}
FMAT,2
INCH,TZ
T1C0.0157
T2C0.0350
T3C0.0354
T4C0.0394
T5C0.0450
T6C0.0810
%
G90
G05
M72
T1
X0.959Y-2.271
X1.078Y-2.262
X1.365Y-2.69
X1.366Y-2.805
X1.37Y-2.274
X1.479Y-2.97
X1.4801Y-2.0725
X1.483Y-2.724
X1.5089Y-2.0435
X1.517Y-2.1852
X1.5362Y-2.0972
X1.59Y-2.308
X1.5924Y-2.0768
X1.77Y-2.154
X1.932Y-2.794
X2.037Y-2.649
X2.057Y-2.734
X2.304Y-2.637
X2.311Y-2.217
X2.667Y-2.642
X2.851Y-2.808
T2
X1.27Y-2.545
X1.64Y-2.545
X0.86Y-2.3661
X0.96Y-2.3661
X1.06Y-2.3661
X1.44Y-2.3661
X1.54Y-2.3661
X1.64Y-2.3661
X0.88Y-2.545
T3
X1.33Y-2.456
X1.43Y-2.456
X1.1Y-2.456
X1.2Y-2.456
T4
X1.914Y-2.456
X2.014Y-2.456
X2.114Y-2.456
X2.554Y-2.0412
X2.554Y-2.1412
X2.554Y-2.2412
X2.39Y-2.04
X2.39Y-2.14
X2.39Y-2.24
X2.674Y-2.456
X2.774Y-2.456
X2.874Y-2.456
X1.53Y-2.456
X1.63Y-2.456
X1.73Y-2.456
X0.77Y-2.456
X0.87Y-2.456
X0.97Y-2.456
X1.25Y-2.04
X1.25Y-2.14
X1.25Y-2.24
T5
X0.88Y-2.64
X0.88Y-2.977
X1.27Y-2.64
X1.27Y-2.977
X1.64Y-2.64
X1.64Y-2.977
T6
X0.787Y-2.0901
X1.133Y-2.0901
X1.367Y-2.0901
X1.713Y-2.0901
T0
M30
