G04 #@! TF.GenerationSoftware,KiCad,Pcbnew,(5.0.1)-4*
G04 #@! TF.CreationDate,2019-03-05T01:58:22+01:00*
G04 #@! TF.ProjectId,1U Headphone,3155204865616470686F6E652E6B6963,rev?*
G04 #@! TF.SameCoordinates,Original*
G04 #@! TF.FileFunction,Paste,Top*
G04 #@! TF.FilePolarity,Positive*
%FSLAX46Y46*%
G04 Gerber Fmt 4.6, Leading zero omitted, Abs format (unit mm)*
G04 Created by KiCad (PCBNEW (5.0.1)-4) date 3/5/2019 1:58:22 AM*
%MOMM*%
%LPD*%
G01*
G04 APERTURE LIST*
%ADD10C,0.100000*%
%ADD11C,0.950000*%
%ADD12R,2.600000X1.600000*%
%ADD13R,0.450000X1.450000*%
%ADD14R,1.550000X0.600000*%
%ADD15R,0.900000X1.200000*%
%ADD16R,0.900000X0.800000*%
G04 APERTURE END LIST*
D10*
G04 #@! TO.C,C1*
G36*
X36227179Y-55395544D02*
X36250234Y-55398963D01*
X36272843Y-55404627D01*
X36294787Y-55412479D01*
X36315857Y-55422444D01*
X36335848Y-55434426D01*
X36354568Y-55448310D01*
X36371838Y-55463962D01*
X36387490Y-55481232D01*
X36401374Y-55499952D01*
X36413356Y-55519943D01*
X36423321Y-55541013D01*
X36431173Y-55562957D01*
X36436837Y-55585566D01*
X36440256Y-55608621D01*
X36441400Y-55631900D01*
X36441400Y-56206900D01*
X36440256Y-56230179D01*
X36436837Y-56253234D01*
X36431173Y-56275843D01*
X36423321Y-56297787D01*
X36413356Y-56318857D01*
X36401374Y-56338848D01*
X36387490Y-56357568D01*
X36371838Y-56374838D01*
X36354568Y-56390490D01*
X36335848Y-56404374D01*
X36315857Y-56416356D01*
X36294787Y-56426321D01*
X36272843Y-56434173D01*
X36250234Y-56439837D01*
X36227179Y-56443256D01*
X36203900Y-56444400D01*
X35728900Y-56444400D01*
X35705621Y-56443256D01*
X35682566Y-56439837D01*
X35659957Y-56434173D01*
X35638013Y-56426321D01*
X35616943Y-56416356D01*
X35596952Y-56404374D01*
X35578232Y-56390490D01*
X35560962Y-56374838D01*
X35545310Y-56357568D01*
X35531426Y-56338848D01*
X35519444Y-56318857D01*
X35509479Y-56297787D01*
X35501627Y-56275843D01*
X35495963Y-56253234D01*
X35492544Y-56230179D01*
X35491400Y-56206900D01*
X35491400Y-55631900D01*
X35492544Y-55608621D01*
X35495963Y-55585566D01*
X35501627Y-55562957D01*
X35509479Y-55541013D01*
X35519444Y-55519943D01*
X35531426Y-55499952D01*
X35545310Y-55481232D01*
X35560962Y-55463962D01*
X35578232Y-55448310D01*
X35596952Y-55434426D01*
X35616943Y-55422444D01*
X35638013Y-55412479D01*
X35659957Y-55404627D01*
X35682566Y-55398963D01*
X35705621Y-55395544D01*
X35728900Y-55394400D01*
X36203900Y-55394400D01*
X36227179Y-55395544D01*
X36227179Y-55395544D01*
G37*
D11*
X35966400Y-55919400D03*
D10*
G36*
X36227179Y-57145544D02*
X36250234Y-57148963D01*
X36272843Y-57154627D01*
X36294787Y-57162479D01*
X36315857Y-57172444D01*
X36335848Y-57184426D01*
X36354568Y-57198310D01*
X36371838Y-57213962D01*
X36387490Y-57231232D01*
X36401374Y-57249952D01*
X36413356Y-57269943D01*
X36423321Y-57291013D01*
X36431173Y-57312957D01*
X36436837Y-57335566D01*
X36440256Y-57358621D01*
X36441400Y-57381900D01*
X36441400Y-57956900D01*
X36440256Y-57980179D01*
X36436837Y-58003234D01*
X36431173Y-58025843D01*
X36423321Y-58047787D01*
X36413356Y-58068857D01*
X36401374Y-58088848D01*
X36387490Y-58107568D01*
X36371838Y-58124838D01*
X36354568Y-58140490D01*
X36335848Y-58154374D01*
X36315857Y-58166356D01*
X36294787Y-58176321D01*
X36272843Y-58184173D01*
X36250234Y-58189837D01*
X36227179Y-58193256D01*
X36203900Y-58194400D01*
X35728900Y-58194400D01*
X35705621Y-58193256D01*
X35682566Y-58189837D01*
X35659957Y-58184173D01*
X35638013Y-58176321D01*
X35616943Y-58166356D01*
X35596952Y-58154374D01*
X35578232Y-58140490D01*
X35560962Y-58124838D01*
X35545310Y-58107568D01*
X35531426Y-58088848D01*
X35519444Y-58068857D01*
X35509479Y-58047787D01*
X35501627Y-58025843D01*
X35495963Y-58003234D01*
X35492544Y-57980179D01*
X35491400Y-57956900D01*
X35491400Y-57381900D01*
X35492544Y-57358621D01*
X35495963Y-57335566D01*
X35501627Y-57312957D01*
X35509479Y-57291013D01*
X35519444Y-57269943D01*
X35531426Y-57249952D01*
X35545310Y-57231232D01*
X35560962Y-57213962D01*
X35578232Y-57198310D01*
X35596952Y-57184426D01*
X35616943Y-57172444D01*
X35638013Y-57162479D01*
X35659957Y-57154627D01*
X35682566Y-57148963D01*
X35705621Y-57145544D01*
X35728900Y-57144400D01*
X36203900Y-57144400D01*
X36227179Y-57145544D01*
X36227179Y-57145544D01*
G37*
D11*
X35966400Y-57669400D03*
G04 #@! TD*
D10*
G04 #@! TO.C,C2*
G36*
X36227179Y-50389144D02*
X36250234Y-50392563D01*
X36272843Y-50398227D01*
X36294787Y-50406079D01*
X36315857Y-50416044D01*
X36335848Y-50428026D01*
X36354568Y-50441910D01*
X36371838Y-50457562D01*
X36387490Y-50474832D01*
X36401374Y-50493552D01*
X36413356Y-50513543D01*
X36423321Y-50534613D01*
X36431173Y-50556557D01*
X36436837Y-50579166D01*
X36440256Y-50602221D01*
X36441400Y-50625500D01*
X36441400Y-51200500D01*
X36440256Y-51223779D01*
X36436837Y-51246834D01*
X36431173Y-51269443D01*
X36423321Y-51291387D01*
X36413356Y-51312457D01*
X36401374Y-51332448D01*
X36387490Y-51351168D01*
X36371838Y-51368438D01*
X36354568Y-51384090D01*
X36335848Y-51397974D01*
X36315857Y-51409956D01*
X36294787Y-51419921D01*
X36272843Y-51427773D01*
X36250234Y-51433437D01*
X36227179Y-51436856D01*
X36203900Y-51438000D01*
X35728900Y-51438000D01*
X35705621Y-51436856D01*
X35682566Y-51433437D01*
X35659957Y-51427773D01*
X35638013Y-51419921D01*
X35616943Y-51409956D01*
X35596952Y-51397974D01*
X35578232Y-51384090D01*
X35560962Y-51368438D01*
X35545310Y-51351168D01*
X35531426Y-51332448D01*
X35519444Y-51312457D01*
X35509479Y-51291387D01*
X35501627Y-51269443D01*
X35495963Y-51246834D01*
X35492544Y-51223779D01*
X35491400Y-51200500D01*
X35491400Y-50625500D01*
X35492544Y-50602221D01*
X35495963Y-50579166D01*
X35501627Y-50556557D01*
X35509479Y-50534613D01*
X35519444Y-50513543D01*
X35531426Y-50493552D01*
X35545310Y-50474832D01*
X35560962Y-50457562D01*
X35578232Y-50441910D01*
X35596952Y-50428026D01*
X35616943Y-50416044D01*
X35638013Y-50406079D01*
X35659957Y-50398227D01*
X35682566Y-50392563D01*
X35705621Y-50389144D01*
X35728900Y-50388000D01*
X36203900Y-50388000D01*
X36227179Y-50389144D01*
X36227179Y-50389144D01*
G37*
D11*
X35966400Y-50913000D03*
D10*
G36*
X36227179Y-48639144D02*
X36250234Y-48642563D01*
X36272843Y-48648227D01*
X36294787Y-48656079D01*
X36315857Y-48666044D01*
X36335848Y-48678026D01*
X36354568Y-48691910D01*
X36371838Y-48707562D01*
X36387490Y-48724832D01*
X36401374Y-48743552D01*
X36413356Y-48763543D01*
X36423321Y-48784613D01*
X36431173Y-48806557D01*
X36436837Y-48829166D01*
X36440256Y-48852221D01*
X36441400Y-48875500D01*
X36441400Y-49450500D01*
X36440256Y-49473779D01*
X36436837Y-49496834D01*
X36431173Y-49519443D01*
X36423321Y-49541387D01*
X36413356Y-49562457D01*
X36401374Y-49582448D01*
X36387490Y-49601168D01*
X36371838Y-49618438D01*
X36354568Y-49634090D01*
X36335848Y-49647974D01*
X36315857Y-49659956D01*
X36294787Y-49669921D01*
X36272843Y-49677773D01*
X36250234Y-49683437D01*
X36227179Y-49686856D01*
X36203900Y-49688000D01*
X35728900Y-49688000D01*
X35705621Y-49686856D01*
X35682566Y-49683437D01*
X35659957Y-49677773D01*
X35638013Y-49669921D01*
X35616943Y-49659956D01*
X35596952Y-49647974D01*
X35578232Y-49634090D01*
X35560962Y-49618438D01*
X35545310Y-49601168D01*
X35531426Y-49582448D01*
X35519444Y-49562457D01*
X35509479Y-49541387D01*
X35501627Y-49519443D01*
X35495963Y-49496834D01*
X35492544Y-49473779D01*
X35491400Y-49450500D01*
X35491400Y-48875500D01*
X35492544Y-48852221D01*
X35495963Y-48829166D01*
X35501627Y-48806557D01*
X35509479Y-48784613D01*
X35519444Y-48763543D01*
X35531426Y-48743552D01*
X35545310Y-48724832D01*
X35560962Y-48707562D01*
X35578232Y-48691910D01*
X35596952Y-48678026D01*
X35616943Y-48666044D01*
X35638013Y-48656079D01*
X35659957Y-48648227D01*
X35682566Y-48642563D01*
X35705621Y-48639144D01*
X35728900Y-48638000D01*
X36203900Y-48638000D01*
X36227179Y-48639144D01*
X36227179Y-48639144D01*
G37*
D11*
X35966400Y-49163000D03*
G04 #@! TD*
D12*
G04 #@! TO.C,C3*
X26162000Y-56134000D03*
X22562000Y-56134000D03*
G04 #@! TD*
G04 #@! TO.C,C4*
X22562000Y-50647600D03*
X26162000Y-50647600D03*
G04 #@! TD*
D10*
G04 #@! TO.C,R1*
G36*
X39275179Y-66441944D02*
X39298234Y-66445363D01*
X39320843Y-66451027D01*
X39342787Y-66458879D01*
X39363857Y-66468844D01*
X39383848Y-66480826D01*
X39402568Y-66494710D01*
X39419838Y-66510362D01*
X39435490Y-66527632D01*
X39449374Y-66546352D01*
X39461356Y-66566343D01*
X39471321Y-66587413D01*
X39479173Y-66609357D01*
X39484837Y-66631966D01*
X39488256Y-66655021D01*
X39489400Y-66678300D01*
X39489400Y-67253300D01*
X39488256Y-67276579D01*
X39484837Y-67299634D01*
X39479173Y-67322243D01*
X39471321Y-67344187D01*
X39461356Y-67365257D01*
X39449374Y-67385248D01*
X39435490Y-67403968D01*
X39419838Y-67421238D01*
X39402568Y-67436890D01*
X39383848Y-67450774D01*
X39363857Y-67462756D01*
X39342787Y-67472721D01*
X39320843Y-67480573D01*
X39298234Y-67486237D01*
X39275179Y-67489656D01*
X39251900Y-67490800D01*
X38776900Y-67490800D01*
X38753621Y-67489656D01*
X38730566Y-67486237D01*
X38707957Y-67480573D01*
X38686013Y-67472721D01*
X38664943Y-67462756D01*
X38644952Y-67450774D01*
X38626232Y-67436890D01*
X38608962Y-67421238D01*
X38593310Y-67403968D01*
X38579426Y-67385248D01*
X38567444Y-67365257D01*
X38557479Y-67344187D01*
X38549627Y-67322243D01*
X38543963Y-67299634D01*
X38540544Y-67276579D01*
X38539400Y-67253300D01*
X38539400Y-66678300D01*
X38540544Y-66655021D01*
X38543963Y-66631966D01*
X38549627Y-66609357D01*
X38557479Y-66587413D01*
X38567444Y-66566343D01*
X38579426Y-66546352D01*
X38593310Y-66527632D01*
X38608962Y-66510362D01*
X38626232Y-66494710D01*
X38644952Y-66480826D01*
X38664943Y-66468844D01*
X38686013Y-66458879D01*
X38707957Y-66451027D01*
X38730566Y-66445363D01*
X38753621Y-66441944D01*
X38776900Y-66440800D01*
X39251900Y-66440800D01*
X39275179Y-66441944D01*
X39275179Y-66441944D01*
G37*
D11*
X39014400Y-66965800D03*
D10*
G36*
X39275179Y-64691944D02*
X39298234Y-64695363D01*
X39320843Y-64701027D01*
X39342787Y-64708879D01*
X39363857Y-64718844D01*
X39383848Y-64730826D01*
X39402568Y-64744710D01*
X39419838Y-64760362D01*
X39435490Y-64777632D01*
X39449374Y-64796352D01*
X39461356Y-64816343D01*
X39471321Y-64837413D01*
X39479173Y-64859357D01*
X39484837Y-64881966D01*
X39488256Y-64905021D01*
X39489400Y-64928300D01*
X39489400Y-65503300D01*
X39488256Y-65526579D01*
X39484837Y-65549634D01*
X39479173Y-65572243D01*
X39471321Y-65594187D01*
X39461356Y-65615257D01*
X39449374Y-65635248D01*
X39435490Y-65653968D01*
X39419838Y-65671238D01*
X39402568Y-65686890D01*
X39383848Y-65700774D01*
X39363857Y-65712756D01*
X39342787Y-65722721D01*
X39320843Y-65730573D01*
X39298234Y-65736237D01*
X39275179Y-65739656D01*
X39251900Y-65740800D01*
X38776900Y-65740800D01*
X38753621Y-65739656D01*
X38730566Y-65736237D01*
X38707957Y-65730573D01*
X38686013Y-65722721D01*
X38664943Y-65712756D01*
X38644952Y-65700774D01*
X38626232Y-65686890D01*
X38608962Y-65671238D01*
X38593310Y-65653968D01*
X38579426Y-65635248D01*
X38567444Y-65615257D01*
X38557479Y-65594187D01*
X38549627Y-65572243D01*
X38543963Y-65549634D01*
X38540544Y-65526579D01*
X38539400Y-65503300D01*
X38539400Y-64928300D01*
X38540544Y-64905021D01*
X38543963Y-64881966D01*
X38549627Y-64859357D01*
X38557479Y-64837413D01*
X38567444Y-64816343D01*
X38579426Y-64796352D01*
X38593310Y-64777632D01*
X38608962Y-64760362D01*
X38626232Y-64744710D01*
X38644952Y-64730826D01*
X38664943Y-64718844D01*
X38686013Y-64708879D01*
X38707957Y-64701027D01*
X38730566Y-64695363D01*
X38753621Y-64691944D01*
X38776900Y-64690800D01*
X39251900Y-64690800D01*
X39275179Y-64691944D01*
X39275179Y-64691944D01*
G37*
D11*
X39014400Y-65215800D03*
G04 #@! TD*
D10*
G04 #@! TO.C,R2*
G36*
X44456779Y-64641144D02*
X44479834Y-64644563D01*
X44502443Y-64650227D01*
X44524387Y-64658079D01*
X44545457Y-64668044D01*
X44565448Y-64680026D01*
X44584168Y-64693910D01*
X44601438Y-64709562D01*
X44617090Y-64726832D01*
X44630974Y-64745552D01*
X44642956Y-64765543D01*
X44652921Y-64786613D01*
X44660773Y-64808557D01*
X44666437Y-64831166D01*
X44669856Y-64854221D01*
X44671000Y-64877500D01*
X44671000Y-65452500D01*
X44669856Y-65475779D01*
X44666437Y-65498834D01*
X44660773Y-65521443D01*
X44652921Y-65543387D01*
X44642956Y-65564457D01*
X44630974Y-65584448D01*
X44617090Y-65603168D01*
X44601438Y-65620438D01*
X44584168Y-65636090D01*
X44565448Y-65649974D01*
X44545457Y-65661956D01*
X44524387Y-65671921D01*
X44502443Y-65679773D01*
X44479834Y-65685437D01*
X44456779Y-65688856D01*
X44433500Y-65690000D01*
X43958500Y-65690000D01*
X43935221Y-65688856D01*
X43912166Y-65685437D01*
X43889557Y-65679773D01*
X43867613Y-65671921D01*
X43846543Y-65661956D01*
X43826552Y-65649974D01*
X43807832Y-65636090D01*
X43790562Y-65620438D01*
X43774910Y-65603168D01*
X43761026Y-65584448D01*
X43749044Y-65564457D01*
X43739079Y-65543387D01*
X43731227Y-65521443D01*
X43725563Y-65498834D01*
X43722144Y-65475779D01*
X43721000Y-65452500D01*
X43721000Y-64877500D01*
X43722144Y-64854221D01*
X43725563Y-64831166D01*
X43731227Y-64808557D01*
X43739079Y-64786613D01*
X43749044Y-64765543D01*
X43761026Y-64745552D01*
X43774910Y-64726832D01*
X43790562Y-64709562D01*
X43807832Y-64693910D01*
X43826552Y-64680026D01*
X43846543Y-64668044D01*
X43867613Y-64658079D01*
X43889557Y-64650227D01*
X43912166Y-64644563D01*
X43935221Y-64641144D01*
X43958500Y-64640000D01*
X44433500Y-64640000D01*
X44456779Y-64641144D01*
X44456779Y-64641144D01*
G37*
D11*
X44196000Y-65165000D03*
D10*
G36*
X44456779Y-66391144D02*
X44479834Y-66394563D01*
X44502443Y-66400227D01*
X44524387Y-66408079D01*
X44545457Y-66418044D01*
X44565448Y-66430026D01*
X44584168Y-66443910D01*
X44601438Y-66459562D01*
X44617090Y-66476832D01*
X44630974Y-66495552D01*
X44642956Y-66515543D01*
X44652921Y-66536613D01*
X44660773Y-66558557D01*
X44666437Y-66581166D01*
X44669856Y-66604221D01*
X44671000Y-66627500D01*
X44671000Y-67202500D01*
X44669856Y-67225779D01*
X44666437Y-67248834D01*
X44660773Y-67271443D01*
X44652921Y-67293387D01*
X44642956Y-67314457D01*
X44630974Y-67334448D01*
X44617090Y-67353168D01*
X44601438Y-67370438D01*
X44584168Y-67386090D01*
X44565448Y-67399974D01*
X44545457Y-67411956D01*
X44524387Y-67421921D01*
X44502443Y-67429773D01*
X44479834Y-67435437D01*
X44456779Y-67438856D01*
X44433500Y-67440000D01*
X43958500Y-67440000D01*
X43935221Y-67438856D01*
X43912166Y-67435437D01*
X43889557Y-67429773D01*
X43867613Y-67421921D01*
X43846543Y-67411956D01*
X43826552Y-67399974D01*
X43807832Y-67386090D01*
X43790562Y-67370438D01*
X43774910Y-67353168D01*
X43761026Y-67334448D01*
X43749044Y-67314457D01*
X43739079Y-67293387D01*
X43731227Y-67271443D01*
X43725563Y-67248834D01*
X43722144Y-67225779D01*
X43721000Y-67202500D01*
X43721000Y-66627500D01*
X43722144Y-66604221D01*
X43725563Y-66581166D01*
X43731227Y-66558557D01*
X43739079Y-66536613D01*
X43749044Y-66515543D01*
X43761026Y-66495552D01*
X43774910Y-66476832D01*
X43790562Y-66459562D01*
X43807832Y-66443910D01*
X43826552Y-66430026D01*
X43846543Y-66418044D01*
X43867613Y-66408079D01*
X43889557Y-66400227D01*
X43912166Y-66394563D01*
X43935221Y-66391144D01*
X43958500Y-66390000D01*
X44433500Y-66390000D01*
X44456779Y-66391144D01*
X44456779Y-66391144D01*
G37*
D11*
X44196000Y-66915000D03*
G04 #@! TD*
D10*
G04 #@! TO.C,R3*
G36*
X37801979Y-55395544D02*
X37825034Y-55398963D01*
X37847643Y-55404627D01*
X37869587Y-55412479D01*
X37890657Y-55422444D01*
X37910648Y-55434426D01*
X37929368Y-55448310D01*
X37946638Y-55463962D01*
X37962290Y-55481232D01*
X37976174Y-55499952D01*
X37988156Y-55519943D01*
X37998121Y-55541013D01*
X38005973Y-55562957D01*
X38011637Y-55585566D01*
X38015056Y-55608621D01*
X38016200Y-55631900D01*
X38016200Y-56206900D01*
X38015056Y-56230179D01*
X38011637Y-56253234D01*
X38005973Y-56275843D01*
X37998121Y-56297787D01*
X37988156Y-56318857D01*
X37976174Y-56338848D01*
X37962290Y-56357568D01*
X37946638Y-56374838D01*
X37929368Y-56390490D01*
X37910648Y-56404374D01*
X37890657Y-56416356D01*
X37869587Y-56426321D01*
X37847643Y-56434173D01*
X37825034Y-56439837D01*
X37801979Y-56443256D01*
X37778700Y-56444400D01*
X37303700Y-56444400D01*
X37280421Y-56443256D01*
X37257366Y-56439837D01*
X37234757Y-56434173D01*
X37212813Y-56426321D01*
X37191743Y-56416356D01*
X37171752Y-56404374D01*
X37153032Y-56390490D01*
X37135762Y-56374838D01*
X37120110Y-56357568D01*
X37106226Y-56338848D01*
X37094244Y-56318857D01*
X37084279Y-56297787D01*
X37076427Y-56275843D01*
X37070763Y-56253234D01*
X37067344Y-56230179D01*
X37066200Y-56206900D01*
X37066200Y-55631900D01*
X37067344Y-55608621D01*
X37070763Y-55585566D01*
X37076427Y-55562957D01*
X37084279Y-55541013D01*
X37094244Y-55519943D01*
X37106226Y-55499952D01*
X37120110Y-55481232D01*
X37135762Y-55463962D01*
X37153032Y-55448310D01*
X37171752Y-55434426D01*
X37191743Y-55422444D01*
X37212813Y-55412479D01*
X37234757Y-55404627D01*
X37257366Y-55398963D01*
X37280421Y-55395544D01*
X37303700Y-55394400D01*
X37778700Y-55394400D01*
X37801979Y-55395544D01*
X37801979Y-55395544D01*
G37*
D11*
X37541200Y-55919400D03*
D10*
G36*
X37801979Y-57145544D02*
X37825034Y-57148963D01*
X37847643Y-57154627D01*
X37869587Y-57162479D01*
X37890657Y-57172444D01*
X37910648Y-57184426D01*
X37929368Y-57198310D01*
X37946638Y-57213962D01*
X37962290Y-57231232D01*
X37976174Y-57249952D01*
X37988156Y-57269943D01*
X37998121Y-57291013D01*
X38005973Y-57312957D01*
X38011637Y-57335566D01*
X38015056Y-57358621D01*
X38016200Y-57381900D01*
X38016200Y-57956900D01*
X38015056Y-57980179D01*
X38011637Y-58003234D01*
X38005973Y-58025843D01*
X37998121Y-58047787D01*
X37988156Y-58068857D01*
X37976174Y-58088848D01*
X37962290Y-58107568D01*
X37946638Y-58124838D01*
X37929368Y-58140490D01*
X37910648Y-58154374D01*
X37890657Y-58166356D01*
X37869587Y-58176321D01*
X37847643Y-58184173D01*
X37825034Y-58189837D01*
X37801979Y-58193256D01*
X37778700Y-58194400D01*
X37303700Y-58194400D01*
X37280421Y-58193256D01*
X37257366Y-58189837D01*
X37234757Y-58184173D01*
X37212813Y-58176321D01*
X37191743Y-58166356D01*
X37171752Y-58154374D01*
X37153032Y-58140490D01*
X37135762Y-58124838D01*
X37120110Y-58107568D01*
X37106226Y-58088848D01*
X37094244Y-58068857D01*
X37084279Y-58047787D01*
X37076427Y-58025843D01*
X37070763Y-58003234D01*
X37067344Y-57980179D01*
X37066200Y-57956900D01*
X37066200Y-57381900D01*
X37067344Y-57358621D01*
X37070763Y-57335566D01*
X37076427Y-57312957D01*
X37084279Y-57291013D01*
X37094244Y-57269943D01*
X37106226Y-57249952D01*
X37120110Y-57231232D01*
X37135762Y-57213962D01*
X37153032Y-57198310D01*
X37171752Y-57184426D01*
X37191743Y-57172444D01*
X37212813Y-57162479D01*
X37234757Y-57154627D01*
X37257366Y-57148963D01*
X37280421Y-57145544D01*
X37303700Y-57144400D01*
X37778700Y-57144400D01*
X37801979Y-57145544D01*
X37801979Y-57145544D01*
G37*
D11*
X37541200Y-57669400D03*
G04 #@! TD*
D10*
G04 #@! TO.C,R4*
G36*
X37801979Y-50389144D02*
X37825034Y-50392563D01*
X37847643Y-50398227D01*
X37869587Y-50406079D01*
X37890657Y-50416044D01*
X37910648Y-50428026D01*
X37929368Y-50441910D01*
X37946638Y-50457562D01*
X37962290Y-50474832D01*
X37976174Y-50493552D01*
X37988156Y-50513543D01*
X37998121Y-50534613D01*
X38005973Y-50556557D01*
X38011637Y-50579166D01*
X38015056Y-50602221D01*
X38016200Y-50625500D01*
X38016200Y-51200500D01*
X38015056Y-51223779D01*
X38011637Y-51246834D01*
X38005973Y-51269443D01*
X37998121Y-51291387D01*
X37988156Y-51312457D01*
X37976174Y-51332448D01*
X37962290Y-51351168D01*
X37946638Y-51368438D01*
X37929368Y-51384090D01*
X37910648Y-51397974D01*
X37890657Y-51409956D01*
X37869587Y-51419921D01*
X37847643Y-51427773D01*
X37825034Y-51433437D01*
X37801979Y-51436856D01*
X37778700Y-51438000D01*
X37303700Y-51438000D01*
X37280421Y-51436856D01*
X37257366Y-51433437D01*
X37234757Y-51427773D01*
X37212813Y-51419921D01*
X37191743Y-51409956D01*
X37171752Y-51397974D01*
X37153032Y-51384090D01*
X37135762Y-51368438D01*
X37120110Y-51351168D01*
X37106226Y-51332448D01*
X37094244Y-51312457D01*
X37084279Y-51291387D01*
X37076427Y-51269443D01*
X37070763Y-51246834D01*
X37067344Y-51223779D01*
X37066200Y-51200500D01*
X37066200Y-50625500D01*
X37067344Y-50602221D01*
X37070763Y-50579166D01*
X37076427Y-50556557D01*
X37084279Y-50534613D01*
X37094244Y-50513543D01*
X37106226Y-50493552D01*
X37120110Y-50474832D01*
X37135762Y-50457562D01*
X37153032Y-50441910D01*
X37171752Y-50428026D01*
X37191743Y-50416044D01*
X37212813Y-50406079D01*
X37234757Y-50398227D01*
X37257366Y-50392563D01*
X37280421Y-50389144D01*
X37303700Y-50388000D01*
X37778700Y-50388000D01*
X37801979Y-50389144D01*
X37801979Y-50389144D01*
G37*
D11*
X37541200Y-50913000D03*
D10*
G36*
X37801979Y-48639144D02*
X37825034Y-48642563D01*
X37847643Y-48648227D01*
X37869587Y-48656079D01*
X37890657Y-48666044D01*
X37910648Y-48678026D01*
X37929368Y-48691910D01*
X37946638Y-48707562D01*
X37962290Y-48724832D01*
X37976174Y-48743552D01*
X37988156Y-48763543D01*
X37998121Y-48784613D01*
X38005973Y-48806557D01*
X38011637Y-48829166D01*
X38015056Y-48852221D01*
X38016200Y-48875500D01*
X38016200Y-49450500D01*
X38015056Y-49473779D01*
X38011637Y-49496834D01*
X38005973Y-49519443D01*
X37998121Y-49541387D01*
X37988156Y-49562457D01*
X37976174Y-49582448D01*
X37962290Y-49601168D01*
X37946638Y-49618438D01*
X37929368Y-49634090D01*
X37910648Y-49647974D01*
X37890657Y-49659956D01*
X37869587Y-49669921D01*
X37847643Y-49677773D01*
X37825034Y-49683437D01*
X37801979Y-49686856D01*
X37778700Y-49688000D01*
X37303700Y-49688000D01*
X37280421Y-49686856D01*
X37257366Y-49683437D01*
X37234757Y-49677773D01*
X37212813Y-49669921D01*
X37191743Y-49659956D01*
X37171752Y-49647974D01*
X37153032Y-49634090D01*
X37135762Y-49618438D01*
X37120110Y-49601168D01*
X37106226Y-49582448D01*
X37094244Y-49562457D01*
X37084279Y-49541387D01*
X37076427Y-49519443D01*
X37070763Y-49496834D01*
X37067344Y-49473779D01*
X37066200Y-49450500D01*
X37066200Y-48875500D01*
X37067344Y-48852221D01*
X37070763Y-48829166D01*
X37076427Y-48806557D01*
X37084279Y-48784613D01*
X37094244Y-48763543D01*
X37106226Y-48743552D01*
X37120110Y-48724832D01*
X37135762Y-48707562D01*
X37153032Y-48691910D01*
X37171752Y-48678026D01*
X37191743Y-48666044D01*
X37212813Y-48656079D01*
X37234757Y-48648227D01*
X37257366Y-48642563D01*
X37280421Y-48639144D01*
X37303700Y-48638000D01*
X37778700Y-48638000D01*
X37801979Y-48639144D01*
X37801979Y-48639144D01*
G37*
D11*
X37541200Y-49163000D03*
G04 #@! TD*
D10*
G04 #@! TO.C,R5*
G36*
X51164179Y-65693144D02*
X51187234Y-65696563D01*
X51209843Y-65702227D01*
X51231787Y-65710079D01*
X51252857Y-65720044D01*
X51272848Y-65732026D01*
X51291568Y-65745910D01*
X51308838Y-65761562D01*
X51324490Y-65778832D01*
X51338374Y-65797552D01*
X51350356Y-65817543D01*
X51360321Y-65838613D01*
X51368173Y-65860557D01*
X51373837Y-65883166D01*
X51377256Y-65906221D01*
X51378400Y-65929500D01*
X51378400Y-66404500D01*
X51377256Y-66427779D01*
X51373837Y-66450834D01*
X51368173Y-66473443D01*
X51360321Y-66495387D01*
X51350356Y-66516457D01*
X51338374Y-66536448D01*
X51324490Y-66555168D01*
X51308838Y-66572438D01*
X51291568Y-66588090D01*
X51272848Y-66601974D01*
X51252857Y-66613956D01*
X51231787Y-66623921D01*
X51209843Y-66631773D01*
X51187234Y-66637437D01*
X51164179Y-66640856D01*
X51140900Y-66642000D01*
X50565900Y-66642000D01*
X50542621Y-66640856D01*
X50519566Y-66637437D01*
X50496957Y-66631773D01*
X50475013Y-66623921D01*
X50453943Y-66613956D01*
X50433952Y-66601974D01*
X50415232Y-66588090D01*
X50397962Y-66572438D01*
X50382310Y-66555168D01*
X50368426Y-66536448D01*
X50356444Y-66516457D01*
X50346479Y-66495387D01*
X50338627Y-66473443D01*
X50332963Y-66450834D01*
X50329544Y-66427779D01*
X50328400Y-66404500D01*
X50328400Y-65929500D01*
X50329544Y-65906221D01*
X50332963Y-65883166D01*
X50338627Y-65860557D01*
X50346479Y-65838613D01*
X50356444Y-65817543D01*
X50368426Y-65797552D01*
X50382310Y-65778832D01*
X50397962Y-65761562D01*
X50415232Y-65745910D01*
X50433952Y-65732026D01*
X50453943Y-65720044D01*
X50475013Y-65710079D01*
X50496957Y-65702227D01*
X50519566Y-65696563D01*
X50542621Y-65693144D01*
X50565900Y-65692000D01*
X51140900Y-65692000D01*
X51164179Y-65693144D01*
X51164179Y-65693144D01*
G37*
D11*
X50853400Y-66167000D03*
D10*
G36*
X52914179Y-65693144D02*
X52937234Y-65696563D01*
X52959843Y-65702227D01*
X52981787Y-65710079D01*
X53002857Y-65720044D01*
X53022848Y-65732026D01*
X53041568Y-65745910D01*
X53058838Y-65761562D01*
X53074490Y-65778832D01*
X53088374Y-65797552D01*
X53100356Y-65817543D01*
X53110321Y-65838613D01*
X53118173Y-65860557D01*
X53123837Y-65883166D01*
X53127256Y-65906221D01*
X53128400Y-65929500D01*
X53128400Y-66404500D01*
X53127256Y-66427779D01*
X53123837Y-66450834D01*
X53118173Y-66473443D01*
X53110321Y-66495387D01*
X53100356Y-66516457D01*
X53088374Y-66536448D01*
X53074490Y-66555168D01*
X53058838Y-66572438D01*
X53041568Y-66588090D01*
X53022848Y-66601974D01*
X53002857Y-66613956D01*
X52981787Y-66623921D01*
X52959843Y-66631773D01*
X52937234Y-66637437D01*
X52914179Y-66640856D01*
X52890900Y-66642000D01*
X52315900Y-66642000D01*
X52292621Y-66640856D01*
X52269566Y-66637437D01*
X52246957Y-66631773D01*
X52225013Y-66623921D01*
X52203943Y-66613956D01*
X52183952Y-66601974D01*
X52165232Y-66588090D01*
X52147962Y-66572438D01*
X52132310Y-66555168D01*
X52118426Y-66536448D01*
X52106444Y-66516457D01*
X52096479Y-66495387D01*
X52088627Y-66473443D01*
X52082963Y-66450834D01*
X52079544Y-66427779D01*
X52078400Y-66404500D01*
X52078400Y-65929500D01*
X52079544Y-65906221D01*
X52082963Y-65883166D01*
X52088627Y-65860557D01*
X52096479Y-65838613D01*
X52106444Y-65817543D01*
X52118426Y-65797552D01*
X52132310Y-65778832D01*
X52147962Y-65761562D01*
X52165232Y-65745910D01*
X52183952Y-65732026D01*
X52203943Y-65720044D01*
X52225013Y-65710079D01*
X52246957Y-65702227D01*
X52269566Y-65696563D01*
X52292621Y-65693144D01*
X52315900Y-65692000D01*
X52890900Y-65692000D01*
X52914179Y-65693144D01*
X52914179Y-65693144D01*
G37*
D11*
X52603400Y-66167000D03*
G04 #@! TD*
D10*
G04 #@! TO.C,R6*
G36*
X65667579Y-65693144D02*
X65690634Y-65696563D01*
X65713243Y-65702227D01*
X65735187Y-65710079D01*
X65756257Y-65720044D01*
X65776248Y-65732026D01*
X65794968Y-65745910D01*
X65812238Y-65761562D01*
X65827890Y-65778832D01*
X65841774Y-65797552D01*
X65853756Y-65817543D01*
X65863721Y-65838613D01*
X65871573Y-65860557D01*
X65877237Y-65883166D01*
X65880656Y-65906221D01*
X65881800Y-65929500D01*
X65881800Y-66404500D01*
X65880656Y-66427779D01*
X65877237Y-66450834D01*
X65871573Y-66473443D01*
X65863721Y-66495387D01*
X65853756Y-66516457D01*
X65841774Y-66536448D01*
X65827890Y-66555168D01*
X65812238Y-66572438D01*
X65794968Y-66588090D01*
X65776248Y-66601974D01*
X65756257Y-66613956D01*
X65735187Y-66623921D01*
X65713243Y-66631773D01*
X65690634Y-66637437D01*
X65667579Y-66640856D01*
X65644300Y-66642000D01*
X65069300Y-66642000D01*
X65046021Y-66640856D01*
X65022966Y-66637437D01*
X65000357Y-66631773D01*
X64978413Y-66623921D01*
X64957343Y-66613956D01*
X64937352Y-66601974D01*
X64918632Y-66588090D01*
X64901362Y-66572438D01*
X64885710Y-66555168D01*
X64871826Y-66536448D01*
X64859844Y-66516457D01*
X64849879Y-66495387D01*
X64842027Y-66473443D01*
X64836363Y-66450834D01*
X64832944Y-66427779D01*
X64831800Y-66404500D01*
X64831800Y-65929500D01*
X64832944Y-65906221D01*
X64836363Y-65883166D01*
X64842027Y-65860557D01*
X64849879Y-65838613D01*
X64859844Y-65817543D01*
X64871826Y-65797552D01*
X64885710Y-65778832D01*
X64901362Y-65761562D01*
X64918632Y-65745910D01*
X64937352Y-65732026D01*
X64957343Y-65720044D01*
X64978413Y-65710079D01*
X65000357Y-65702227D01*
X65022966Y-65696563D01*
X65046021Y-65693144D01*
X65069300Y-65692000D01*
X65644300Y-65692000D01*
X65667579Y-65693144D01*
X65667579Y-65693144D01*
G37*
D11*
X65356800Y-66167000D03*
D10*
G36*
X67417579Y-65693144D02*
X67440634Y-65696563D01*
X67463243Y-65702227D01*
X67485187Y-65710079D01*
X67506257Y-65720044D01*
X67526248Y-65732026D01*
X67544968Y-65745910D01*
X67562238Y-65761562D01*
X67577890Y-65778832D01*
X67591774Y-65797552D01*
X67603756Y-65817543D01*
X67613721Y-65838613D01*
X67621573Y-65860557D01*
X67627237Y-65883166D01*
X67630656Y-65906221D01*
X67631800Y-65929500D01*
X67631800Y-66404500D01*
X67630656Y-66427779D01*
X67627237Y-66450834D01*
X67621573Y-66473443D01*
X67613721Y-66495387D01*
X67603756Y-66516457D01*
X67591774Y-66536448D01*
X67577890Y-66555168D01*
X67562238Y-66572438D01*
X67544968Y-66588090D01*
X67526248Y-66601974D01*
X67506257Y-66613956D01*
X67485187Y-66623921D01*
X67463243Y-66631773D01*
X67440634Y-66637437D01*
X67417579Y-66640856D01*
X67394300Y-66642000D01*
X66819300Y-66642000D01*
X66796021Y-66640856D01*
X66772966Y-66637437D01*
X66750357Y-66631773D01*
X66728413Y-66623921D01*
X66707343Y-66613956D01*
X66687352Y-66601974D01*
X66668632Y-66588090D01*
X66651362Y-66572438D01*
X66635710Y-66555168D01*
X66621826Y-66536448D01*
X66609844Y-66516457D01*
X66599879Y-66495387D01*
X66592027Y-66473443D01*
X66586363Y-66450834D01*
X66582944Y-66427779D01*
X66581800Y-66404500D01*
X66581800Y-65929500D01*
X66582944Y-65906221D01*
X66586363Y-65883166D01*
X66592027Y-65860557D01*
X66599879Y-65838613D01*
X66609844Y-65817543D01*
X66621826Y-65797552D01*
X66635710Y-65778832D01*
X66651362Y-65761562D01*
X66668632Y-65745910D01*
X66687352Y-65732026D01*
X66707343Y-65720044D01*
X66728413Y-65710079D01*
X66750357Y-65702227D01*
X66772966Y-65696563D01*
X66796021Y-65693144D01*
X66819300Y-65692000D01*
X67394300Y-65692000D01*
X67417579Y-65693144D01*
X67417579Y-65693144D01*
G37*
D11*
X67106800Y-66167000D03*
G04 #@! TD*
D10*
G04 #@! TO.C,R7*
G36*
X48723979Y-66102944D02*
X48747034Y-66106363D01*
X48769643Y-66112027D01*
X48791587Y-66119879D01*
X48812657Y-66129844D01*
X48832648Y-66141826D01*
X48851368Y-66155710D01*
X48868638Y-66171362D01*
X48884290Y-66188632D01*
X48898174Y-66207352D01*
X48910156Y-66227343D01*
X48920121Y-66248413D01*
X48927973Y-66270357D01*
X48933637Y-66292966D01*
X48937056Y-66316021D01*
X48938200Y-66339300D01*
X48938200Y-66914300D01*
X48937056Y-66937579D01*
X48933637Y-66960634D01*
X48927973Y-66983243D01*
X48920121Y-67005187D01*
X48910156Y-67026257D01*
X48898174Y-67046248D01*
X48884290Y-67064968D01*
X48868638Y-67082238D01*
X48851368Y-67097890D01*
X48832648Y-67111774D01*
X48812657Y-67123756D01*
X48791587Y-67133721D01*
X48769643Y-67141573D01*
X48747034Y-67147237D01*
X48723979Y-67150656D01*
X48700700Y-67151800D01*
X48225700Y-67151800D01*
X48202421Y-67150656D01*
X48179366Y-67147237D01*
X48156757Y-67141573D01*
X48134813Y-67133721D01*
X48113743Y-67123756D01*
X48093752Y-67111774D01*
X48075032Y-67097890D01*
X48057762Y-67082238D01*
X48042110Y-67064968D01*
X48028226Y-67046248D01*
X48016244Y-67026257D01*
X48006279Y-67005187D01*
X47998427Y-66983243D01*
X47992763Y-66960634D01*
X47989344Y-66937579D01*
X47988200Y-66914300D01*
X47988200Y-66339300D01*
X47989344Y-66316021D01*
X47992763Y-66292966D01*
X47998427Y-66270357D01*
X48006279Y-66248413D01*
X48016244Y-66227343D01*
X48028226Y-66207352D01*
X48042110Y-66188632D01*
X48057762Y-66171362D01*
X48075032Y-66155710D01*
X48093752Y-66141826D01*
X48113743Y-66129844D01*
X48134813Y-66119879D01*
X48156757Y-66112027D01*
X48179366Y-66106363D01*
X48202421Y-66102944D01*
X48225700Y-66101800D01*
X48700700Y-66101800D01*
X48723979Y-66102944D01*
X48723979Y-66102944D01*
G37*
D11*
X48463200Y-66626800D03*
D10*
G36*
X48723979Y-67852944D02*
X48747034Y-67856363D01*
X48769643Y-67862027D01*
X48791587Y-67869879D01*
X48812657Y-67879844D01*
X48832648Y-67891826D01*
X48851368Y-67905710D01*
X48868638Y-67921362D01*
X48884290Y-67938632D01*
X48898174Y-67957352D01*
X48910156Y-67977343D01*
X48920121Y-67998413D01*
X48927973Y-68020357D01*
X48933637Y-68042966D01*
X48937056Y-68066021D01*
X48938200Y-68089300D01*
X48938200Y-68664300D01*
X48937056Y-68687579D01*
X48933637Y-68710634D01*
X48927973Y-68733243D01*
X48920121Y-68755187D01*
X48910156Y-68776257D01*
X48898174Y-68796248D01*
X48884290Y-68814968D01*
X48868638Y-68832238D01*
X48851368Y-68847890D01*
X48832648Y-68861774D01*
X48812657Y-68873756D01*
X48791587Y-68883721D01*
X48769643Y-68891573D01*
X48747034Y-68897237D01*
X48723979Y-68900656D01*
X48700700Y-68901800D01*
X48225700Y-68901800D01*
X48202421Y-68900656D01*
X48179366Y-68897237D01*
X48156757Y-68891573D01*
X48134813Y-68883721D01*
X48113743Y-68873756D01*
X48093752Y-68861774D01*
X48075032Y-68847890D01*
X48057762Y-68832238D01*
X48042110Y-68814968D01*
X48028226Y-68796248D01*
X48016244Y-68776257D01*
X48006279Y-68755187D01*
X47998427Y-68733243D01*
X47992763Y-68710634D01*
X47989344Y-68687579D01*
X47988200Y-68664300D01*
X47988200Y-68089300D01*
X47989344Y-68066021D01*
X47992763Y-68042966D01*
X47998427Y-68020357D01*
X48006279Y-67998413D01*
X48016244Y-67977343D01*
X48028226Y-67957352D01*
X48042110Y-67938632D01*
X48057762Y-67921362D01*
X48075032Y-67905710D01*
X48093752Y-67891826D01*
X48113743Y-67879844D01*
X48134813Y-67869879D01*
X48156757Y-67862027D01*
X48179366Y-67856363D01*
X48202421Y-67852944D01*
X48225700Y-67851800D01*
X48700700Y-67851800D01*
X48723979Y-67852944D01*
X48723979Y-67852944D01*
G37*
D11*
X48463200Y-68376800D03*
G04 #@! TD*
D10*
G04 #@! TO.C,R8*
G36*
X63405179Y-68106944D02*
X63428234Y-68110363D01*
X63450843Y-68116027D01*
X63472787Y-68123879D01*
X63493857Y-68133844D01*
X63513848Y-68145826D01*
X63532568Y-68159710D01*
X63549838Y-68175362D01*
X63565490Y-68192632D01*
X63579374Y-68211352D01*
X63591356Y-68231343D01*
X63601321Y-68252413D01*
X63609173Y-68274357D01*
X63614837Y-68296966D01*
X63618256Y-68320021D01*
X63619400Y-68343300D01*
X63619400Y-68918300D01*
X63618256Y-68941579D01*
X63614837Y-68964634D01*
X63609173Y-68987243D01*
X63601321Y-69009187D01*
X63591356Y-69030257D01*
X63579374Y-69050248D01*
X63565490Y-69068968D01*
X63549838Y-69086238D01*
X63532568Y-69101890D01*
X63513848Y-69115774D01*
X63493857Y-69127756D01*
X63472787Y-69137721D01*
X63450843Y-69145573D01*
X63428234Y-69151237D01*
X63405179Y-69154656D01*
X63381900Y-69155800D01*
X62906900Y-69155800D01*
X62883621Y-69154656D01*
X62860566Y-69151237D01*
X62837957Y-69145573D01*
X62816013Y-69137721D01*
X62794943Y-69127756D01*
X62774952Y-69115774D01*
X62756232Y-69101890D01*
X62738962Y-69086238D01*
X62723310Y-69068968D01*
X62709426Y-69050248D01*
X62697444Y-69030257D01*
X62687479Y-69009187D01*
X62679627Y-68987243D01*
X62673963Y-68964634D01*
X62670544Y-68941579D01*
X62669400Y-68918300D01*
X62669400Y-68343300D01*
X62670544Y-68320021D01*
X62673963Y-68296966D01*
X62679627Y-68274357D01*
X62687479Y-68252413D01*
X62697444Y-68231343D01*
X62709426Y-68211352D01*
X62723310Y-68192632D01*
X62738962Y-68175362D01*
X62756232Y-68159710D01*
X62774952Y-68145826D01*
X62794943Y-68133844D01*
X62816013Y-68123879D01*
X62837957Y-68116027D01*
X62860566Y-68110363D01*
X62883621Y-68106944D01*
X62906900Y-68105800D01*
X63381900Y-68105800D01*
X63405179Y-68106944D01*
X63405179Y-68106944D01*
G37*
D11*
X63144400Y-68630800D03*
D10*
G36*
X63405179Y-66356944D02*
X63428234Y-66360363D01*
X63450843Y-66366027D01*
X63472787Y-66373879D01*
X63493857Y-66383844D01*
X63513848Y-66395826D01*
X63532568Y-66409710D01*
X63549838Y-66425362D01*
X63565490Y-66442632D01*
X63579374Y-66461352D01*
X63591356Y-66481343D01*
X63601321Y-66502413D01*
X63609173Y-66524357D01*
X63614837Y-66546966D01*
X63618256Y-66570021D01*
X63619400Y-66593300D01*
X63619400Y-67168300D01*
X63618256Y-67191579D01*
X63614837Y-67214634D01*
X63609173Y-67237243D01*
X63601321Y-67259187D01*
X63591356Y-67280257D01*
X63579374Y-67300248D01*
X63565490Y-67318968D01*
X63549838Y-67336238D01*
X63532568Y-67351890D01*
X63513848Y-67365774D01*
X63493857Y-67377756D01*
X63472787Y-67387721D01*
X63450843Y-67395573D01*
X63428234Y-67401237D01*
X63405179Y-67404656D01*
X63381900Y-67405800D01*
X62906900Y-67405800D01*
X62883621Y-67404656D01*
X62860566Y-67401237D01*
X62837957Y-67395573D01*
X62816013Y-67387721D01*
X62794943Y-67377756D01*
X62774952Y-67365774D01*
X62756232Y-67351890D01*
X62738962Y-67336238D01*
X62723310Y-67318968D01*
X62709426Y-67300248D01*
X62697444Y-67280257D01*
X62687479Y-67259187D01*
X62679627Y-67237243D01*
X62673963Y-67214634D01*
X62670544Y-67191579D01*
X62669400Y-67168300D01*
X62669400Y-66593300D01*
X62670544Y-66570021D01*
X62673963Y-66546966D01*
X62679627Y-66524357D01*
X62687479Y-66502413D01*
X62697444Y-66481343D01*
X62709426Y-66461352D01*
X62723310Y-66442632D01*
X62738962Y-66425362D01*
X62756232Y-66409710D01*
X62774952Y-66395826D01*
X62794943Y-66383844D01*
X62816013Y-66373879D01*
X62837957Y-66366027D01*
X62860566Y-66360363D01*
X62883621Y-66356944D01*
X62906900Y-66355800D01*
X63381900Y-66355800D01*
X63405179Y-66356944D01*
X63405179Y-66356944D01*
G37*
D11*
X63144400Y-66880800D03*
G04 #@! TD*
D10*
G04 #@! TO.C,R9*
G36*
X58909379Y-71778544D02*
X58932434Y-71781963D01*
X58955043Y-71787627D01*
X58976987Y-71795479D01*
X58998057Y-71805444D01*
X59018048Y-71817426D01*
X59036768Y-71831310D01*
X59054038Y-71846962D01*
X59069690Y-71864232D01*
X59083574Y-71882952D01*
X59095556Y-71902943D01*
X59105521Y-71924013D01*
X59113373Y-71945957D01*
X59119037Y-71968566D01*
X59122456Y-71991621D01*
X59123600Y-72014900D01*
X59123600Y-72589900D01*
X59122456Y-72613179D01*
X59119037Y-72636234D01*
X59113373Y-72658843D01*
X59105521Y-72680787D01*
X59095556Y-72701857D01*
X59083574Y-72721848D01*
X59069690Y-72740568D01*
X59054038Y-72757838D01*
X59036768Y-72773490D01*
X59018048Y-72787374D01*
X58998057Y-72799356D01*
X58976987Y-72809321D01*
X58955043Y-72817173D01*
X58932434Y-72822837D01*
X58909379Y-72826256D01*
X58886100Y-72827400D01*
X58411100Y-72827400D01*
X58387821Y-72826256D01*
X58364766Y-72822837D01*
X58342157Y-72817173D01*
X58320213Y-72809321D01*
X58299143Y-72799356D01*
X58279152Y-72787374D01*
X58260432Y-72773490D01*
X58243162Y-72757838D01*
X58227510Y-72740568D01*
X58213626Y-72721848D01*
X58201644Y-72701857D01*
X58191679Y-72680787D01*
X58183827Y-72658843D01*
X58178163Y-72636234D01*
X58174744Y-72613179D01*
X58173600Y-72589900D01*
X58173600Y-72014900D01*
X58174744Y-71991621D01*
X58178163Y-71968566D01*
X58183827Y-71945957D01*
X58191679Y-71924013D01*
X58201644Y-71902943D01*
X58213626Y-71882952D01*
X58227510Y-71864232D01*
X58243162Y-71846962D01*
X58260432Y-71831310D01*
X58279152Y-71817426D01*
X58299143Y-71805444D01*
X58320213Y-71795479D01*
X58342157Y-71787627D01*
X58364766Y-71781963D01*
X58387821Y-71778544D01*
X58411100Y-71777400D01*
X58886100Y-71777400D01*
X58909379Y-71778544D01*
X58909379Y-71778544D01*
G37*
D11*
X58648600Y-72302400D03*
D10*
G36*
X58909379Y-73528544D02*
X58932434Y-73531963D01*
X58955043Y-73537627D01*
X58976987Y-73545479D01*
X58998057Y-73555444D01*
X59018048Y-73567426D01*
X59036768Y-73581310D01*
X59054038Y-73596962D01*
X59069690Y-73614232D01*
X59083574Y-73632952D01*
X59095556Y-73652943D01*
X59105521Y-73674013D01*
X59113373Y-73695957D01*
X59119037Y-73718566D01*
X59122456Y-73741621D01*
X59123600Y-73764900D01*
X59123600Y-74339900D01*
X59122456Y-74363179D01*
X59119037Y-74386234D01*
X59113373Y-74408843D01*
X59105521Y-74430787D01*
X59095556Y-74451857D01*
X59083574Y-74471848D01*
X59069690Y-74490568D01*
X59054038Y-74507838D01*
X59036768Y-74523490D01*
X59018048Y-74537374D01*
X58998057Y-74549356D01*
X58976987Y-74559321D01*
X58955043Y-74567173D01*
X58932434Y-74572837D01*
X58909379Y-74576256D01*
X58886100Y-74577400D01*
X58411100Y-74577400D01*
X58387821Y-74576256D01*
X58364766Y-74572837D01*
X58342157Y-74567173D01*
X58320213Y-74559321D01*
X58299143Y-74549356D01*
X58279152Y-74537374D01*
X58260432Y-74523490D01*
X58243162Y-74507838D01*
X58227510Y-74490568D01*
X58213626Y-74471848D01*
X58201644Y-74451857D01*
X58191679Y-74430787D01*
X58183827Y-74408843D01*
X58178163Y-74386234D01*
X58174744Y-74363179D01*
X58173600Y-74339900D01*
X58173600Y-73764900D01*
X58174744Y-73741621D01*
X58178163Y-73718566D01*
X58183827Y-73695957D01*
X58191679Y-73674013D01*
X58201644Y-73652943D01*
X58213626Y-73632952D01*
X58227510Y-73614232D01*
X58243162Y-73596962D01*
X58260432Y-73581310D01*
X58279152Y-73567426D01*
X58299143Y-73555444D01*
X58320213Y-73545479D01*
X58342157Y-73537627D01*
X58364766Y-73531963D01*
X58387821Y-73528544D01*
X58411100Y-73527400D01*
X58886100Y-73527400D01*
X58909379Y-73528544D01*
X58909379Y-73528544D01*
G37*
D11*
X58648600Y-74052400D03*
G04 #@! TD*
D10*
G04 #@! TO.C,R10*
G36*
X73565179Y-71778544D02*
X73588234Y-71781963D01*
X73610843Y-71787627D01*
X73632787Y-71795479D01*
X73653857Y-71805444D01*
X73673848Y-71817426D01*
X73692568Y-71831310D01*
X73709838Y-71846962D01*
X73725490Y-71864232D01*
X73739374Y-71882952D01*
X73751356Y-71902943D01*
X73761321Y-71924013D01*
X73769173Y-71945957D01*
X73774837Y-71968566D01*
X73778256Y-71991621D01*
X73779400Y-72014900D01*
X73779400Y-72589900D01*
X73778256Y-72613179D01*
X73774837Y-72636234D01*
X73769173Y-72658843D01*
X73761321Y-72680787D01*
X73751356Y-72701857D01*
X73739374Y-72721848D01*
X73725490Y-72740568D01*
X73709838Y-72757838D01*
X73692568Y-72773490D01*
X73673848Y-72787374D01*
X73653857Y-72799356D01*
X73632787Y-72809321D01*
X73610843Y-72817173D01*
X73588234Y-72822837D01*
X73565179Y-72826256D01*
X73541900Y-72827400D01*
X73066900Y-72827400D01*
X73043621Y-72826256D01*
X73020566Y-72822837D01*
X72997957Y-72817173D01*
X72976013Y-72809321D01*
X72954943Y-72799356D01*
X72934952Y-72787374D01*
X72916232Y-72773490D01*
X72898962Y-72757838D01*
X72883310Y-72740568D01*
X72869426Y-72721848D01*
X72857444Y-72701857D01*
X72847479Y-72680787D01*
X72839627Y-72658843D01*
X72833963Y-72636234D01*
X72830544Y-72613179D01*
X72829400Y-72589900D01*
X72829400Y-72014900D01*
X72830544Y-71991621D01*
X72833963Y-71968566D01*
X72839627Y-71945957D01*
X72847479Y-71924013D01*
X72857444Y-71902943D01*
X72869426Y-71882952D01*
X72883310Y-71864232D01*
X72898962Y-71846962D01*
X72916232Y-71831310D01*
X72934952Y-71817426D01*
X72954943Y-71805444D01*
X72976013Y-71795479D01*
X72997957Y-71787627D01*
X73020566Y-71781963D01*
X73043621Y-71778544D01*
X73066900Y-71777400D01*
X73541900Y-71777400D01*
X73565179Y-71778544D01*
X73565179Y-71778544D01*
G37*
D11*
X73304400Y-72302400D03*
D10*
G36*
X73565179Y-73528544D02*
X73588234Y-73531963D01*
X73610843Y-73537627D01*
X73632787Y-73545479D01*
X73653857Y-73555444D01*
X73673848Y-73567426D01*
X73692568Y-73581310D01*
X73709838Y-73596962D01*
X73725490Y-73614232D01*
X73739374Y-73632952D01*
X73751356Y-73652943D01*
X73761321Y-73674013D01*
X73769173Y-73695957D01*
X73774837Y-73718566D01*
X73778256Y-73741621D01*
X73779400Y-73764900D01*
X73779400Y-74339900D01*
X73778256Y-74363179D01*
X73774837Y-74386234D01*
X73769173Y-74408843D01*
X73761321Y-74430787D01*
X73751356Y-74451857D01*
X73739374Y-74471848D01*
X73725490Y-74490568D01*
X73709838Y-74507838D01*
X73692568Y-74523490D01*
X73673848Y-74537374D01*
X73653857Y-74549356D01*
X73632787Y-74559321D01*
X73610843Y-74567173D01*
X73588234Y-74572837D01*
X73565179Y-74576256D01*
X73541900Y-74577400D01*
X73066900Y-74577400D01*
X73043621Y-74576256D01*
X73020566Y-74572837D01*
X72997957Y-74567173D01*
X72976013Y-74559321D01*
X72954943Y-74549356D01*
X72934952Y-74537374D01*
X72916232Y-74523490D01*
X72898962Y-74507838D01*
X72883310Y-74490568D01*
X72869426Y-74471848D01*
X72857444Y-74451857D01*
X72847479Y-74430787D01*
X72839627Y-74408843D01*
X72833963Y-74386234D01*
X72830544Y-74363179D01*
X72829400Y-74339900D01*
X72829400Y-73764900D01*
X72830544Y-73741621D01*
X72833963Y-73718566D01*
X72839627Y-73695957D01*
X72847479Y-73674013D01*
X72857444Y-73652943D01*
X72869426Y-73632952D01*
X72883310Y-73614232D01*
X72898962Y-73596962D01*
X72916232Y-73581310D01*
X72934952Y-73567426D01*
X72954943Y-73555444D01*
X72976013Y-73545479D01*
X72997957Y-73537627D01*
X73020566Y-73531963D01*
X73043621Y-73528544D01*
X73066900Y-73527400D01*
X73541900Y-73527400D01*
X73565179Y-73528544D01*
X73565179Y-73528544D01*
G37*
D11*
X73304400Y-74052400D03*
G04 #@! TD*
D10*
G04 #@! TO.C,R11*
G36*
X58909379Y-69755344D02*
X58932434Y-69758763D01*
X58955043Y-69764427D01*
X58976987Y-69772279D01*
X58998057Y-69782244D01*
X59018048Y-69794226D01*
X59036768Y-69808110D01*
X59054038Y-69823762D01*
X59069690Y-69841032D01*
X59083574Y-69859752D01*
X59095556Y-69879743D01*
X59105521Y-69900813D01*
X59113373Y-69922757D01*
X59119037Y-69945366D01*
X59122456Y-69968421D01*
X59123600Y-69991700D01*
X59123600Y-70566700D01*
X59122456Y-70589979D01*
X59119037Y-70613034D01*
X59113373Y-70635643D01*
X59105521Y-70657587D01*
X59095556Y-70678657D01*
X59083574Y-70698648D01*
X59069690Y-70717368D01*
X59054038Y-70734638D01*
X59036768Y-70750290D01*
X59018048Y-70764174D01*
X58998057Y-70776156D01*
X58976987Y-70786121D01*
X58955043Y-70793973D01*
X58932434Y-70799637D01*
X58909379Y-70803056D01*
X58886100Y-70804200D01*
X58411100Y-70804200D01*
X58387821Y-70803056D01*
X58364766Y-70799637D01*
X58342157Y-70793973D01*
X58320213Y-70786121D01*
X58299143Y-70776156D01*
X58279152Y-70764174D01*
X58260432Y-70750290D01*
X58243162Y-70734638D01*
X58227510Y-70717368D01*
X58213626Y-70698648D01*
X58201644Y-70678657D01*
X58191679Y-70657587D01*
X58183827Y-70635643D01*
X58178163Y-70613034D01*
X58174744Y-70589979D01*
X58173600Y-70566700D01*
X58173600Y-69991700D01*
X58174744Y-69968421D01*
X58178163Y-69945366D01*
X58183827Y-69922757D01*
X58191679Y-69900813D01*
X58201644Y-69879743D01*
X58213626Y-69859752D01*
X58227510Y-69841032D01*
X58243162Y-69823762D01*
X58260432Y-69808110D01*
X58279152Y-69794226D01*
X58299143Y-69782244D01*
X58320213Y-69772279D01*
X58342157Y-69764427D01*
X58364766Y-69758763D01*
X58387821Y-69755344D01*
X58411100Y-69754200D01*
X58886100Y-69754200D01*
X58909379Y-69755344D01*
X58909379Y-69755344D01*
G37*
D11*
X58648600Y-70279200D03*
D10*
G36*
X58909379Y-68005344D02*
X58932434Y-68008763D01*
X58955043Y-68014427D01*
X58976987Y-68022279D01*
X58998057Y-68032244D01*
X59018048Y-68044226D01*
X59036768Y-68058110D01*
X59054038Y-68073762D01*
X59069690Y-68091032D01*
X59083574Y-68109752D01*
X59095556Y-68129743D01*
X59105521Y-68150813D01*
X59113373Y-68172757D01*
X59119037Y-68195366D01*
X59122456Y-68218421D01*
X59123600Y-68241700D01*
X59123600Y-68816700D01*
X59122456Y-68839979D01*
X59119037Y-68863034D01*
X59113373Y-68885643D01*
X59105521Y-68907587D01*
X59095556Y-68928657D01*
X59083574Y-68948648D01*
X59069690Y-68967368D01*
X59054038Y-68984638D01*
X59036768Y-69000290D01*
X59018048Y-69014174D01*
X58998057Y-69026156D01*
X58976987Y-69036121D01*
X58955043Y-69043973D01*
X58932434Y-69049637D01*
X58909379Y-69053056D01*
X58886100Y-69054200D01*
X58411100Y-69054200D01*
X58387821Y-69053056D01*
X58364766Y-69049637D01*
X58342157Y-69043973D01*
X58320213Y-69036121D01*
X58299143Y-69026156D01*
X58279152Y-69014174D01*
X58260432Y-69000290D01*
X58243162Y-68984638D01*
X58227510Y-68967368D01*
X58213626Y-68948648D01*
X58201644Y-68928657D01*
X58191679Y-68907587D01*
X58183827Y-68885643D01*
X58178163Y-68863034D01*
X58174744Y-68839979D01*
X58173600Y-68816700D01*
X58173600Y-68241700D01*
X58174744Y-68218421D01*
X58178163Y-68195366D01*
X58183827Y-68172757D01*
X58191679Y-68150813D01*
X58201644Y-68129743D01*
X58213626Y-68109752D01*
X58227510Y-68091032D01*
X58243162Y-68073762D01*
X58260432Y-68058110D01*
X58279152Y-68044226D01*
X58299143Y-68032244D01*
X58320213Y-68022279D01*
X58342157Y-68014427D01*
X58364766Y-68008763D01*
X58387821Y-68005344D01*
X58411100Y-68004200D01*
X58886100Y-68004200D01*
X58909379Y-68005344D01*
X58909379Y-68005344D01*
G37*
D11*
X58648600Y-68529200D03*
G04 #@! TD*
D10*
G04 #@! TO.C,R12*
G36*
X73514379Y-68005344D02*
X73537434Y-68008763D01*
X73560043Y-68014427D01*
X73581987Y-68022279D01*
X73603057Y-68032244D01*
X73623048Y-68044226D01*
X73641768Y-68058110D01*
X73659038Y-68073762D01*
X73674690Y-68091032D01*
X73688574Y-68109752D01*
X73700556Y-68129743D01*
X73710521Y-68150813D01*
X73718373Y-68172757D01*
X73724037Y-68195366D01*
X73727456Y-68218421D01*
X73728600Y-68241700D01*
X73728600Y-68816700D01*
X73727456Y-68839979D01*
X73724037Y-68863034D01*
X73718373Y-68885643D01*
X73710521Y-68907587D01*
X73700556Y-68928657D01*
X73688574Y-68948648D01*
X73674690Y-68967368D01*
X73659038Y-68984638D01*
X73641768Y-69000290D01*
X73623048Y-69014174D01*
X73603057Y-69026156D01*
X73581987Y-69036121D01*
X73560043Y-69043973D01*
X73537434Y-69049637D01*
X73514379Y-69053056D01*
X73491100Y-69054200D01*
X73016100Y-69054200D01*
X72992821Y-69053056D01*
X72969766Y-69049637D01*
X72947157Y-69043973D01*
X72925213Y-69036121D01*
X72904143Y-69026156D01*
X72884152Y-69014174D01*
X72865432Y-69000290D01*
X72848162Y-68984638D01*
X72832510Y-68967368D01*
X72818626Y-68948648D01*
X72806644Y-68928657D01*
X72796679Y-68907587D01*
X72788827Y-68885643D01*
X72783163Y-68863034D01*
X72779744Y-68839979D01*
X72778600Y-68816700D01*
X72778600Y-68241700D01*
X72779744Y-68218421D01*
X72783163Y-68195366D01*
X72788827Y-68172757D01*
X72796679Y-68150813D01*
X72806644Y-68129743D01*
X72818626Y-68109752D01*
X72832510Y-68091032D01*
X72848162Y-68073762D01*
X72865432Y-68058110D01*
X72884152Y-68044226D01*
X72904143Y-68032244D01*
X72925213Y-68022279D01*
X72947157Y-68014427D01*
X72969766Y-68008763D01*
X72992821Y-68005344D01*
X73016100Y-68004200D01*
X73491100Y-68004200D01*
X73514379Y-68005344D01*
X73514379Y-68005344D01*
G37*
D11*
X73253600Y-68529200D03*
D10*
G36*
X73514379Y-69755344D02*
X73537434Y-69758763D01*
X73560043Y-69764427D01*
X73581987Y-69772279D01*
X73603057Y-69782244D01*
X73623048Y-69794226D01*
X73641768Y-69808110D01*
X73659038Y-69823762D01*
X73674690Y-69841032D01*
X73688574Y-69859752D01*
X73700556Y-69879743D01*
X73710521Y-69900813D01*
X73718373Y-69922757D01*
X73724037Y-69945366D01*
X73727456Y-69968421D01*
X73728600Y-69991700D01*
X73728600Y-70566700D01*
X73727456Y-70589979D01*
X73724037Y-70613034D01*
X73718373Y-70635643D01*
X73710521Y-70657587D01*
X73700556Y-70678657D01*
X73688574Y-70698648D01*
X73674690Y-70717368D01*
X73659038Y-70734638D01*
X73641768Y-70750290D01*
X73623048Y-70764174D01*
X73603057Y-70776156D01*
X73581987Y-70786121D01*
X73560043Y-70793973D01*
X73537434Y-70799637D01*
X73514379Y-70803056D01*
X73491100Y-70804200D01*
X73016100Y-70804200D01*
X72992821Y-70803056D01*
X72969766Y-70799637D01*
X72947157Y-70793973D01*
X72925213Y-70786121D01*
X72904143Y-70776156D01*
X72884152Y-70764174D01*
X72865432Y-70750290D01*
X72848162Y-70734638D01*
X72832510Y-70717368D01*
X72818626Y-70698648D01*
X72806644Y-70678657D01*
X72796679Y-70657587D01*
X72788827Y-70635643D01*
X72783163Y-70613034D01*
X72779744Y-70589979D01*
X72778600Y-70566700D01*
X72778600Y-69991700D01*
X72779744Y-69968421D01*
X72783163Y-69945366D01*
X72788827Y-69922757D01*
X72796679Y-69900813D01*
X72806644Y-69879743D01*
X72818626Y-69859752D01*
X72832510Y-69841032D01*
X72848162Y-69823762D01*
X72865432Y-69808110D01*
X72884152Y-69794226D01*
X72904143Y-69782244D01*
X72925213Y-69772279D01*
X72947157Y-69764427D01*
X72969766Y-69758763D01*
X72992821Y-69755344D01*
X73016100Y-69754200D01*
X73491100Y-69754200D01*
X73514379Y-69755344D01*
X73514379Y-69755344D01*
G37*
D11*
X73253600Y-70279200D03*
G04 #@! TD*
D13*
G04 #@! TO.C,U1*
X39106200Y-56848800D03*
X39756200Y-56848800D03*
X40406200Y-56848800D03*
X41056200Y-56848800D03*
X41056200Y-50948800D03*
X40406200Y-50948800D03*
X39756200Y-50948800D03*
X39106200Y-50948800D03*
G04 #@! TD*
D14*
G04 #@! TO.C,U2*
X50817800Y-68529200D03*
X50817800Y-69799200D03*
X50817800Y-71069200D03*
X50817800Y-72339200D03*
X56217800Y-72339200D03*
X56217800Y-71069200D03*
X56217800Y-69799200D03*
X56217800Y-68529200D03*
G04 #@! TD*
G04 #@! TO.C,U3*
X71000600Y-68554600D03*
X71000600Y-69824600D03*
X71000600Y-71094600D03*
X71000600Y-72364600D03*
X65600600Y-72364600D03*
X65600600Y-71094600D03*
X65600600Y-69824600D03*
X65600600Y-68554600D03*
G04 #@! TD*
D12*
G04 #@! TO.C,C5*
X49127000Y-56972200D03*
X52727000Y-56972200D03*
G04 #@! TD*
G04 #@! TO.C,C6*
X52727000Y-51816000D03*
X49127000Y-51816000D03*
G04 #@! TD*
D10*
G04 #@! TO.C,C7*
G36*
X57497579Y-56498344D02*
X57520634Y-56501763D01*
X57543243Y-56507427D01*
X57565187Y-56515279D01*
X57586257Y-56525244D01*
X57606248Y-56537226D01*
X57624968Y-56551110D01*
X57642238Y-56566762D01*
X57657890Y-56584032D01*
X57671774Y-56602752D01*
X57683756Y-56622743D01*
X57693721Y-56643813D01*
X57701573Y-56665757D01*
X57707237Y-56688366D01*
X57710656Y-56711421D01*
X57711800Y-56734700D01*
X57711800Y-57209700D01*
X57710656Y-57232979D01*
X57707237Y-57256034D01*
X57701573Y-57278643D01*
X57693721Y-57300587D01*
X57683756Y-57321657D01*
X57671774Y-57341648D01*
X57657890Y-57360368D01*
X57642238Y-57377638D01*
X57624968Y-57393290D01*
X57606248Y-57407174D01*
X57586257Y-57419156D01*
X57565187Y-57429121D01*
X57543243Y-57436973D01*
X57520634Y-57442637D01*
X57497579Y-57446056D01*
X57474300Y-57447200D01*
X56899300Y-57447200D01*
X56876021Y-57446056D01*
X56852966Y-57442637D01*
X56830357Y-57436973D01*
X56808413Y-57429121D01*
X56787343Y-57419156D01*
X56767352Y-57407174D01*
X56748632Y-57393290D01*
X56731362Y-57377638D01*
X56715710Y-57360368D01*
X56701826Y-57341648D01*
X56689844Y-57321657D01*
X56679879Y-57300587D01*
X56672027Y-57278643D01*
X56666363Y-57256034D01*
X56662944Y-57232979D01*
X56661800Y-57209700D01*
X56661800Y-56734700D01*
X56662944Y-56711421D01*
X56666363Y-56688366D01*
X56672027Y-56665757D01*
X56679879Y-56643813D01*
X56689844Y-56622743D01*
X56701826Y-56602752D01*
X56715710Y-56584032D01*
X56731362Y-56566762D01*
X56748632Y-56551110D01*
X56767352Y-56537226D01*
X56787343Y-56525244D01*
X56808413Y-56515279D01*
X56830357Y-56507427D01*
X56852966Y-56501763D01*
X56876021Y-56498344D01*
X56899300Y-56497200D01*
X57474300Y-56497200D01*
X57497579Y-56498344D01*
X57497579Y-56498344D01*
G37*
D11*
X57186800Y-56972200D03*
D10*
G36*
X55747579Y-56498344D02*
X55770634Y-56501763D01*
X55793243Y-56507427D01*
X55815187Y-56515279D01*
X55836257Y-56525244D01*
X55856248Y-56537226D01*
X55874968Y-56551110D01*
X55892238Y-56566762D01*
X55907890Y-56584032D01*
X55921774Y-56602752D01*
X55933756Y-56622743D01*
X55943721Y-56643813D01*
X55951573Y-56665757D01*
X55957237Y-56688366D01*
X55960656Y-56711421D01*
X55961800Y-56734700D01*
X55961800Y-57209700D01*
X55960656Y-57232979D01*
X55957237Y-57256034D01*
X55951573Y-57278643D01*
X55943721Y-57300587D01*
X55933756Y-57321657D01*
X55921774Y-57341648D01*
X55907890Y-57360368D01*
X55892238Y-57377638D01*
X55874968Y-57393290D01*
X55856248Y-57407174D01*
X55836257Y-57419156D01*
X55815187Y-57429121D01*
X55793243Y-57436973D01*
X55770634Y-57442637D01*
X55747579Y-57446056D01*
X55724300Y-57447200D01*
X55149300Y-57447200D01*
X55126021Y-57446056D01*
X55102966Y-57442637D01*
X55080357Y-57436973D01*
X55058413Y-57429121D01*
X55037343Y-57419156D01*
X55017352Y-57407174D01*
X54998632Y-57393290D01*
X54981362Y-57377638D01*
X54965710Y-57360368D01*
X54951826Y-57341648D01*
X54939844Y-57321657D01*
X54929879Y-57300587D01*
X54922027Y-57278643D01*
X54916363Y-57256034D01*
X54912944Y-57232979D01*
X54911800Y-57209700D01*
X54911800Y-56734700D01*
X54912944Y-56711421D01*
X54916363Y-56688366D01*
X54922027Y-56665757D01*
X54929879Y-56643813D01*
X54939844Y-56622743D01*
X54951826Y-56602752D01*
X54965710Y-56584032D01*
X54981362Y-56566762D01*
X54998632Y-56551110D01*
X55017352Y-56537226D01*
X55037343Y-56525244D01*
X55058413Y-56515279D01*
X55080357Y-56507427D01*
X55102966Y-56501763D01*
X55126021Y-56498344D01*
X55149300Y-56497200D01*
X55724300Y-56497200D01*
X55747579Y-56498344D01*
X55747579Y-56498344D01*
G37*
D11*
X55436800Y-56972200D03*
G04 #@! TD*
D10*
G04 #@! TO.C,C8*
G36*
X55936779Y-51342144D02*
X55959834Y-51345563D01*
X55982443Y-51351227D01*
X56004387Y-51359079D01*
X56025457Y-51369044D01*
X56045448Y-51381026D01*
X56064168Y-51394910D01*
X56081438Y-51410562D01*
X56097090Y-51427832D01*
X56110974Y-51446552D01*
X56122956Y-51466543D01*
X56132921Y-51487613D01*
X56140773Y-51509557D01*
X56146437Y-51532166D01*
X56149856Y-51555221D01*
X56151000Y-51578500D01*
X56151000Y-52053500D01*
X56149856Y-52076779D01*
X56146437Y-52099834D01*
X56140773Y-52122443D01*
X56132921Y-52144387D01*
X56122956Y-52165457D01*
X56110974Y-52185448D01*
X56097090Y-52204168D01*
X56081438Y-52221438D01*
X56064168Y-52237090D01*
X56045448Y-52250974D01*
X56025457Y-52262956D01*
X56004387Y-52272921D01*
X55982443Y-52280773D01*
X55959834Y-52286437D01*
X55936779Y-52289856D01*
X55913500Y-52291000D01*
X55338500Y-52291000D01*
X55315221Y-52289856D01*
X55292166Y-52286437D01*
X55269557Y-52280773D01*
X55247613Y-52272921D01*
X55226543Y-52262956D01*
X55206552Y-52250974D01*
X55187832Y-52237090D01*
X55170562Y-52221438D01*
X55154910Y-52204168D01*
X55141026Y-52185448D01*
X55129044Y-52165457D01*
X55119079Y-52144387D01*
X55111227Y-52122443D01*
X55105563Y-52099834D01*
X55102144Y-52076779D01*
X55101000Y-52053500D01*
X55101000Y-51578500D01*
X55102144Y-51555221D01*
X55105563Y-51532166D01*
X55111227Y-51509557D01*
X55119079Y-51487613D01*
X55129044Y-51466543D01*
X55141026Y-51446552D01*
X55154910Y-51427832D01*
X55170562Y-51410562D01*
X55187832Y-51394910D01*
X55206552Y-51381026D01*
X55226543Y-51369044D01*
X55247613Y-51359079D01*
X55269557Y-51351227D01*
X55292166Y-51345563D01*
X55315221Y-51342144D01*
X55338500Y-51341000D01*
X55913500Y-51341000D01*
X55936779Y-51342144D01*
X55936779Y-51342144D01*
G37*
D11*
X55626000Y-51816000D03*
D10*
G36*
X57686779Y-51342144D02*
X57709834Y-51345563D01*
X57732443Y-51351227D01*
X57754387Y-51359079D01*
X57775457Y-51369044D01*
X57795448Y-51381026D01*
X57814168Y-51394910D01*
X57831438Y-51410562D01*
X57847090Y-51427832D01*
X57860974Y-51446552D01*
X57872956Y-51466543D01*
X57882921Y-51487613D01*
X57890773Y-51509557D01*
X57896437Y-51532166D01*
X57899856Y-51555221D01*
X57901000Y-51578500D01*
X57901000Y-52053500D01*
X57899856Y-52076779D01*
X57896437Y-52099834D01*
X57890773Y-52122443D01*
X57882921Y-52144387D01*
X57872956Y-52165457D01*
X57860974Y-52185448D01*
X57847090Y-52204168D01*
X57831438Y-52221438D01*
X57814168Y-52237090D01*
X57795448Y-52250974D01*
X57775457Y-52262956D01*
X57754387Y-52272921D01*
X57732443Y-52280773D01*
X57709834Y-52286437D01*
X57686779Y-52289856D01*
X57663500Y-52291000D01*
X57088500Y-52291000D01*
X57065221Y-52289856D01*
X57042166Y-52286437D01*
X57019557Y-52280773D01*
X56997613Y-52272921D01*
X56976543Y-52262956D01*
X56956552Y-52250974D01*
X56937832Y-52237090D01*
X56920562Y-52221438D01*
X56904910Y-52204168D01*
X56891026Y-52185448D01*
X56879044Y-52165457D01*
X56869079Y-52144387D01*
X56861227Y-52122443D01*
X56855563Y-52099834D01*
X56852144Y-52076779D01*
X56851000Y-52053500D01*
X56851000Y-51578500D01*
X56852144Y-51555221D01*
X56855563Y-51532166D01*
X56861227Y-51509557D01*
X56869079Y-51487613D01*
X56879044Y-51466543D01*
X56891026Y-51446552D01*
X56904910Y-51427832D01*
X56920562Y-51410562D01*
X56937832Y-51394910D01*
X56956552Y-51381026D01*
X56976543Y-51369044D01*
X56997613Y-51359079D01*
X57019557Y-51351227D01*
X57042166Y-51345563D01*
X57065221Y-51342144D01*
X57088500Y-51341000D01*
X57663500Y-51341000D01*
X57686779Y-51342144D01*
X57686779Y-51342144D01*
G37*
D11*
X57376000Y-51816000D03*
G04 #@! TD*
D10*
G04 #@! TO.C,C9*
G36*
X42818979Y-56644944D02*
X42842034Y-56648363D01*
X42864643Y-56654027D01*
X42886587Y-56661879D01*
X42907657Y-56671844D01*
X42927648Y-56683826D01*
X42946368Y-56697710D01*
X42963638Y-56713362D01*
X42979290Y-56730632D01*
X42993174Y-56749352D01*
X43005156Y-56769343D01*
X43015121Y-56790413D01*
X43022973Y-56812357D01*
X43028637Y-56834966D01*
X43032056Y-56858021D01*
X43033200Y-56881300D01*
X43033200Y-57356300D01*
X43032056Y-57379579D01*
X43028637Y-57402634D01*
X43022973Y-57425243D01*
X43015121Y-57447187D01*
X43005156Y-57468257D01*
X42993174Y-57488248D01*
X42979290Y-57506968D01*
X42963638Y-57524238D01*
X42946368Y-57539890D01*
X42927648Y-57553774D01*
X42907657Y-57565756D01*
X42886587Y-57575721D01*
X42864643Y-57583573D01*
X42842034Y-57589237D01*
X42818979Y-57592656D01*
X42795700Y-57593800D01*
X42220700Y-57593800D01*
X42197421Y-57592656D01*
X42174366Y-57589237D01*
X42151757Y-57583573D01*
X42129813Y-57575721D01*
X42108743Y-57565756D01*
X42088752Y-57553774D01*
X42070032Y-57539890D01*
X42052762Y-57524238D01*
X42037110Y-57506968D01*
X42023226Y-57488248D01*
X42011244Y-57468257D01*
X42001279Y-57447187D01*
X41993427Y-57425243D01*
X41987763Y-57402634D01*
X41984344Y-57379579D01*
X41983200Y-57356300D01*
X41983200Y-56881300D01*
X41984344Y-56858021D01*
X41987763Y-56834966D01*
X41993427Y-56812357D01*
X42001279Y-56790413D01*
X42011244Y-56769343D01*
X42023226Y-56749352D01*
X42037110Y-56730632D01*
X42052762Y-56713362D01*
X42070032Y-56697710D01*
X42088752Y-56683826D01*
X42108743Y-56671844D01*
X42129813Y-56661879D01*
X42151757Y-56654027D01*
X42174366Y-56648363D01*
X42197421Y-56644944D01*
X42220700Y-56643800D01*
X42795700Y-56643800D01*
X42818979Y-56644944D01*
X42818979Y-56644944D01*
G37*
D11*
X42508200Y-57118800D03*
D10*
G36*
X44568979Y-56644944D02*
X44592034Y-56648363D01*
X44614643Y-56654027D01*
X44636587Y-56661879D01*
X44657657Y-56671844D01*
X44677648Y-56683826D01*
X44696368Y-56697710D01*
X44713638Y-56713362D01*
X44729290Y-56730632D01*
X44743174Y-56749352D01*
X44755156Y-56769343D01*
X44765121Y-56790413D01*
X44772973Y-56812357D01*
X44778637Y-56834966D01*
X44782056Y-56858021D01*
X44783200Y-56881300D01*
X44783200Y-57356300D01*
X44782056Y-57379579D01*
X44778637Y-57402634D01*
X44772973Y-57425243D01*
X44765121Y-57447187D01*
X44755156Y-57468257D01*
X44743174Y-57488248D01*
X44729290Y-57506968D01*
X44713638Y-57524238D01*
X44696368Y-57539890D01*
X44677648Y-57553774D01*
X44657657Y-57565756D01*
X44636587Y-57575721D01*
X44614643Y-57583573D01*
X44592034Y-57589237D01*
X44568979Y-57592656D01*
X44545700Y-57593800D01*
X43970700Y-57593800D01*
X43947421Y-57592656D01*
X43924366Y-57589237D01*
X43901757Y-57583573D01*
X43879813Y-57575721D01*
X43858743Y-57565756D01*
X43838752Y-57553774D01*
X43820032Y-57539890D01*
X43802762Y-57524238D01*
X43787110Y-57506968D01*
X43773226Y-57488248D01*
X43761244Y-57468257D01*
X43751279Y-57447187D01*
X43743427Y-57425243D01*
X43737763Y-57402634D01*
X43734344Y-57379579D01*
X43733200Y-57356300D01*
X43733200Y-56881300D01*
X43734344Y-56858021D01*
X43737763Y-56834966D01*
X43743427Y-56812357D01*
X43751279Y-56790413D01*
X43761244Y-56769343D01*
X43773226Y-56749352D01*
X43787110Y-56730632D01*
X43802762Y-56713362D01*
X43820032Y-56697710D01*
X43838752Y-56683826D01*
X43858743Y-56671844D01*
X43879813Y-56661879D01*
X43901757Y-56654027D01*
X43924366Y-56648363D01*
X43947421Y-56644944D01*
X43970700Y-56643800D01*
X44545700Y-56643800D01*
X44568979Y-56644944D01*
X44568979Y-56644944D01*
G37*
D11*
X44258200Y-57118800D03*
G04 #@! TD*
D10*
G04 #@! TO.C,C10*
G36*
X42830379Y-49157744D02*
X42853434Y-49161163D01*
X42876043Y-49166827D01*
X42897987Y-49174679D01*
X42919057Y-49184644D01*
X42939048Y-49196626D01*
X42957768Y-49210510D01*
X42975038Y-49226162D01*
X42990690Y-49243432D01*
X43004574Y-49262152D01*
X43016556Y-49282143D01*
X43026521Y-49303213D01*
X43034373Y-49325157D01*
X43040037Y-49347766D01*
X43043456Y-49370821D01*
X43044600Y-49394100D01*
X43044600Y-49869100D01*
X43043456Y-49892379D01*
X43040037Y-49915434D01*
X43034373Y-49938043D01*
X43026521Y-49959987D01*
X43016556Y-49981057D01*
X43004574Y-50001048D01*
X42990690Y-50019768D01*
X42975038Y-50037038D01*
X42957768Y-50052690D01*
X42939048Y-50066574D01*
X42919057Y-50078556D01*
X42897987Y-50088521D01*
X42876043Y-50096373D01*
X42853434Y-50102037D01*
X42830379Y-50105456D01*
X42807100Y-50106600D01*
X42232100Y-50106600D01*
X42208821Y-50105456D01*
X42185766Y-50102037D01*
X42163157Y-50096373D01*
X42141213Y-50088521D01*
X42120143Y-50078556D01*
X42100152Y-50066574D01*
X42081432Y-50052690D01*
X42064162Y-50037038D01*
X42048510Y-50019768D01*
X42034626Y-50001048D01*
X42022644Y-49981057D01*
X42012679Y-49959987D01*
X42004827Y-49938043D01*
X41999163Y-49915434D01*
X41995744Y-49892379D01*
X41994600Y-49869100D01*
X41994600Y-49394100D01*
X41995744Y-49370821D01*
X41999163Y-49347766D01*
X42004827Y-49325157D01*
X42012679Y-49303213D01*
X42022644Y-49282143D01*
X42034626Y-49262152D01*
X42048510Y-49243432D01*
X42064162Y-49226162D01*
X42081432Y-49210510D01*
X42100152Y-49196626D01*
X42120143Y-49184644D01*
X42141213Y-49174679D01*
X42163157Y-49166827D01*
X42185766Y-49161163D01*
X42208821Y-49157744D01*
X42232100Y-49156600D01*
X42807100Y-49156600D01*
X42830379Y-49157744D01*
X42830379Y-49157744D01*
G37*
D11*
X42519600Y-49631600D03*
D10*
G36*
X44580379Y-49157744D02*
X44603434Y-49161163D01*
X44626043Y-49166827D01*
X44647987Y-49174679D01*
X44669057Y-49184644D01*
X44689048Y-49196626D01*
X44707768Y-49210510D01*
X44725038Y-49226162D01*
X44740690Y-49243432D01*
X44754574Y-49262152D01*
X44766556Y-49282143D01*
X44776521Y-49303213D01*
X44784373Y-49325157D01*
X44790037Y-49347766D01*
X44793456Y-49370821D01*
X44794600Y-49394100D01*
X44794600Y-49869100D01*
X44793456Y-49892379D01*
X44790037Y-49915434D01*
X44784373Y-49938043D01*
X44776521Y-49959987D01*
X44766556Y-49981057D01*
X44754574Y-50001048D01*
X44740690Y-50019768D01*
X44725038Y-50037038D01*
X44707768Y-50052690D01*
X44689048Y-50066574D01*
X44669057Y-50078556D01*
X44647987Y-50088521D01*
X44626043Y-50096373D01*
X44603434Y-50102037D01*
X44580379Y-50105456D01*
X44557100Y-50106600D01*
X43982100Y-50106600D01*
X43958821Y-50105456D01*
X43935766Y-50102037D01*
X43913157Y-50096373D01*
X43891213Y-50088521D01*
X43870143Y-50078556D01*
X43850152Y-50066574D01*
X43831432Y-50052690D01*
X43814162Y-50037038D01*
X43798510Y-50019768D01*
X43784626Y-50001048D01*
X43772644Y-49981057D01*
X43762679Y-49959987D01*
X43754827Y-49938043D01*
X43749163Y-49915434D01*
X43745744Y-49892379D01*
X43744600Y-49869100D01*
X43744600Y-49394100D01*
X43745744Y-49370821D01*
X43749163Y-49347766D01*
X43754827Y-49325157D01*
X43762679Y-49303213D01*
X43772644Y-49282143D01*
X43784626Y-49262152D01*
X43798510Y-49243432D01*
X43814162Y-49226162D01*
X43831432Y-49210510D01*
X43850152Y-49196626D01*
X43870143Y-49184644D01*
X43891213Y-49174679D01*
X43913157Y-49166827D01*
X43935766Y-49161163D01*
X43958821Y-49157744D01*
X43982100Y-49156600D01*
X44557100Y-49156600D01*
X44580379Y-49157744D01*
X44580379Y-49157744D01*
G37*
D11*
X44269600Y-49631600D03*
G04 #@! TD*
D10*
G04 #@! TO.C,C11*
G36*
X49079579Y-73731744D02*
X49102634Y-73735163D01*
X49125243Y-73740827D01*
X49147187Y-73748679D01*
X49168257Y-73758644D01*
X49188248Y-73770626D01*
X49206968Y-73784510D01*
X49224238Y-73800162D01*
X49239890Y-73817432D01*
X49253774Y-73836152D01*
X49265756Y-73856143D01*
X49275721Y-73877213D01*
X49283573Y-73899157D01*
X49289237Y-73921766D01*
X49292656Y-73944821D01*
X49293800Y-73968100D01*
X49293800Y-74543100D01*
X49292656Y-74566379D01*
X49289237Y-74589434D01*
X49283573Y-74612043D01*
X49275721Y-74633987D01*
X49265756Y-74655057D01*
X49253774Y-74675048D01*
X49239890Y-74693768D01*
X49224238Y-74711038D01*
X49206968Y-74726690D01*
X49188248Y-74740574D01*
X49168257Y-74752556D01*
X49147187Y-74762521D01*
X49125243Y-74770373D01*
X49102634Y-74776037D01*
X49079579Y-74779456D01*
X49056300Y-74780600D01*
X48581300Y-74780600D01*
X48558021Y-74779456D01*
X48534966Y-74776037D01*
X48512357Y-74770373D01*
X48490413Y-74762521D01*
X48469343Y-74752556D01*
X48449352Y-74740574D01*
X48430632Y-74726690D01*
X48413362Y-74711038D01*
X48397710Y-74693768D01*
X48383826Y-74675048D01*
X48371844Y-74655057D01*
X48361879Y-74633987D01*
X48354027Y-74612043D01*
X48348363Y-74589434D01*
X48344944Y-74566379D01*
X48343800Y-74543100D01*
X48343800Y-73968100D01*
X48344944Y-73944821D01*
X48348363Y-73921766D01*
X48354027Y-73899157D01*
X48361879Y-73877213D01*
X48371844Y-73856143D01*
X48383826Y-73836152D01*
X48397710Y-73817432D01*
X48413362Y-73800162D01*
X48430632Y-73784510D01*
X48449352Y-73770626D01*
X48469343Y-73758644D01*
X48490413Y-73748679D01*
X48512357Y-73740827D01*
X48534966Y-73735163D01*
X48558021Y-73731744D01*
X48581300Y-73730600D01*
X49056300Y-73730600D01*
X49079579Y-73731744D01*
X49079579Y-73731744D01*
G37*
D11*
X48818800Y-74255600D03*
D10*
G36*
X49079579Y-71981744D02*
X49102634Y-71985163D01*
X49125243Y-71990827D01*
X49147187Y-71998679D01*
X49168257Y-72008644D01*
X49188248Y-72020626D01*
X49206968Y-72034510D01*
X49224238Y-72050162D01*
X49239890Y-72067432D01*
X49253774Y-72086152D01*
X49265756Y-72106143D01*
X49275721Y-72127213D01*
X49283573Y-72149157D01*
X49289237Y-72171766D01*
X49292656Y-72194821D01*
X49293800Y-72218100D01*
X49293800Y-72793100D01*
X49292656Y-72816379D01*
X49289237Y-72839434D01*
X49283573Y-72862043D01*
X49275721Y-72883987D01*
X49265756Y-72905057D01*
X49253774Y-72925048D01*
X49239890Y-72943768D01*
X49224238Y-72961038D01*
X49206968Y-72976690D01*
X49188248Y-72990574D01*
X49168257Y-73002556D01*
X49147187Y-73012521D01*
X49125243Y-73020373D01*
X49102634Y-73026037D01*
X49079579Y-73029456D01*
X49056300Y-73030600D01*
X48581300Y-73030600D01*
X48558021Y-73029456D01*
X48534966Y-73026037D01*
X48512357Y-73020373D01*
X48490413Y-73012521D01*
X48469343Y-73002556D01*
X48449352Y-72990574D01*
X48430632Y-72976690D01*
X48413362Y-72961038D01*
X48397710Y-72943768D01*
X48383826Y-72925048D01*
X48371844Y-72905057D01*
X48361879Y-72883987D01*
X48354027Y-72862043D01*
X48348363Y-72839434D01*
X48344944Y-72816379D01*
X48343800Y-72793100D01*
X48343800Y-72218100D01*
X48344944Y-72194821D01*
X48348363Y-72171766D01*
X48354027Y-72149157D01*
X48361879Y-72127213D01*
X48371844Y-72106143D01*
X48383826Y-72086152D01*
X48397710Y-72067432D01*
X48413362Y-72050162D01*
X48430632Y-72034510D01*
X48449352Y-72020626D01*
X48469343Y-72008644D01*
X48490413Y-71998679D01*
X48512357Y-71990827D01*
X48534966Y-71985163D01*
X48558021Y-71981744D01*
X48581300Y-71980600D01*
X49056300Y-71980600D01*
X49079579Y-71981744D01*
X49079579Y-71981744D01*
G37*
D11*
X48818800Y-72505600D03*
G04 #@! TD*
D10*
G04 #@! TO.C,C12*
G36*
X58270979Y-65515344D02*
X58294034Y-65518763D01*
X58316643Y-65524427D01*
X58338587Y-65532279D01*
X58359657Y-65542244D01*
X58379648Y-65554226D01*
X58398368Y-65568110D01*
X58415638Y-65583762D01*
X58431290Y-65601032D01*
X58445174Y-65619752D01*
X58457156Y-65639743D01*
X58467121Y-65660813D01*
X58474973Y-65682757D01*
X58480637Y-65705366D01*
X58484056Y-65728421D01*
X58485200Y-65751700D01*
X58485200Y-66226700D01*
X58484056Y-66249979D01*
X58480637Y-66273034D01*
X58474973Y-66295643D01*
X58467121Y-66317587D01*
X58457156Y-66338657D01*
X58445174Y-66358648D01*
X58431290Y-66377368D01*
X58415638Y-66394638D01*
X58398368Y-66410290D01*
X58379648Y-66424174D01*
X58359657Y-66436156D01*
X58338587Y-66446121D01*
X58316643Y-66453973D01*
X58294034Y-66459637D01*
X58270979Y-66463056D01*
X58247700Y-66464200D01*
X57672700Y-66464200D01*
X57649421Y-66463056D01*
X57626366Y-66459637D01*
X57603757Y-66453973D01*
X57581813Y-66446121D01*
X57560743Y-66436156D01*
X57540752Y-66424174D01*
X57522032Y-66410290D01*
X57504762Y-66394638D01*
X57489110Y-66377368D01*
X57475226Y-66358648D01*
X57463244Y-66338657D01*
X57453279Y-66317587D01*
X57445427Y-66295643D01*
X57439763Y-66273034D01*
X57436344Y-66249979D01*
X57435200Y-66226700D01*
X57435200Y-65751700D01*
X57436344Y-65728421D01*
X57439763Y-65705366D01*
X57445427Y-65682757D01*
X57453279Y-65660813D01*
X57463244Y-65639743D01*
X57475226Y-65619752D01*
X57489110Y-65601032D01*
X57504762Y-65583762D01*
X57522032Y-65568110D01*
X57540752Y-65554226D01*
X57560743Y-65542244D01*
X57581813Y-65532279D01*
X57603757Y-65524427D01*
X57626366Y-65518763D01*
X57649421Y-65515344D01*
X57672700Y-65514200D01*
X58247700Y-65514200D01*
X58270979Y-65515344D01*
X58270979Y-65515344D01*
G37*
D11*
X57960200Y-65989200D03*
D10*
G36*
X56520979Y-65515344D02*
X56544034Y-65518763D01*
X56566643Y-65524427D01*
X56588587Y-65532279D01*
X56609657Y-65542244D01*
X56629648Y-65554226D01*
X56648368Y-65568110D01*
X56665638Y-65583762D01*
X56681290Y-65601032D01*
X56695174Y-65619752D01*
X56707156Y-65639743D01*
X56717121Y-65660813D01*
X56724973Y-65682757D01*
X56730637Y-65705366D01*
X56734056Y-65728421D01*
X56735200Y-65751700D01*
X56735200Y-66226700D01*
X56734056Y-66249979D01*
X56730637Y-66273034D01*
X56724973Y-66295643D01*
X56717121Y-66317587D01*
X56707156Y-66338657D01*
X56695174Y-66358648D01*
X56681290Y-66377368D01*
X56665638Y-66394638D01*
X56648368Y-66410290D01*
X56629648Y-66424174D01*
X56609657Y-66436156D01*
X56588587Y-66446121D01*
X56566643Y-66453973D01*
X56544034Y-66459637D01*
X56520979Y-66463056D01*
X56497700Y-66464200D01*
X55922700Y-66464200D01*
X55899421Y-66463056D01*
X55876366Y-66459637D01*
X55853757Y-66453973D01*
X55831813Y-66446121D01*
X55810743Y-66436156D01*
X55790752Y-66424174D01*
X55772032Y-66410290D01*
X55754762Y-66394638D01*
X55739110Y-66377368D01*
X55725226Y-66358648D01*
X55713244Y-66338657D01*
X55703279Y-66317587D01*
X55695427Y-66295643D01*
X55689763Y-66273034D01*
X55686344Y-66249979D01*
X55685200Y-66226700D01*
X55685200Y-65751700D01*
X55686344Y-65728421D01*
X55689763Y-65705366D01*
X55695427Y-65682757D01*
X55703279Y-65660813D01*
X55713244Y-65639743D01*
X55725226Y-65619752D01*
X55739110Y-65601032D01*
X55754762Y-65583762D01*
X55772032Y-65568110D01*
X55790752Y-65554226D01*
X55810743Y-65542244D01*
X55831813Y-65532279D01*
X55853757Y-65524427D01*
X55876366Y-65518763D01*
X55899421Y-65515344D01*
X55922700Y-65514200D01*
X56497700Y-65514200D01*
X56520979Y-65515344D01*
X56520979Y-65515344D01*
G37*
D11*
X56210200Y-65989200D03*
G04 #@! TD*
D10*
G04 #@! TO.C,C13*
G36*
X64166379Y-73744944D02*
X64189434Y-73748363D01*
X64212043Y-73754027D01*
X64233987Y-73761879D01*
X64255057Y-73771844D01*
X64275048Y-73783826D01*
X64293768Y-73797710D01*
X64311038Y-73813362D01*
X64326690Y-73830632D01*
X64340574Y-73849352D01*
X64352556Y-73869343D01*
X64362521Y-73890413D01*
X64370373Y-73912357D01*
X64376037Y-73934966D01*
X64379456Y-73958021D01*
X64380600Y-73981300D01*
X64380600Y-74456300D01*
X64379456Y-74479579D01*
X64376037Y-74502634D01*
X64370373Y-74525243D01*
X64362521Y-74547187D01*
X64352556Y-74568257D01*
X64340574Y-74588248D01*
X64326690Y-74606968D01*
X64311038Y-74624238D01*
X64293768Y-74639890D01*
X64275048Y-74653774D01*
X64255057Y-74665756D01*
X64233987Y-74675721D01*
X64212043Y-74683573D01*
X64189434Y-74689237D01*
X64166379Y-74692656D01*
X64143100Y-74693800D01*
X63568100Y-74693800D01*
X63544821Y-74692656D01*
X63521766Y-74689237D01*
X63499157Y-74683573D01*
X63477213Y-74675721D01*
X63456143Y-74665756D01*
X63436152Y-74653774D01*
X63417432Y-74639890D01*
X63400162Y-74624238D01*
X63384510Y-74606968D01*
X63370626Y-74588248D01*
X63358644Y-74568257D01*
X63348679Y-74547187D01*
X63340827Y-74525243D01*
X63335163Y-74502634D01*
X63331744Y-74479579D01*
X63330600Y-74456300D01*
X63330600Y-73981300D01*
X63331744Y-73958021D01*
X63335163Y-73934966D01*
X63340827Y-73912357D01*
X63348679Y-73890413D01*
X63358644Y-73869343D01*
X63370626Y-73849352D01*
X63384510Y-73830632D01*
X63400162Y-73813362D01*
X63417432Y-73797710D01*
X63436152Y-73783826D01*
X63456143Y-73771844D01*
X63477213Y-73761879D01*
X63499157Y-73754027D01*
X63521766Y-73748363D01*
X63544821Y-73744944D01*
X63568100Y-73743800D01*
X64143100Y-73743800D01*
X64166379Y-73744944D01*
X64166379Y-73744944D01*
G37*
D11*
X63855600Y-74218800D03*
D10*
G36*
X65916379Y-73744944D02*
X65939434Y-73748363D01*
X65962043Y-73754027D01*
X65983987Y-73761879D01*
X66005057Y-73771844D01*
X66025048Y-73783826D01*
X66043768Y-73797710D01*
X66061038Y-73813362D01*
X66076690Y-73830632D01*
X66090574Y-73849352D01*
X66102556Y-73869343D01*
X66112521Y-73890413D01*
X66120373Y-73912357D01*
X66126037Y-73934966D01*
X66129456Y-73958021D01*
X66130600Y-73981300D01*
X66130600Y-74456300D01*
X66129456Y-74479579D01*
X66126037Y-74502634D01*
X66120373Y-74525243D01*
X66112521Y-74547187D01*
X66102556Y-74568257D01*
X66090574Y-74588248D01*
X66076690Y-74606968D01*
X66061038Y-74624238D01*
X66043768Y-74639890D01*
X66025048Y-74653774D01*
X66005057Y-74665756D01*
X65983987Y-74675721D01*
X65962043Y-74683573D01*
X65939434Y-74689237D01*
X65916379Y-74692656D01*
X65893100Y-74693800D01*
X65318100Y-74693800D01*
X65294821Y-74692656D01*
X65271766Y-74689237D01*
X65249157Y-74683573D01*
X65227213Y-74675721D01*
X65206143Y-74665756D01*
X65186152Y-74653774D01*
X65167432Y-74639890D01*
X65150162Y-74624238D01*
X65134510Y-74606968D01*
X65120626Y-74588248D01*
X65108644Y-74568257D01*
X65098679Y-74547187D01*
X65090827Y-74525243D01*
X65085163Y-74502634D01*
X65081744Y-74479579D01*
X65080600Y-74456300D01*
X65080600Y-73981300D01*
X65081744Y-73958021D01*
X65085163Y-73934966D01*
X65090827Y-73912357D01*
X65098679Y-73890413D01*
X65108644Y-73869343D01*
X65120626Y-73849352D01*
X65134510Y-73830632D01*
X65150162Y-73813362D01*
X65167432Y-73797710D01*
X65186152Y-73783826D01*
X65206143Y-73771844D01*
X65227213Y-73761879D01*
X65249157Y-73754027D01*
X65271766Y-73748363D01*
X65294821Y-73744944D01*
X65318100Y-73743800D01*
X65893100Y-73743800D01*
X65916379Y-73744944D01*
X65916379Y-73744944D01*
G37*
D11*
X65605600Y-74218800D03*
G04 #@! TD*
D10*
G04 #@! TO.C,C14*
G36*
X73053779Y-65794744D02*
X73076834Y-65798163D01*
X73099443Y-65803827D01*
X73121387Y-65811679D01*
X73142457Y-65821644D01*
X73162448Y-65833626D01*
X73181168Y-65847510D01*
X73198438Y-65863162D01*
X73214090Y-65880432D01*
X73227974Y-65899152D01*
X73239956Y-65919143D01*
X73249921Y-65940213D01*
X73257773Y-65962157D01*
X73263437Y-65984766D01*
X73266856Y-66007821D01*
X73268000Y-66031100D01*
X73268000Y-66506100D01*
X73266856Y-66529379D01*
X73263437Y-66552434D01*
X73257773Y-66575043D01*
X73249921Y-66596987D01*
X73239956Y-66618057D01*
X73227974Y-66638048D01*
X73214090Y-66656768D01*
X73198438Y-66674038D01*
X73181168Y-66689690D01*
X73162448Y-66703574D01*
X73142457Y-66715556D01*
X73121387Y-66725521D01*
X73099443Y-66733373D01*
X73076834Y-66739037D01*
X73053779Y-66742456D01*
X73030500Y-66743600D01*
X72455500Y-66743600D01*
X72432221Y-66742456D01*
X72409166Y-66739037D01*
X72386557Y-66733373D01*
X72364613Y-66725521D01*
X72343543Y-66715556D01*
X72323552Y-66703574D01*
X72304832Y-66689690D01*
X72287562Y-66674038D01*
X72271910Y-66656768D01*
X72258026Y-66638048D01*
X72246044Y-66618057D01*
X72236079Y-66596987D01*
X72228227Y-66575043D01*
X72222563Y-66552434D01*
X72219144Y-66529379D01*
X72218000Y-66506100D01*
X72218000Y-66031100D01*
X72219144Y-66007821D01*
X72222563Y-65984766D01*
X72228227Y-65962157D01*
X72236079Y-65940213D01*
X72246044Y-65919143D01*
X72258026Y-65899152D01*
X72271910Y-65880432D01*
X72287562Y-65863162D01*
X72304832Y-65847510D01*
X72323552Y-65833626D01*
X72343543Y-65821644D01*
X72364613Y-65811679D01*
X72386557Y-65803827D01*
X72409166Y-65798163D01*
X72432221Y-65794744D01*
X72455500Y-65793600D01*
X73030500Y-65793600D01*
X73053779Y-65794744D01*
X73053779Y-65794744D01*
G37*
D11*
X72743000Y-66268600D03*
D10*
G36*
X71303779Y-65794744D02*
X71326834Y-65798163D01*
X71349443Y-65803827D01*
X71371387Y-65811679D01*
X71392457Y-65821644D01*
X71412448Y-65833626D01*
X71431168Y-65847510D01*
X71448438Y-65863162D01*
X71464090Y-65880432D01*
X71477974Y-65899152D01*
X71489956Y-65919143D01*
X71499921Y-65940213D01*
X71507773Y-65962157D01*
X71513437Y-65984766D01*
X71516856Y-66007821D01*
X71518000Y-66031100D01*
X71518000Y-66506100D01*
X71516856Y-66529379D01*
X71513437Y-66552434D01*
X71507773Y-66575043D01*
X71499921Y-66596987D01*
X71489956Y-66618057D01*
X71477974Y-66638048D01*
X71464090Y-66656768D01*
X71448438Y-66674038D01*
X71431168Y-66689690D01*
X71412448Y-66703574D01*
X71392457Y-66715556D01*
X71371387Y-66725521D01*
X71349443Y-66733373D01*
X71326834Y-66739037D01*
X71303779Y-66742456D01*
X71280500Y-66743600D01*
X70705500Y-66743600D01*
X70682221Y-66742456D01*
X70659166Y-66739037D01*
X70636557Y-66733373D01*
X70614613Y-66725521D01*
X70593543Y-66715556D01*
X70573552Y-66703574D01*
X70554832Y-66689690D01*
X70537562Y-66674038D01*
X70521910Y-66656768D01*
X70508026Y-66638048D01*
X70496044Y-66618057D01*
X70486079Y-66596987D01*
X70478227Y-66575043D01*
X70472563Y-66552434D01*
X70469144Y-66529379D01*
X70468000Y-66506100D01*
X70468000Y-66031100D01*
X70469144Y-66007821D01*
X70472563Y-65984766D01*
X70478227Y-65962157D01*
X70486079Y-65940213D01*
X70496044Y-65919143D01*
X70508026Y-65899152D01*
X70521910Y-65880432D01*
X70537562Y-65863162D01*
X70554832Y-65847510D01*
X70573552Y-65833626D01*
X70593543Y-65821644D01*
X70614613Y-65811679D01*
X70636557Y-65803827D01*
X70659166Y-65798163D01*
X70682221Y-65794744D01*
X70705500Y-65793600D01*
X71280500Y-65793600D01*
X71303779Y-65794744D01*
X71303779Y-65794744D01*
G37*
D11*
X70993000Y-66268600D03*
G04 #@! TD*
D15*
G04 #@! TO.C,D1*
X68276200Y-56845200D03*
X71576200Y-56845200D03*
G04 #@! TD*
G04 #@! TO.C,D2*
X71703200Y-51536600D03*
X68403200Y-51536600D03*
G04 #@! TD*
D16*
G04 #@! TO.C,Q1*
X36052000Y-74660800D03*
X36052000Y-72760800D03*
X34052000Y-73710800D03*
G04 #@! TD*
G04 #@! TO.C,Q2*
X37811200Y-73710800D03*
X39811200Y-72760800D03*
X39811200Y-74660800D03*
G04 #@! TD*
D10*
G04 #@! TO.C,R13*
G36*
X35211179Y-66227344D02*
X35234234Y-66230763D01*
X35256843Y-66236427D01*
X35278787Y-66244279D01*
X35299857Y-66254244D01*
X35319848Y-66266226D01*
X35338568Y-66280110D01*
X35355838Y-66295762D01*
X35371490Y-66313032D01*
X35385374Y-66331752D01*
X35397356Y-66351743D01*
X35407321Y-66372813D01*
X35415173Y-66394757D01*
X35420837Y-66417366D01*
X35424256Y-66440421D01*
X35425400Y-66463700D01*
X35425400Y-67038700D01*
X35424256Y-67061979D01*
X35420837Y-67085034D01*
X35415173Y-67107643D01*
X35407321Y-67129587D01*
X35397356Y-67150657D01*
X35385374Y-67170648D01*
X35371490Y-67189368D01*
X35355838Y-67206638D01*
X35338568Y-67222290D01*
X35319848Y-67236174D01*
X35299857Y-67248156D01*
X35278787Y-67258121D01*
X35256843Y-67265973D01*
X35234234Y-67271637D01*
X35211179Y-67275056D01*
X35187900Y-67276200D01*
X34712900Y-67276200D01*
X34689621Y-67275056D01*
X34666566Y-67271637D01*
X34643957Y-67265973D01*
X34622013Y-67258121D01*
X34600943Y-67248156D01*
X34580952Y-67236174D01*
X34562232Y-67222290D01*
X34544962Y-67206638D01*
X34529310Y-67189368D01*
X34515426Y-67170648D01*
X34503444Y-67150657D01*
X34493479Y-67129587D01*
X34485627Y-67107643D01*
X34479963Y-67085034D01*
X34476544Y-67061979D01*
X34475400Y-67038700D01*
X34475400Y-66463700D01*
X34476544Y-66440421D01*
X34479963Y-66417366D01*
X34485627Y-66394757D01*
X34493479Y-66372813D01*
X34503444Y-66351743D01*
X34515426Y-66331752D01*
X34529310Y-66313032D01*
X34544962Y-66295762D01*
X34562232Y-66280110D01*
X34580952Y-66266226D01*
X34600943Y-66254244D01*
X34622013Y-66244279D01*
X34643957Y-66236427D01*
X34666566Y-66230763D01*
X34689621Y-66227344D01*
X34712900Y-66226200D01*
X35187900Y-66226200D01*
X35211179Y-66227344D01*
X35211179Y-66227344D01*
G37*
D11*
X34950400Y-66751200D03*
D10*
G36*
X35211179Y-64477344D02*
X35234234Y-64480763D01*
X35256843Y-64486427D01*
X35278787Y-64494279D01*
X35299857Y-64504244D01*
X35319848Y-64516226D01*
X35338568Y-64530110D01*
X35355838Y-64545762D01*
X35371490Y-64563032D01*
X35385374Y-64581752D01*
X35397356Y-64601743D01*
X35407321Y-64622813D01*
X35415173Y-64644757D01*
X35420837Y-64667366D01*
X35424256Y-64690421D01*
X35425400Y-64713700D01*
X35425400Y-65288700D01*
X35424256Y-65311979D01*
X35420837Y-65335034D01*
X35415173Y-65357643D01*
X35407321Y-65379587D01*
X35397356Y-65400657D01*
X35385374Y-65420648D01*
X35371490Y-65439368D01*
X35355838Y-65456638D01*
X35338568Y-65472290D01*
X35319848Y-65486174D01*
X35299857Y-65498156D01*
X35278787Y-65508121D01*
X35256843Y-65515973D01*
X35234234Y-65521637D01*
X35211179Y-65525056D01*
X35187900Y-65526200D01*
X34712900Y-65526200D01*
X34689621Y-65525056D01*
X34666566Y-65521637D01*
X34643957Y-65515973D01*
X34622013Y-65508121D01*
X34600943Y-65498156D01*
X34580952Y-65486174D01*
X34562232Y-65472290D01*
X34544962Y-65456638D01*
X34529310Y-65439368D01*
X34515426Y-65420648D01*
X34503444Y-65400657D01*
X34493479Y-65379587D01*
X34485627Y-65357643D01*
X34479963Y-65335034D01*
X34476544Y-65311979D01*
X34475400Y-65288700D01*
X34475400Y-64713700D01*
X34476544Y-64690421D01*
X34479963Y-64667366D01*
X34485627Y-64644757D01*
X34493479Y-64622813D01*
X34503444Y-64601743D01*
X34515426Y-64581752D01*
X34529310Y-64563032D01*
X34544962Y-64545762D01*
X34562232Y-64530110D01*
X34580952Y-64516226D01*
X34600943Y-64504244D01*
X34622013Y-64494279D01*
X34643957Y-64486427D01*
X34666566Y-64480763D01*
X34689621Y-64477344D01*
X34712900Y-64476200D01*
X35187900Y-64476200D01*
X35211179Y-64477344D01*
X35211179Y-64477344D01*
G37*
D11*
X34950400Y-65001200D03*
G04 #@! TD*
D10*
G04 #@! TO.C,R14*
G36*
X28505579Y-64488744D02*
X28528634Y-64492163D01*
X28551243Y-64497827D01*
X28573187Y-64505679D01*
X28594257Y-64515644D01*
X28614248Y-64527626D01*
X28632968Y-64541510D01*
X28650238Y-64557162D01*
X28665890Y-64574432D01*
X28679774Y-64593152D01*
X28691756Y-64613143D01*
X28701721Y-64634213D01*
X28709573Y-64656157D01*
X28715237Y-64678766D01*
X28718656Y-64701821D01*
X28719800Y-64725100D01*
X28719800Y-65300100D01*
X28718656Y-65323379D01*
X28715237Y-65346434D01*
X28709573Y-65369043D01*
X28701721Y-65390987D01*
X28691756Y-65412057D01*
X28679774Y-65432048D01*
X28665890Y-65450768D01*
X28650238Y-65468038D01*
X28632968Y-65483690D01*
X28614248Y-65497574D01*
X28594257Y-65509556D01*
X28573187Y-65519521D01*
X28551243Y-65527373D01*
X28528634Y-65533037D01*
X28505579Y-65536456D01*
X28482300Y-65537600D01*
X28007300Y-65537600D01*
X27984021Y-65536456D01*
X27960966Y-65533037D01*
X27938357Y-65527373D01*
X27916413Y-65519521D01*
X27895343Y-65509556D01*
X27875352Y-65497574D01*
X27856632Y-65483690D01*
X27839362Y-65468038D01*
X27823710Y-65450768D01*
X27809826Y-65432048D01*
X27797844Y-65412057D01*
X27787879Y-65390987D01*
X27780027Y-65369043D01*
X27774363Y-65346434D01*
X27770944Y-65323379D01*
X27769800Y-65300100D01*
X27769800Y-64725100D01*
X27770944Y-64701821D01*
X27774363Y-64678766D01*
X27780027Y-64656157D01*
X27787879Y-64634213D01*
X27797844Y-64613143D01*
X27809826Y-64593152D01*
X27823710Y-64574432D01*
X27839362Y-64557162D01*
X27856632Y-64541510D01*
X27875352Y-64527626D01*
X27895343Y-64515644D01*
X27916413Y-64505679D01*
X27938357Y-64497827D01*
X27960966Y-64492163D01*
X27984021Y-64488744D01*
X28007300Y-64487600D01*
X28482300Y-64487600D01*
X28505579Y-64488744D01*
X28505579Y-64488744D01*
G37*
D11*
X28244800Y-65012600D03*
D10*
G36*
X28505579Y-66238744D02*
X28528634Y-66242163D01*
X28551243Y-66247827D01*
X28573187Y-66255679D01*
X28594257Y-66265644D01*
X28614248Y-66277626D01*
X28632968Y-66291510D01*
X28650238Y-66307162D01*
X28665890Y-66324432D01*
X28679774Y-66343152D01*
X28691756Y-66363143D01*
X28701721Y-66384213D01*
X28709573Y-66406157D01*
X28715237Y-66428766D01*
X28718656Y-66451821D01*
X28719800Y-66475100D01*
X28719800Y-67050100D01*
X28718656Y-67073379D01*
X28715237Y-67096434D01*
X28709573Y-67119043D01*
X28701721Y-67140987D01*
X28691756Y-67162057D01*
X28679774Y-67182048D01*
X28665890Y-67200768D01*
X28650238Y-67218038D01*
X28632968Y-67233690D01*
X28614248Y-67247574D01*
X28594257Y-67259556D01*
X28573187Y-67269521D01*
X28551243Y-67277373D01*
X28528634Y-67283037D01*
X28505579Y-67286456D01*
X28482300Y-67287600D01*
X28007300Y-67287600D01*
X27984021Y-67286456D01*
X27960966Y-67283037D01*
X27938357Y-67277373D01*
X27916413Y-67269521D01*
X27895343Y-67259556D01*
X27875352Y-67247574D01*
X27856632Y-67233690D01*
X27839362Y-67218038D01*
X27823710Y-67200768D01*
X27809826Y-67182048D01*
X27797844Y-67162057D01*
X27787879Y-67140987D01*
X27780027Y-67119043D01*
X27774363Y-67096434D01*
X27770944Y-67073379D01*
X27769800Y-67050100D01*
X27769800Y-66475100D01*
X27770944Y-66451821D01*
X27774363Y-66428766D01*
X27780027Y-66406157D01*
X27787879Y-66384213D01*
X27797844Y-66363143D01*
X27809826Y-66343152D01*
X27823710Y-66324432D01*
X27839362Y-66307162D01*
X27856632Y-66291510D01*
X27875352Y-66277626D01*
X27895343Y-66265644D01*
X27916413Y-66255679D01*
X27938357Y-66247827D01*
X27960966Y-66242163D01*
X27984021Y-66238744D01*
X28007300Y-66237600D01*
X28482300Y-66237600D01*
X28505579Y-66238744D01*
X28505579Y-66238744D01*
G37*
D11*
X28244800Y-66762600D03*
G04 #@! TD*
D10*
G04 #@! TO.C,R15*
G36*
X39275179Y-70201144D02*
X39298234Y-70204563D01*
X39320843Y-70210227D01*
X39342787Y-70218079D01*
X39363857Y-70228044D01*
X39383848Y-70240026D01*
X39402568Y-70253910D01*
X39419838Y-70269562D01*
X39435490Y-70286832D01*
X39449374Y-70305552D01*
X39461356Y-70325543D01*
X39471321Y-70346613D01*
X39479173Y-70368557D01*
X39484837Y-70391166D01*
X39488256Y-70414221D01*
X39489400Y-70437500D01*
X39489400Y-71012500D01*
X39488256Y-71035779D01*
X39484837Y-71058834D01*
X39479173Y-71081443D01*
X39471321Y-71103387D01*
X39461356Y-71124457D01*
X39449374Y-71144448D01*
X39435490Y-71163168D01*
X39419838Y-71180438D01*
X39402568Y-71196090D01*
X39383848Y-71209974D01*
X39363857Y-71221956D01*
X39342787Y-71231921D01*
X39320843Y-71239773D01*
X39298234Y-71245437D01*
X39275179Y-71248856D01*
X39251900Y-71250000D01*
X38776900Y-71250000D01*
X38753621Y-71248856D01*
X38730566Y-71245437D01*
X38707957Y-71239773D01*
X38686013Y-71231921D01*
X38664943Y-71221956D01*
X38644952Y-71209974D01*
X38626232Y-71196090D01*
X38608962Y-71180438D01*
X38593310Y-71163168D01*
X38579426Y-71144448D01*
X38567444Y-71124457D01*
X38557479Y-71103387D01*
X38549627Y-71081443D01*
X38543963Y-71058834D01*
X38540544Y-71035779D01*
X38539400Y-71012500D01*
X38539400Y-70437500D01*
X38540544Y-70414221D01*
X38543963Y-70391166D01*
X38549627Y-70368557D01*
X38557479Y-70346613D01*
X38567444Y-70325543D01*
X38579426Y-70305552D01*
X38593310Y-70286832D01*
X38608962Y-70269562D01*
X38626232Y-70253910D01*
X38644952Y-70240026D01*
X38664943Y-70228044D01*
X38686013Y-70218079D01*
X38707957Y-70210227D01*
X38730566Y-70204563D01*
X38753621Y-70201144D01*
X38776900Y-70200000D01*
X39251900Y-70200000D01*
X39275179Y-70201144D01*
X39275179Y-70201144D01*
G37*
D11*
X39014400Y-70725000D03*
D10*
G36*
X39275179Y-68451144D02*
X39298234Y-68454563D01*
X39320843Y-68460227D01*
X39342787Y-68468079D01*
X39363857Y-68478044D01*
X39383848Y-68490026D01*
X39402568Y-68503910D01*
X39419838Y-68519562D01*
X39435490Y-68536832D01*
X39449374Y-68555552D01*
X39461356Y-68575543D01*
X39471321Y-68596613D01*
X39479173Y-68618557D01*
X39484837Y-68641166D01*
X39488256Y-68664221D01*
X39489400Y-68687500D01*
X39489400Y-69262500D01*
X39488256Y-69285779D01*
X39484837Y-69308834D01*
X39479173Y-69331443D01*
X39471321Y-69353387D01*
X39461356Y-69374457D01*
X39449374Y-69394448D01*
X39435490Y-69413168D01*
X39419838Y-69430438D01*
X39402568Y-69446090D01*
X39383848Y-69459974D01*
X39363857Y-69471956D01*
X39342787Y-69481921D01*
X39320843Y-69489773D01*
X39298234Y-69495437D01*
X39275179Y-69498856D01*
X39251900Y-69500000D01*
X38776900Y-69500000D01*
X38753621Y-69498856D01*
X38730566Y-69495437D01*
X38707957Y-69489773D01*
X38686013Y-69481921D01*
X38664943Y-69471956D01*
X38644952Y-69459974D01*
X38626232Y-69446090D01*
X38608962Y-69430438D01*
X38593310Y-69413168D01*
X38579426Y-69394448D01*
X38567444Y-69374457D01*
X38557479Y-69353387D01*
X38549627Y-69331443D01*
X38543963Y-69308834D01*
X38540544Y-69285779D01*
X38539400Y-69262500D01*
X38539400Y-68687500D01*
X38540544Y-68664221D01*
X38543963Y-68641166D01*
X38549627Y-68618557D01*
X38557479Y-68596613D01*
X38567444Y-68575543D01*
X38579426Y-68555552D01*
X38593310Y-68536832D01*
X38608962Y-68519562D01*
X38626232Y-68503910D01*
X38644952Y-68490026D01*
X38664943Y-68478044D01*
X38686013Y-68468079D01*
X38707957Y-68460227D01*
X38730566Y-68454563D01*
X38753621Y-68451144D01*
X38776900Y-68450000D01*
X39251900Y-68450000D01*
X39275179Y-68451144D01*
X39275179Y-68451144D01*
G37*
D11*
X39014400Y-68975000D03*
G04 #@! TD*
D10*
G04 #@! TO.C,R16*
G36*
X44456779Y-68411744D02*
X44479834Y-68415163D01*
X44502443Y-68420827D01*
X44524387Y-68428679D01*
X44545457Y-68438644D01*
X44565448Y-68450626D01*
X44584168Y-68464510D01*
X44601438Y-68480162D01*
X44617090Y-68497432D01*
X44630974Y-68516152D01*
X44642956Y-68536143D01*
X44652921Y-68557213D01*
X44660773Y-68579157D01*
X44666437Y-68601766D01*
X44669856Y-68624821D01*
X44671000Y-68648100D01*
X44671000Y-69223100D01*
X44669856Y-69246379D01*
X44666437Y-69269434D01*
X44660773Y-69292043D01*
X44652921Y-69313987D01*
X44642956Y-69335057D01*
X44630974Y-69355048D01*
X44617090Y-69373768D01*
X44601438Y-69391038D01*
X44584168Y-69406690D01*
X44565448Y-69420574D01*
X44545457Y-69432556D01*
X44524387Y-69442521D01*
X44502443Y-69450373D01*
X44479834Y-69456037D01*
X44456779Y-69459456D01*
X44433500Y-69460600D01*
X43958500Y-69460600D01*
X43935221Y-69459456D01*
X43912166Y-69456037D01*
X43889557Y-69450373D01*
X43867613Y-69442521D01*
X43846543Y-69432556D01*
X43826552Y-69420574D01*
X43807832Y-69406690D01*
X43790562Y-69391038D01*
X43774910Y-69373768D01*
X43761026Y-69355048D01*
X43749044Y-69335057D01*
X43739079Y-69313987D01*
X43731227Y-69292043D01*
X43725563Y-69269434D01*
X43722144Y-69246379D01*
X43721000Y-69223100D01*
X43721000Y-68648100D01*
X43722144Y-68624821D01*
X43725563Y-68601766D01*
X43731227Y-68579157D01*
X43739079Y-68557213D01*
X43749044Y-68536143D01*
X43761026Y-68516152D01*
X43774910Y-68497432D01*
X43790562Y-68480162D01*
X43807832Y-68464510D01*
X43826552Y-68450626D01*
X43846543Y-68438644D01*
X43867613Y-68428679D01*
X43889557Y-68420827D01*
X43912166Y-68415163D01*
X43935221Y-68411744D01*
X43958500Y-68410600D01*
X44433500Y-68410600D01*
X44456779Y-68411744D01*
X44456779Y-68411744D01*
G37*
D11*
X44196000Y-68935600D03*
D10*
G36*
X44456779Y-70161744D02*
X44479834Y-70165163D01*
X44502443Y-70170827D01*
X44524387Y-70178679D01*
X44545457Y-70188644D01*
X44565448Y-70200626D01*
X44584168Y-70214510D01*
X44601438Y-70230162D01*
X44617090Y-70247432D01*
X44630974Y-70266152D01*
X44642956Y-70286143D01*
X44652921Y-70307213D01*
X44660773Y-70329157D01*
X44666437Y-70351766D01*
X44669856Y-70374821D01*
X44671000Y-70398100D01*
X44671000Y-70973100D01*
X44669856Y-70996379D01*
X44666437Y-71019434D01*
X44660773Y-71042043D01*
X44652921Y-71063987D01*
X44642956Y-71085057D01*
X44630974Y-71105048D01*
X44617090Y-71123768D01*
X44601438Y-71141038D01*
X44584168Y-71156690D01*
X44565448Y-71170574D01*
X44545457Y-71182556D01*
X44524387Y-71192521D01*
X44502443Y-71200373D01*
X44479834Y-71206037D01*
X44456779Y-71209456D01*
X44433500Y-71210600D01*
X43958500Y-71210600D01*
X43935221Y-71209456D01*
X43912166Y-71206037D01*
X43889557Y-71200373D01*
X43867613Y-71192521D01*
X43846543Y-71182556D01*
X43826552Y-71170574D01*
X43807832Y-71156690D01*
X43790562Y-71141038D01*
X43774910Y-71123768D01*
X43761026Y-71105048D01*
X43749044Y-71085057D01*
X43739079Y-71063987D01*
X43731227Y-71042043D01*
X43725563Y-71019434D01*
X43722144Y-70996379D01*
X43721000Y-70973100D01*
X43721000Y-70398100D01*
X43722144Y-70374821D01*
X43725563Y-70351766D01*
X43731227Y-70329157D01*
X43739079Y-70307213D01*
X43749044Y-70286143D01*
X43761026Y-70266152D01*
X43774910Y-70247432D01*
X43790562Y-70230162D01*
X43807832Y-70214510D01*
X43826552Y-70200626D01*
X43846543Y-70188644D01*
X43867613Y-70178679D01*
X43889557Y-70170827D01*
X43912166Y-70165163D01*
X43935221Y-70161744D01*
X43958500Y-70160600D01*
X44433500Y-70160600D01*
X44456779Y-70161744D01*
X44456779Y-70161744D01*
G37*
D11*
X44196000Y-70685600D03*
G04 #@! TD*
M02*
